<svg width="50" height="50" viewBox="0 0 50 50" fill="none" xmlns="http://www.w3.org/2000/svg">
<path fill-rule="evenodd" clip-rule="evenodd" d="M33.3511 8.35112C34.4514 7.25075 35.9439 6.63257 37.5 6.63257C39.0562 6.63257 40.5486 7.25075 41.649 8.35112C42.7493 9.45149 43.3675 10.9439 43.3675 12.5001C43.3675 14.0562 42.7493 15.5487 41.649 16.649C41.6403 16.6577 41.6316 16.6662 41.6227 16.6745L35.7403 22.2004L41.7263 38.6621C41.8819 39.09 41.7756 39.5693 41.4537 39.8912L36.7662 44.5787C36.5179 44.827 36.1714 44.9508 35.822 44.9162C35.4727 44.8816 35.1572 44.6922 34.9625 44.4001L26.3804 31.527L23.0469 34.8605V39.0626C23.0469 39.3734 22.9234 39.6714 22.7037 39.8912L18.0162 44.5787C17.7376 44.8573 17.3378 44.9772 16.9519 44.898C16.566 44.8188 16.2458 44.551 16.0995 44.1853L13.161 36.8391L5.8148 33.9006C5.44905 33.7543 5.18128 33.4341 5.10208 33.0482C5.02287 32.6623 5.14284 32.2625 5.42138 31.9839L10.1089 27.2964C10.3286 27.0767 10.6267 26.9532 10.9375 26.9532H15.1396L18.4731 23.6197L5.59998 15.0376C5.30786 14.8429 5.11844 14.5274 5.08385 14.178C5.04925 13.8287 5.17312 13.4822 5.42138 13.2339L10.1089 8.54643C10.4308 8.22449 10.9101 8.11816 11.338 8.27375L27.7997 14.2598L33.3256 8.37741C33.3339 8.36851 33.3424 8.35975 33.3511 8.35112ZM35.0204 9.99641L28.9791 16.4274C28.6583 16.7689 28.1649 16.8865 27.7245 16.7264L11.2384 10.7314L8.08944 13.8804L20.9626 22.4625C21.2547 22.6573 21.4441 22.9727 21.4787 23.3221C21.5133 23.6715 21.3894 24.018 21.1412 24.2662L16.4537 28.9537C16.2339 29.1735 15.9358 29.2969 15.625 29.2969H11.4229L8.33533 32.3845L14.4977 34.8495C14.7955 34.9686 15.0315 35.2046 15.1506 35.5023L17.6155 41.6648L20.7031 38.5772V34.3751C20.7031 34.0643 20.8266 33.7662 21.0464 33.5464L25.7339 28.8589C25.9821 28.6107 26.3286 28.4868 26.678 28.5214C27.0274 28.556 27.3428 28.7454 27.5376 29.0375L36.1197 41.9107L39.2687 38.7617L33.2737 22.2756C33.1136 21.8352 33.2311 21.3418 33.5727 21.021L40.0037 14.9797C40.657 14.3201 41.0238 13.429 41.0238 12.5001C41.0238 11.5655 40.6525 10.6692 39.9917 10.0084C39.3309 9.34757 38.4346 8.97632 37.5 8.97632C36.5711 8.97632 35.6801 9.34308 35.0204 9.99641Z" fill="#3E441D"/>
</svg>
