<svg width="51" height="50" viewBox="0 0 51 50" fill="none" xmlns="http://www.w3.org/2000/svg">
<path fill-rule="evenodd" clip-rule="evenodd" d="M25.5 3.51575C26.1472 3.51575 26.6719 4.04041 26.6719 4.68762V9.37512C26.6719 10.0223 26.1472 10.547 25.5 10.547C24.8528 10.547 24.3281 10.0223 24.3281 9.37512V4.68762C24.3281 4.04041 24.8528 3.51575 25.5 3.51575Z" fill="#3E441D"/>
<path fill-rule="evenodd" clip-rule="evenodd" d="M25.5 16.0157C26.1472 16.0157 26.6719 16.5404 26.6719 17.1876V32.8126C26.6719 33.4598 26.1472 33.9845 25.5 33.9845C24.8528 33.9845 24.3281 33.4598 24.3281 32.8126V17.1876C24.3281 16.5404 24.8528 16.0157 25.5 16.0157Z" fill="#3E441D"/>
<path fill-rule="evenodd" clip-rule="evenodd" d="M25.1294 16.0759C25.37 15.9957 25.63 15.9957 25.8706 16.0759L43.5523 21.9704C44.0967 22.1519 44.5703 22.5001 44.9058 22.9657C45.2414 23.4313 45.4219 23.9907 45.4219 24.5646V29.6876C45.4219 35.8743 40.1496 40.0774 35.4331 42.6321C33.0166 43.941 30.6102 44.8927 28.8141 45.5163C27.9141 45.8288 27.1627 46.0606 26.6338 46.2148C26.3692 46.292 26.1601 46.3499 26.0155 46.3888C25.9431 46.4083 25.887 46.4231 25.848 46.4332L25.8028 46.4448L25.7901 46.448L25.7863 46.449C25.7863 46.449 25.7842 46.4495 25.5 45.3126C25.2158 46.4495 25.215 46.4493 25.215 46.4493L25.2099 46.448L25.1972 46.4448L25.152 46.4332C25.113 46.4231 25.0569 46.4083 24.9845 46.3888C24.8399 46.3499 24.6308 46.292 24.3662 46.2148C23.8373 46.0606 23.0859 45.8288 22.1859 45.5163C20.3898 44.8927 17.9833 43.941 15.5669 42.6321C10.8504 40.0774 5.57813 35.8743 5.57813 29.6876V24.5647C5.5781 23.9908 5.75864 23.4313 6.09418 22.9657C6.42973 22.5001 6.90328 22.1519 7.44774 21.9704L25.1294 16.0759ZM25.5 45.3126L25.215 46.4493C25.4016 46.4959 25.5976 46.4962 25.7842 46.4495L25.5 45.3126ZM25.5 44.1002C25.623 44.0664 25.7836 44.0214 25.9775 43.9648C26.474 43.82 27.1875 43.6001 28.0453 43.3023C29.7648 42.7052 32.0459 41.8014 34.3169 40.5713C38.9754 38.0479 43.0781 34.4384 43.0781 29.6876V24.5646C43.0781 24.4826 43.0523 24.4026 43.0044 24.3361C42.9565 24.2696 42.8888 24.2198 42.811 24.1939L25.5 18.4229L8.18898 24.1939C8.11119 24.2198 8.04353 24.2696 7.9956 24.3361C7.94766 24.4026 7.92187 24.4825 7.92188 24.5645V29.6876C7.92188 34.4384 12.0246 38.0479 16.6831 40.5713C18.9542 41.8014 21.2352 42.7052 22.9547 43.3023C23.8125 43.6001 24.526 43.82 25.0225 43.9648C25.2164 44.0214 25.377 44.0664 25.5 44.1002Z" fill="#3E441D"/>
<path fill-rule="evenodd" clip-rule="evenodd" d="M13 10.547C12.8964 10.547 12.797 10.5882 12.7238 10.6614C12.6505 10.7347 12.6094 10.834 12.6094 10.9376V21.8751C12.6094 22.5223 12.0847 23.047 11.4375 23.047C10.7903 23.047 10.2656 22.5223 10.2656 21.8751V10.9376C10.2656 10.2124 10.5537 9.51692 11.0665 9.00413C11.5793 8.49133 12.2748 8.20325 13 8.20325H38C38.7252 8.20325 39.4207 8.49133 39.9335 9.00413C40.4463 9.51692 40.7344 10.2124 40.7344 10.9376V21.8751C40.7344 22.5223 40.2097 23.047 39.5625 23.047C38.9153 23.047 38.3906 22.5223 38.3906 21.8751V10.9376C38.3906 10.834 38.3495 10.7347 38.2762 10.6614C38.203 10.5882 38.1036 10.547 38 10.547H13Z" fill="#3E441D"/>
</svg>
