<svg width="51" height="50" viewBox="0 0 51 50" fill="none" xmlns="http://www.w3.org/2000/svg">
<path fill-rule="evenodd" clip-rule="evenodd" d="M8.70312 14.0626C8.70312 13.4154 9.22779 12.8907 9.875 12.8907H41.125C41.7722 12.8907 42.2969 13.4154 42.2969 14.0626C42.2969 14.7098 41.7722 15.2345 41.125 15.2345H9.875C9.22779 15.2345 8.70312 14.7098 8.70312 14.0626Z" fill="#3E441D"/>
<path fill-rule="evenodd" clip-rule="evenodd" d="M8.70312 21.8751C8.70312 21.2279 9.22779 20.7032 9.875 20.7032H41.125C41.7722 20.7032 42.2969 21.2279 42.2969 21.8751C42.2969 22.5223 41.7722 23.047 41.125 23.047H9.875C9.22779 23.047 8.70312 22.5223 8.70312 21.8751Z" fill="#3E441D"/>
<path fill-rule="evenodd" clip-rule="evenodd" d="M14.5625 8.9845C13.6301 8.9845 12.7359 9.35489 12.0766 10.0142C11.4173 10.6735 11.0469 11.5677 11.0469 12.5001V34.7657H39.9531V12.5001C39.9531 11.5677 39.5827 10.6735 38.9234 10.0142C38.2641 9.35489 37.3699 8.9845 36.4375 8.9845H14.5625ZM10.4193 8.35692C11.5181 7.25807 13.0085 6.64075 14.5625 6.64075H36.4375C37.9915 6.64075 39.4819 7.25807 40.5807 8.35692C41.6796 9.45576 42.2969 10.9461 42.2969 12.5001V35.9376C42.2969 36.5848 41.7722 37.1095 41.125 37.1095H9.875C9.22779 37.1095 8.70312 36.5848 8.70312 35.9376V12.5001C8.70312 10.9461 9.32045 9.45576 10.4193 8.35692Z" fill="#3E441D"/>
<path fill-rule="evenodd" clip-rule="evenodd" d="M33.3125 34.7657C33.9597 34.7657 34.4844 35.2904 34.4844 35.9376V40.6251C34.4844 40.7287 34.5255 40.8281 34.5988 40.9013C34.672 40.9746 34.7714 41.0157 34.875 41.0157H39.5625C39.6661 41.0157 39.7655 40.9746 39.8387 40.9013C39.912 40.8281 39.9531 40.7287 39.9531 40.6251V35.9376C39.9531 35.2904 40.4778 34.7657 41.125 34.7657C41.7722 34.7657 42.2969 35.2904 42.2969 35.9376V40.6251C42.2969 41.3503 42.0088 42.0458 41.496 42.5586C40.9832 43.0714 40.2877 43.3595 39.5625 43.3595H34.875C34.1498 43.3595 33.4543 43.0714 32.9415 42.5586C32.4287 42.0458 32.1406 41.3503 32.1406 40.6251V35.9376C32.1406 35.2904 32.6653 34.7657 33.3125 34.7657Z" fill="#3E441D"/>
<path fill-rule="evenodd" clip-rule="evenodd" d="M9.875 34.7657C10.5222 34.7657 11.0469 35.2904 11.0469 35.9376V40.6251C11.0469 40.7287 11.088 40.8281 11.1613 40.9013C11.2345 40.9746 11.3339 41.0157 11.4375 41.0157H16.125C16.2286 41.0157 16.328 40.9746 16.4012 40.9013C16.4745 40.8281 16.5156 40.7287 16.5156 40.6251V35.9376C16.5156 35.2904 17.0403 34.7657 17.6875 34.7657C18.3347 34.7657 18.8594 35.2904 18.8594 35.9376V40.6251C18.8594 41.3503 18.5713 42.0458 18.0585 42.5586C17.5457 43.0714 16.8502 43.3595 16.125 43.3595H11.4375C10.7123 43.3595 10.0168 43.0714 9.504 42.5586C8.99121 42.0458 8.70312 41.3503 8.70312 40.6251V35.9376C8.70312 35.2904 9.22779 34.7657 9.875 34.7657Z" fill="#3E441D"/>
<path d="M18.4688 31.2501C19.7632 31.2501 20.8125 30.2008 20.8125 28.9064C20.8125 27.612 19.7632 26.5626 18.4688 26.5626C17.1743 26.5626 16.125 27.612 16.125 28.9064C16.125 30.2008 17.1743 31.2501 18.4688 31.2501Z" fill="#3E441D"/>
<path d="M32.5312 31.2501C33.8257 31.2501 34.875 30.2008 34.875 28.9064C34.875 27.612 33.8257 26.5626 32.5312 26.5626C31.2368 26.5626 30.1875 27.612 30.1875 28.9064C30.1875 30.2008 31.2368 31.2501 32.5312 31.2501Z" fill="#3E441D"/>
<path fill-rule="evenodd" clip-rule="evenodd" d="M47.375 14.4532C48.0222 14.4532 48.5469 14.9779 48.5469 15.6251V20.3126C48.5469 20.9598 48.0222 21.4845 47.375 21.4845C46.7278 21.4845 46.2031 20.9598 46.2031 20.3126V15.6251C46.2031 14.9779 46.7278 14.4532 47.375 14.4532Z" fill="#3E441D"/>
<path fill-rule="evenodd" clip-rule="evenodd" d="M3.625 14.4532C4.27221 14.4532 4.79688 14.9779 4.79688 15.6251V20.3126C4.79688 20.9598 4.27221 21.4845 3.625 21.4845C2.97779 21.4845 2.45312 20.9598 2.45312 20.3126V15.6251C2.45312 14.9779 2.97779 14.4532 3.625 14.4532Z" fill="#3E441D"/>
</svg>
