<svg width="50" height="50" viewBox="0 0 50 50" fill="none" xmlns="http://www.w3.org/2000/svg">
<path fill-rule="evenodd" clip-rule="evenodd" d="M1.95312 21.8751C1.95312 21.2279 2.47779 20.7032 3.125 20.7032H46.875C47.5222 20.7032 48.0469 21.2279 48.0469 21.8751C48.0469 22.5223 47.5222 23.047 46.875 23.047H3.125C2.47779 23.047 1.95312 22.5223 1.95312 21.8751Z" fill="#3E441D"/>
<path fill-rule="evenodd" clip-rule="evenodd" d="M35.9375 33.2032C36.5847 33.2032 37.1094 33.7279 37.1094 34.3751V39.0626C37.1094 39.1662 37.1505 39.2656 37.2238 39.3388C37.297 39.4121 37.3964 39.4532 37.5 39.4532H42.1875C42.2911 39.4532 42.3905 39.4121 42.4637 39.3388C42.537 39.2656 42.5781 39.1662 42.5781 39.0626V34.3751C42.5781 33.7279 43.1028 33.2032 43.75 33.2032C44.3972 33.2032 44.9219 33.7279 44.9219 34.3751V39.0626C44.9219 39.7878 44.6338 40.4833 44.121 40.9961C43.6082 41.5089 42.9127 41.797 42.1875 41.797H37.5C36.7748 41.797 36.0793 41.5089 35.5665 40.9961C35.0537 40.4833 34.7656 39.7878 34.7656 39.0626V34.3751C34.7656 33.7279 35.2903 33.2032 35.9375 33.2032Z" fill="#3E441D"/>
<path fill-rule="evenodd" clip-rule="evenodd" d="M6.25 33.2032C6.89721 33.2032 7.42188 33.7279 7.42188 34.3751V39.0626C7.42188 39.1662 7.46303 39.2656 7.53629 39.3388C7.60954 39.4121 7.7089 39.4532 7.8125 39.4532H12.5C12.6036 39.4532 12.703 39.4121 12.7762 39.3388C12.8495 39.2656 12.8906 39.1662 12.8906 39.0626V34.3751C12.8906 33.7279 13.4153 33.2032 14.0625 33.2032C14.7097 33.2032 15.2344 33.7279 15.2344 34.3751V39.0626C15.2344 39.7878 14.9463 40.4833 14.4335 40.9961C13.9207 41.5089 13.2252 41.797 12.5 41.797H7.8125C7.0873 41.797 6.3918 41.5089 5.879 40.9961C5.36621 40.4833 5.07812 39.7878 5.07812 39.0626V34.3751C5.07812 33.7279 5.60279 33.2032 6.25 33.2032Z" fill="#3E441D"/>
<path fill-rule="evenodd" clip-rule="evenodd" d="M11.3281 28.1251C11.3281 27.4779 11.8528 26.9532 12.5 26.9532H15.625C16.2722 26.9532 16.7969 27.4779 16.7969 28.1251C16.7969 28.7723 16.2722 29.297 15.625 29.297H12.5C11.8528 29.297 11.3281 28.7723 11.3281 28.1251Z" fill="#3E441D"/>
<path fill-rule="evenodd" clip-rule="evenodd" d="M33.2031 28.1251C33.2031 27.4779 33.7278 26.9532 34.375 26.9532H37.5C38.1472 26.9532 38.6719 27.4779 38.6719 28.1251C38.6719 28.7723 38.1472 29.297 37.5 29.297H34.375C33.7278 29.297 33.2031 28.7723 33.2031 28.1251Z" fill="#3E441D"/>
<path fill-rule="evenodd" clip-rule="evenodd" d="M12.0258 7.08229C12.4692 6.79413 12.9867 6.64075 13.5156 6.64075H36.4844C37.0133 6.64075 37.5308 6.79413 37.9742 7.08229C38.4177 7.37045 38.7681 7.78103 38.9829 8.26428L44.8209 21.3992C44.8875 21.549 44.9219 21.7111 44.9219 21.8751V34.3751C44.9219 35.0223 44.3972 35.547 43.75 35.547H6.25C5.60279 35.547 5.07812 35.0223 5.07812 34.3751V21.8751C5.07812 21.7111 5.11254 21.549 5.17913 21.3992L11.017 8.2644C11.2319 7.78114 11.5823 7.37045 12.0258 7.08229ZM13.5156 8.9845C13.4401 8.9845 13.3662 9.00641 13.3028 9.04757C13.2395 9.08872 13.1895 9.14733 13.1588 9.21631C13.1587 9.21635 13.1588 9.21628 13.1588 9.21631L7.42188 22.1238V33.2032H42.5781V22.1238L36.8413 9.21643C36.8106 9.14739 36.7605 9.08874 36.6972 9.04757C36.6338 9.00641 36.5599 8.9845 36.4844 8.9845H13.5156C13.5156 8.9845 13.5156 8.9845 13.5156 8.9845Z" fill="#3E441D"/>
</svg>
