<svg width="218" height="51" viewBox="0 0 218 51" fill="none" xmlns="http://www.w3.org/2000/svg">
<g clip-path="url(#clip0_20873_30646)">
<mask id="mask0_20873_30646" style="mask-type:luminance" maskUnits="userSpaceOnUse" x="0" y="0" width="218" height="51">
<path d="M217.943 0.541016H0.0546875V50.541H217.943V0.541016Z" fill="white"/>
</mask>
<g mask="url(#mask0_20873_30646)">
<path d="M9.79542 16.0804L2.5448 16.0584V4.25781H9.39078C12.6536 4.25781 15.3085 6.91271 15.3085 10.1755C15.3085 13.4383 12.8696 15.8716 9.79542 16.0822M9.39078 1.69629H0.0546875V26.8373H2.5448V18.5503H9.39078C14.0268 18.5503 17.7986 14.7785 17.7986 10.1425V10.1041C17.7986 5.46808 14.0268 1.69629 9.39078 1.69629Z" fill="#44695B"/>
</g>
<path d="M32.7558 7.47294L37.4101 19.0941H28.0374L32.7558 7.47294ZM22.1875 26.8372H24.8845L27.0267 21.586H38.4117L40.521 26.8372H43.218L32.7577 0.766113L22.1875 26.8372Z" fill="#44695B"/>
<path d="M55.4451 24.3472V1.72925H52.9531V26.8721H66.744L66.6909 24.3472H55.4451Z" fill="#44695B"/>
<path d="M79.162 24.3474V1.72949H76.6719V26.8723H90.4609L90.4078 24.3474H79.162Z" fill="#44695B"/>
<path d="M110.725 7.47294L115.379 19.0941H106.006L110.725 7.47294ZM100.156 26.8372H102.853L104.997 21.586H116.38L118.49 26.8372H121.187L110.726 0.766113L100.156 26.8372Z" fill="#44695B"/>
<mask id="mask1_20873_30646" style="mask-type:luminance" maskUnits="userSpaceOnUse" x="0" y="0" width="218" height="51">
<path d="M217.943 0.541016H0.0546875V50.541H217.943V0.541016Z" fill="white"/>
</mask>
<g mask="url(#mask1_20873_30646)">
<path d="M136.161 24.347H133.389V4.2229H136.161C141.71 4.2229 146.222 8.7344 146.222 14.2822C146.222 19.83 141.71 24.347 136.161 24.347ZM136.567 1.73645L130.898 1.69434V26.8353H136.161C143.082 26.8353 148.712 21.2033 148.712 14.2822C148.712 7.36117 143.3 1.95067 136.567 1.73645Z" fill="#44695B"/>
</g>
<path d="M161.148 1.69434H158.656V26.8353H161.148V1.69434Z" fill="#44695B"/>
<mask id="mask2_20873_30646" style="mask-type:luminance" maskUnits="userSpaceOnUse" x="0" y="0" width="218" height="51">
<path d="M217.943 0.541016H0.0546875V50.541H217.943V0.541016Z" fill="white"/>
</mask>
<g mask="url(#mask2_20873_30646)">
<path d="M184.799 18.7226C184.83 20.7275 183.77 22.617 182.029 23.6533C180.291 24.6878 178.14 24.6842 176.41 23.6533C174.668 22.6152 173.61 20.7275 173.641 18.7152V1.69458H171.149V18.7079C171.111 21.6246 172.652 24.3491 175.172 25.8175C176.431 26.5481 177.843 26.9143 179.253 26.9143C180.663 26.9143 182.076 26.5481 183.336 25.8175C185.854 24.3491 187.397 21.6283 187.359 18.7134V1.69458H184.869L184.797 18.7207L184.799 18.7226Z" fill="#44695B"/>
</g>
<path d="M197.234 0.541016V26.8355H199.724V8.41417L207.534 19.4128L215.454 8.36473V26.8007H217.944V0.55017L207.537 15.0844L197.234 0.541016Z" fill="#44695B"/>
<mask id="mask3_20873_30646" style="mask-type:luminance" maskUnits="userSpaceOnUse" x="0" y="0" width="218" height="51">
<path d="M217.943 0.541016H0.0546875V50.541H217.943V0.541016Z" fill="white"/>
</mask>
<g mask="url(#mask3_20873_30646)">
<path d="M7.20278 41.9979C7.20278 43.5084 5.9742 44.737 4.46548 44.737H1.29059V39.2587H4.46548C5.97603 39.2587 7.20278 40.4891 7.20278 41.9979ZM8.4222 41.6939C8.26291 39.6268 6.52715 38.0063 4.46548 38.0063H0.0546875V49.8564H1.29059V45.9747H3.93633L6.83292 49.7685L6.89884 49.8582H8.4698L5.41575 45.8484C7.27235 45.3961 8.57051 43.6402 8.4222 41.6957" fill="#44695B"/>
</g>
<path d="M34.7891 38.041V49.891H42.1532V48.6203H36.0433V45.9728H41.3988V44.7387H36.0433V39.2751H42.1532V38.041H34.7891Z" fill="#44695B"/>
<path d="M72.601 46.6138L69.719 37.9881H68.4062L72.601 50.5412L75.699 41.2802L78.8318 50.5138L82.9935 38.2847L83.0943 37.9881H81.8016L78.8482 46.6413L75.6972 37.3784L72.601 46.6138Z" fill="#44695B"/>
<path d="M110.914 40.8424L113.043 46.1613H108.753L110.914 40.8424ZM105.908 49.8562H107.247L108.252 47.3991H113.54L114.528 49.8562H115.865L110.914 37.51L105.906 49.8562H105.908Z" fill="#44695B"/>
<mask id="mask4_20873_30646" style="mask-type:luminance" maskUnits="userSpaceOnUse" x="0" y="0" width="218" height="51">
<path d="M217.943 0.541016H0.0546875V50.541H217.943V0.541016Z" fill="white"/>
</mask>
<g mask="url(#mask4_20873_30646)">
<path d="M143.331 39.2587H146.506C148.017 39.2587 149.244 40.4891 149.244 41.9979C149.244 43.5066 148.015 44.737 146.506 44.737H143.331V39.2587ZM150.463 41.6939C150.304 39.6268 148.566 38.0063 146.506 38.0063H142.094V49.8564H143.331V45.9747H145.975L148.872 49.7685L148.94 49.8582H150.511L147.457 45.8484C149.311 45.3961 150.611 43.6402 150.463 41.6957" fill="#44695B"/>
<path d="M178.064 39.2587H179.331C181.913 39.2587 184.011 41.3588 184.011 43.9423C184.011 46.5258 181.913 48.6205 179.331 48.6205H178.064V39.2587ZM179.554 38.0247L176.828 38.0063V49.8564H179.331C182.594 49.8564 185.249 47.2033 185.249 43.9423C185.249 40.6814 182.715 38.1437 179.556 38.0247" fill="#44695B"/>
<path d="M216.208 43.3783L213.597 41.8696C213.055 41.5565 212.788 40.9083 212.949 40.2968C213.107 39.6944 213.656 39.2751 214.29 39.2751H214.539C215.031 39.2751 215.491 39.5351 215.736 39.9507L215.85 40.1448L216.924 39.5131L216.809 39.319C216.335 38.5171 215.465 38.019 214.539 38.019H214.29C213.103 38.019 212.056 38.8265 211.746 39.9782C211.437 41.1225 211.933 42.342 212.955 42.9443L215.568 44.4512C216.446 44.9511 216.879 45.9819 216.617 46.9596C216.359 47.9356 215.478 48.6185 214.476 48.6185H214.425C213.727 48.6185 213.077 48.2926 212.645 47.7195L212.51 47.5401L211.516 48.2963L211.649 48.4739C212.319 49.36 213.332 49.8691 214.46 49.8691C216.027 49.8691 217.411 48.8089 217.823 47.2911C218.235 45.7714 217.572 44.1601 216.21 43.3728" fill="#44695B"/>
<path d="M23.7805 43.9644C23.7805 45.1637 22.8083 46.1341 21.6109 46.1341C20.4134 46.1341 19.4375 45.1637 19.4375 43.9644C19.4375 42.7651 20.4097 41.7947 21.6109 41.7947C22.812 41.7947 23.7805 42.7651 23.7805 43.9644Z" fill="#9B7614"/>
<path d="M57.4915 43.9641C57.4915 45.1634 56.5192 46.1338 55.3218 46.1338C54.1243 46.1338 53.1484 45.1634 53.1484 43.9641C53.1484 42.7648 54.1207 41.7944 55.3218 41.7944C56.5229 41.7944 57.4915 42.7648 57.4915 43.9641Z" fill="#9B7614"/>
<path d="M96.1477 43.9644C96.1477 45.1637 95.1755 46.1341 93.978 46.1341C92.7806 46.1341 91.8047 45.1637 91.8047 43.9644C91.8047 42.7651 92.7788 41.7947 93.978 41.7947C95.1773 41.7947 96.1477 42.7651 96.1477 43.9644Z" fill="#9B7614"/>
<path d="M131.101 43.9644C131.101 45.1637 130.129 46.1341 128.931 46.1341C127.734 46.1341 126.758 45.1637 126.758 43.9644C126.758 42.7651 127.732 41.7947 128.931 41.7947C130.13 41.7947 131.101 42.7651 131.101 43.9644Z" fill="#9B7614"/>
<path d="M200.591 43.9644C200.591 45.1637 199.619 46.1341 198.422 46.1341C197.224 46.1341 196.25 45.1637 196.25 43.9644C196.25 42.7651 197.222 41.7947 198.422 41.7947C199.621 41.7947 200.591 42.7651 200.591 43.9644Z" fill="#9B7614"/>
<path d="M165.827 43.9641C165.827 45.1634 164.855 46.1338 163.658 46.1338C162.46 46.1338 161.484 45.1634 161.484 43.9641C161.484 42.7648 162.458 41.7944 163.658 41.7944C164.857 41.7944 165.827 42.7648 165.827 43.9641Z" fill="#9B7614"/>
</g>
</g>
<defs>
<clipPath id="clip0_20873_30646">
<rect width="217.889" height="50" fill="white" transform="translate(0.0546875 0.541016)"/>
</clipPath>
</defs>
</svg>
