<svg width="89" height="96" viewBox="0 0 89 96" fill="none" xmlns="http://www.w3.org/2000/svg">
<g clip-path="url(#clip0_20635_22580)">
<path d="M88.0787 72.0097C86.947 71.4911 85.2665 71.1807 83.4872 71.1807C79.6695 71.1807 77.3516 73.4187 77.3516 76.0388C77.3516 78.6589 79.0968 79.7916 81.5033 80.6479C84.0939 81.5724 84.7757 82.2957 84.7757 83.4966C84.7757 84.6975 83.8689 85.8847 82.2464 85.8847C80.3307 85.8847 78.8821 84.7555 77.7708 81.6441L76.9902 81.8454L77.1266 86.2941C78.3912 86.8059 80.5523 87.2391 82.4952 87.2391C86.5379 87.2391 88.999 85.2604 88.999 82.0535C88.999 79.8973 87.9491 78.7169 85.2938 77.6866C82.4271 76.5778 81.4317 75.875 81.4317 74.5479C81.4317 73.2208 82.318 72.286 83.5451 72.286C85.3892 72.286 86.6436 73.4323 87.4719 76.1173L88.2491 75.916L88.0787 72.0131V72.0097Z" fill="#212121"/>
<path d="M54.4347 71.3515C53.0371 71.3515 51.9123 71.7302 50.7465 72.3033C50.7601 68.9975 50.801 66.1112 50.8794 65.0195L44.0859 66.333V66.9437L44.7472 67.0324C45.6948 67.162 46.0596 67.7147 46.172 68.9838C46.3868 71.4061 46.3561 84.4248 46.172 86.5127C47.9991 86.9221 49.9795 87.2394 51.9634 87.2394C57.3559 87.2394 60.601 83.9028 60.601 78.6251C60.601 74.3912 57.9695 71.3515 54.4381 71.3515M52.0691 86.1613C51.6839 86.1613 51.1862 86.0999 50.9101 86.0487C50.801 84.5851 50.7363 78.5636 50.7431 73.3029C51.3669 73.0914 51.7861 73.0437 52.3281 73.0437C54.5608 73.0437 55.8118 75.6228 55.8186 78.8741C55.8254 83.0192 54.2779 86.1613 52.0691 86.1613Z" fill="#212121"/>
<path d="M18.4532 65.501H0.584961V66.3607L1.53598 66.4938C2.89945 66.6916 3.42098 67.5343 3.5846 69.4619C3.89138 73.1532 3.85047 79.7479 3.5846 82.9207C3.42439 84.8482 2.89945 85.6909 1.53598 85.8922L0.584961 86.0218V86.885H12.0688V86.0218L10.8621 85.8922C9.50206 85.6909 8.97712 84.8482 8.81691 82.9207C8.70784 81.614 8.63626 79.3999 8.61239 76.8071L10.978 76.8821C12.5596 76.9333 13.2209 78.1035 13.5993 79.84H14.4855V72.6074H13.5993C13.2209 74.3439 12.5596 75.5141 10.978 75.5652L8.60558 75.6403C8.58853 72.2253 8.64989 68.9433 8.81691 66.9714H12.3415C15.0957 66.9714 16.5682 68.7215 17.492 71.8125L18.5521 71.5157L18.4532 65.5044V65.501Z" fill="#212121"/>
<path d="M24.2582 71.1811C29.3371 71.1811 31.8595 74.6269 31.8595 79.1677C31.8595 83.7086 29.0099 87.2362 23.9309 87.2362C18.852 87.2362 16.333 83.7905 16.333 79.2462C16.333 74.7019 19.1793 71.1777 24.2582 71.1777M23.9957 72.1671C21.7494 72.1671 21.1222 75.2034 21.1222 79.2121C21.1222 83.2207 22.1175 86.2537 24.2002 86.2537C26.4431 86.2537 27.0703 83.2173 27.0703 79.2121C27.0703 75.2069 26.0784 72.1671 23.9957 72.1671Z" fill="#212121"/>
<path d="M61.8457 79.3515C61.8423 75.1484 64.4908 71.1943 69.73 71.1943C73.9874 71.1943 76.0224 74.3535 76.0462 78.4884H66.5463C66.4406 82.2377 68.3392 84.9943 71.9695 84.9943C73.5681 84.9943 74.4305 84.5986 75.3952 83.8583L75.8417 84.3939C74.7884 85.854 72.5864 87.2426 69.6686 87.2426C65.0908 87.2426 61.8525 83.9981 61.8491 79.3549M66.5769 77.4171L71.3423 77.3148C71.3661 75.203 71.0287 72.1871 69.3141 72.1871C67.5995 72.1871 66.6213 75.0426 66.5769 77.4171Z" fill="#212121"/>
<path d="M45.1171 71.6143C43.4025 70.5908 40.2768 71.0752 38.6951 74.7188L38.7735 71.1708L32.0039 72.4842V73.0949L32.6652 73.1768C33.6094 73.3099 33.9775 73.8625 34.09 75.1282C34.3048 77.5505 34.2707 81.8901 34.09 83.978C33.9741 85.2403 33.6094 85.7998 32.6652 85.9294L32.0039 86.0147V86.8744H41.4323V86.0147L40.2018 85.9294C39.2542 85.7998 38.8894 85.2403 38.7769 83.978C38.6065 82.0606 38.569 78.2465 38.7292 75.7594C39.1826 75.0088 41.3982 74.405 43.4536 75.7867L45.1137 71.6109L45.1171 71.6143Z" fill="#212121"/>
<path d="M5.6916 91.7903H3.62594V95.8058H2.64424V91.7903H0.568359V91.1387H5.6916V91.7903Z" fill="#212121"/>
<path d="M8.99023 95.8058V91.1387H11.6967C12.8182 91.1387 13.6226 91.9063 13.6226 92.6568C13.6226 93.2812 13.142 93.8543 12.4057 94.0317L13.8851 95.8058H12.7739L11.407 94.1818H9.97193V95.8058H8.99023ZM9.97193 93.5302H11.6899C12.2421 93.5302 12.6273 93.131 12.6273 92.6568C12.6273 92.1826 12.1535 91.7903 11.6388 91.7903H9.97534V93.5336L9.97193 93.5302Z" fill="#212121"/>
<path d="M16.9717 95.8058L19.4771 91.1387H20.2815L22.7767 95.8058H21.7336L21.0689 94.5366H18.6692L18.0216 95.8058H16.9717ZM19.8793 91.9575L18.8465 93.9908H20.878L19.8793 91.9575Z" fill="#212121"/>
<path d="M26.0523 91.1387L27.9339 94.8778L29.7985 91.1387H30.8313L28.3532 95.8058H27.5112L25.0059 91.1387H26.0489H26.0523Z" fill="#212121"/>
<path d="M38.651 95.1541V95.8058H34.3867V91.1387H38.5726V91.7903H35.3684V93.1174H38.1431V93.7281H35.3684V95.1541H38.651Z" fill="#212121"/>
<path d="M42.5059 95.8058V91.1387H43.4876V95.1541H46.8247V95.8058H42.5059Z" fill="#212121"/>
<path d="M56.8501 95.2257C56.3354 95.6419 55.7457 95.8364 55.0707 95.8364C53.4516 95.8364 52.1836 94.673 52.1836 93.4517C52.1836 92.2303 53.4346 91.1045 55.1082 91.1045C56.274 91.1045 57.0716 91.5105 57.4807 92.1246L56.7274 92.5305C56.3933 92.0256 55.7797 91.7698 55.081 91.7698C53.9357 91.7698 53.1789 92.5783 53.1789 93.4722C53.1789 94.4138 54.0277 95.1745 55.1491 95.1745C55.7695 95.1745 56.3388 94.9494 56.8467 94.482V93.9907H55.5411V93.4449H57.6681V95.8057H56.8467V95.2257H56.8501Z" fill="#212121"/>
<path d="M65.8919 93.5029V91.1387H66.8804V93.5029C66.8804 94.7789 66.11 95.8365 64.1909 95.8365C62.2719 95.8365 61.5117 94.714 61.5117 93.5029V91.1387H62.4934V93.5029C62.4934 94.3592 62.9059 95.1746 64.1909 95.1746C65.476 95.1746 65.8885 94.3388 65.8885 93.5029H65.8919Z" fill="#212121"/>
<path d="M70.9824 95.8058V91.1455H71.9641V95.8058H70.9824Z" fill="#212121"/>
<path d="M76.166 95.8058V91.1387H78.3714C80.3757 91.1387 81.4017 92.1758 81.4017 93.4654C81.4017 94.8778 80.2121 95.8058 78.3714 95.8058H76.166ZM78.3714 91.7903H77.1443V95.1576H78.3714C79.6838 95.1576 80.403 94.4275 80.403 93.4688C80.403 92.5101 79.6599 91.7937 78.3714 91.7937V91.7903Z" fill="#212121"/>
<path d="M88.9928 95.1541V95.8058H84.7285V91.1387H88.911V91.7903H85.7068V93.1174H88.4849V93.7281H85.7068V95.1541H88.9894H88.9928Z" fill="#212121"/>
<path d="M24.0715 30.4628L30.5548 35.181L28.0801 27.5424L34.5668 22.8276H26.5462L24.0715 15.1924L21.59 22.8276H13.5693L20.056 27.5424L17.5813 35.181L24.0715 30.4628Z" fill="#212121"/>
<path d="M67.9759 22.8242L65.4978 15.1924L63.0197 22.8242H55.0059L61.4926 27.5458L59.0145 35.1776L65.4978 30.456L71.9913 35.1776L69.5098 27.5458L75.9999 22.8242H67.9759Z" fill="#212121"/>
<path d="M34.4637 47.2075L31.9855 39.5723L29.5074 47.2075H21.4902L27.9769 51.9257L25.5022 59.5575L31.9855 54.8392L38.4757 59.5575L35.9976 51.9257L42.4877 47.2075H34.4637Z" fill="#212121"/>
<path d="M48.7983 12.5146L55.2885 7.79292H47.2678L44.7897 0.161133L42.3082 7.79292H34.291L40.7845 12.5146L38.2996 20.1464L44.7897 15.4281L51.2799 20.1464L48.7983 12.5146Z" fill="#212121"/>
<path d="M68.0575 47.2075H60.0369L57.5588 39.5723L55.0807 47.2075H47.0566L53.5502 51.9223L51.0721 59.5609L57.5588 54.8393L64.0489 59.5609L61.5708 51.9223L68.0575 47.2075Z" fill="#212121"/>
<path d="M40.5862 35.0822H37.2082V34.3487L38.766 32.7111C39.1478 32.2744 39.3421 31.9264 39.3421 31.6705C39.3421 31.4624 39.2977 31.3021 39.2057 31.1929C39.1137 31.0837 38.9841 31.0292 38.8103 31.0292C38.6365 31.0292 38.5001 31.1008 38.3944 31.2475C38.2888 31.3942 38.2342 31.575 38.2342 31.7934H37.1094C37.1094 31.4965 37.1844 31.2202 37.3309 30.9677C37.4775 30.7153 37.6854 30.5208 37.9479 30.3775C38.2104 30.2342 38.5069 30.166 38.8342 30.166C39.3591 30.166 39.7613 30.2854 40.0442 30.5276C40.3272 30.7699 40.4669 31.1179 40.4669 31.5682C40.4669 31.7592 40.4328 31.9435 40.3613 32.1243C40.2897 32.3051 40.1806 32.4962 40.0306 32.694C39.8806 32.8919 39.6386 33.158 39.308 33.4923L38.6842 34.2156H40.5896V35.0822H40.5862Z" fill="#212121"/>
<path d="M44.5133 33.1C44.5133 33.755 44.3667 34.26 44.0735 34.6148C43.7804 34.9696 43.3645 35.147 42.8328 35.147C42.301 35.147 41.8784 34.9696 41.5818 34.6114C41.2887 34.2531 41.1387 33.7516 41.1387 33.1V32.213C41.1387 31.558 41.2852 31.053 41.5784 30.6982C41.8715 30.3434 42.2874 30.166 42.8226 30.166C43.3577 30.166 43.7736 30.3434 44.0701 30.7016C44.3667 31.0599 44.5133 31.5648 44.5133 32.2164V33.1ZM43.3918 32.0731C43.3918 31.7251 43.3475 31.4658 43.2555 31.2918C43.1634 31.1179 43.0203 31.0326 42.8226 31.0326C42.6249 31.0326 42.4885 31.111 42.4033 31.2714C42.3147 31.4317 42.2669 31.674 42.2601 31.9981V33.2365C42.2601 33.5981 42.3044 33.8642 42.3965 34.0314C42.4885 34.1985 42.6317 34.2838 42.8294 34.2838C43.0271 34.2838 43.16 34.202 43.2521 34.0382C43.3441 33.8744 43.3884 33.6186 43.3918 33.2706V32.0731Z" fill="#212121"/>
<path d="M48.4729 35.0822H45.0949V34.3487L46.6527 32.7111C47.0345 32.2744 47.2288 31.9264 47.2288 31.6705C47.2288 31.4624 47.1845 31.3021 47.0924 31.1929C47.0004 31.0837 46.8709 31.0292 46.697 31.0292C46.5232 31.0292 46.3868 31.1008 46.2812 31.2475C46.1755 31.3942 46.121 31.575 46.121 31.7934H44.9961C44.9961 31.4965 45.0711 31.2202 45.2177 30.9677C45.3676 30.7153 45.5722 30.5208 45.8346 30.3775C46.0971 30.2342 46.3936 30.166 46.7209 30.166C47.2458 30.166 47.648 30.2854 47.931 30.5276C48.2139 30.7699 48.3536 31.1179 48.3536 31.5682C48.3536 31.7592 48.3196 31.9435 48.248 32.1243C48.1764 32.3051 48.0673 32.4962 47.9173 32.694C47.7673 32.8919 47.5253 33.158 47.1947 33.4923L46.5709 34.2156H48.4764V35.0822H48.4729Z" fill="#212121"/>
<path d="M51.9985 33.1883H52.4893V34.0549H51.9985V35.0818H50.877V34.0549H49.0057L48.9375 33.3692L50.877 30.2475V30.2373H51.9985V33.1883ZM50.0078 33.1883H50.8805V31.6975L50.8089 31.8101L50.0078 33.1883Z" fill="#212121"/>
</g>
<defs>
<clipPath id="clip0_20635_22580">
<rect width="88.4313" height="95.6788" fill="white" transform="translate(0.568359 0.161133)"/>
</clipPath>
</defs>
</svg>
