<svg width="191" height="98" viewBox="0 0 191 98" fill="none" xmlns="http://www.w3.org/2000/svg">
<path d="M95.7473 34.8079C95.7473 34.8079 91.6123 48.0416 91.5101 48.3676C91.1524 47.1149 88.9512 38.8919 88.6013 37.6824C88.4166 37.0581 88.2948 36.1313 88.279 35.7622C88.2554 35.2556 88.3734 34.91 88.4402 34.7687L88.507 34.6234C88.507 34.6234 87.485 34.7608 86.7893 34.8668C86.2076 34.9611 85.1306 35.1614 85.1306 35.1614L85.2406 35.2752C85.6297 35.7386 85.7516 36.1352 86.2351 37.7728L90.8065 53.5158H91.0934C91.0934 53.5158 95.2835 40.3881 95.3779 40.0896C95.4761 40.3881 99.8077 53.5158 99.8077 53.5158H100.075L104.713 37.8081C105.216 36.1745 105.511 35.6287 105.818 35.2556L105.9 35.1653C105.763 35.1221 105.279 35.0003 104.701 34.8708C104.088 34.7294 103.53 34.6391 103.53 34.6391L103.605 34.8158C103.605 34.8158 103.742 35.0632 103.742 35.5383C103.742 35.9192 103.605 36.897 103.353 37.7728C103.353 37.7728 100.476 48.0966 100.386 48.4108C100.283 48.0966 95.9164 34.804 95.9164 34.804H95.7513L95.7473 34.8079ZM106.152 13.3944L106.187 13.4769C106.753 14.7335 107.064 16.0255 107.064 19.222C107.064 19.222 106.879 28.839 106.879 28.9725C106.25 28.8508 100.661 27.7945 95.3857 27.7945C90.1107 27.7945 84.5449 28.8429 83.9199 28.9725V19.2141C83.9199 16.0726 84.3405 14.8081 84.8908 13.4769L84.9419 13.3944H79.7573L79.7927 13.4769C80.3626 14.7335 80.6692 16.0255 80.6692 19.222V43.5964C80.6692 46.8125 80.2054 48.0338 79.7141 49.3297L79.6826 49.4082H84.8318L84.7964 49.3336C84.2265 48.077 83.9199 46.7929 83.9199 43.5924C83.9199 43.5924 83.9199 31.529 83.9199 31.4426C84.3208 31.3405 88.9355 30.2174 95.3857 30.2174C101.836 30.2174 106.458 31.3444 106.879 31.4465C106.879 31.5368 107.056 43.6003 107.056 43.6003C107.056 46.8243 106.714 48.0338 106.211 49.3336L106.179 49.4121H111.222L111.187 49.3375C110.617 48.0809 110.307 46.7968 110.307 43.5964L110.314 19.222C110.314 16.0805 110.735 14.816 111.285 13.4848L111.329 13.4023H106.152V13.3944ZM94.2026 3.76172L94.1672 3.84026C93.8527 4.52354 93.6405 5.24217 93.6405 6.94645C93.6405 6.94645 93.6012 21.6842 93.6012 21.8059C94.3441 21.7706 95.6451 21.7745 96.0657 21.7745C98.4674 21.7745 100.995 22.1475 102.084 21.0402L102.158 21.0519L101.266 23.4709C99.8942 23.3178 98.0114 23.1528 96.0657 23.1528C94.3441 23.1528 92.9998 23.196 90.6217 23.3727L90.5156 23.3806L90.5431 23.2981C90.8104 22.5952 91.062 21.9355 91.062 20.188V6.94645C91.062 5.21861 90.8969 4.51961 90.5903 3.84026L90.551 3.76172H94.2065L94.2026 3.76172Z" fill="#212121"/>
<path d="M5.78126 75.9239C5.78126 76.1202 5.78913 76.2891 5.79699 76.4304C5.80879 76.5757 5.82847 76.7053 5.85207 76.8153C5.87567 76.9252 5.90713 77.0195 5.94253 77.1019C5.974 77.1844 6.01726 77.2629 6.06839 77.3454H3.90507C3.9444 77.2629 3.9798 77.1844 4.01914 77.1019C4.05454 77.0195 4.086 76.9252 4.11747 76.8153C4.14894 76.7053 4.1686 76.5797 4.18827 76.4383C4.204 76.2969 4.21187 76.1241 4.21187 75.9239V69.4366H2.34747C2.01314 69.4366 1.71027 69.4602 1.43887 69.5034C1.16747 69.5466 0.95901 69.6447 0.813477 69.79V68.4941H9.17965V69.79C9.05772 69.6369 8.86499 69.5387 8.59752 69.4994C8.33006 69.4602 8.01539 69.4366 7.64566 69.4366H5.78126V75.9239Z" fill="#212121"/>
<path d="M19.1257 73.1004H13.6623V75.9239C13.6623 76.1281 13.6701 76.3009 13.6859 76.4422C13.7016 76.5836 13.7252 76.7093 13.7527 76.8192C13.7803 76.9292 13.8117 77.0234 13.8471 77.1059C13.8825 77.1883 13.9179 77.2669 13.9612 77.3493H11.7939C11.8333 77.2669 11.8726 77.1883 11.908 77.1059C11.9434 77.0234 11.9749 76.9292 12.0024 76.8192C12.03 76.7093 12.0496 76.5836 12.0693 76.4422C12.0811 76.3009 12.0929 76.1281 12.0929 75.9239V69.9118C12.0929 69.7115 12.0811 69.5387 12.0693 69.4013C12.0496 69.2599 12.0339 69.1303 12.0024 69.0243C11.971 68.9143 11.9395 68.8201 11.908 68.7376C11.8726 68.6551 11.8333 68.5766 11.7939 68.4941H13.9612C13.9179 68.5766 13.8786 68.6551 13.8471 68.7376C13.8117 68.8201 13.7803 68.9143 13.7527 69.0243C13.7291 69.1342 13.7016 69.2599 13.6859 69.4013C13.6701 69.5426 13.6623 69.7115 13.6623 69.9118V72.1069H19.1257V69.9118C19.1257 69.7115 19.1178 69.5387 19.1021 69.4013C19.0824 69.2599 19.0667 69.1303 19.0352 69.0243C19.0116 68.9143 18.9762 68.8201 18.9408 68.7376C18.9054 68.6551 18.8661 68.5766 18.8307 68.4941H20.9901C20.9507 68.5766 20.9114 68.6551 20.8799 68.7376C20.8445 68.8201 20.8131 68.9143 20.7855 69.0243C20.758 69.1342 20.7344 69.2599 20.7187 69.4013C20.7029 69.5426 20.6951 69.7115 20.6951 69.9118V75.9239C20.6951 76.1281 20.7029 76.3009 20.7187 76.4422C20.7344 76.5836 20.7541 76.7093 20.7855 76.8192C20.8131 76.9292 20.8445 77.0234 20.8799 77.1059C20.9153 77.1883 20.9507 77.2669 20.9901 77.3493H18.8307C18.8661 77.2669 18.9054 77.1883 18.9408 77.1059C18.9762 77.0234 19.0077 76.9292 19.0352 76.8192C19.0667 76.7093 19.0863 76.5836 19.1021 76.4422C19.1139 76.3009 19.1257 76.1281 19.1257 75.9239V73.1004Z" fill="#212121"/>
<path d="M25.0332 68.4903H32.8526C32.8448 68.7259 32.8408 68.9379 32.8408 69.1303V69.8097C32.7936 69.7861 32.7464 69.7586 32.6992 69.7272C32.6048 69.6723 32.4868 69.6291 32.3531 69.5937C32.2351 69.5702 32.062 69.5466 31.8418 69.527C31.6215 69.5073 31.3698 69.4916 31.0866 69.4759C30.8073 69.4681 30.5123 69.4563 30.1937 69.4484C29.883 69.4406 29.5723 69.4366 29.2615 69.4366C28.5339 69.4366 27.7433 69.4445 26.8976 69.4602V72.0795C27.1061 72.0795 27.3578 72.0795 27.6528 72.0873C27.9517 72.0873 28.2664 72.0873 28.6047 72.0873C28.9469 72.0795 29.2773 72.0795 29.6155 72.0677C29.9499 72.0598 30.2645 72.0441 30.5517 72.0284C30.8427 72.0088 31.0905 71.9813 31.295 71.9459C31.4956 71.9106 31.6333 71.8635 31.7002 71.8124V73.3282C31.6097 73.2772 31.4563 73.234 31.2282 73.2026C31.004 73.1672 30.7405 73.1358 30.4415 73.1162C30.1387 73.0965 29.8161 73.0808 29.4739 73.069C29.1278 73.0533 28.7935 73.0455 28.467 73.0455C28.1445 73.0455 27.8416 73.0455 27.5623 73.0455C27.2909 73.0455 27.0667 73.0533 26.8976 73.0533V76.3009C26.8976 76.3009 26.9645 76.3127 27.0785 76.3127C27.1926 76.3127 27.3224 76.3127 27.4876 76.3205C27.6489 76.3205 27.8298 76.3284 28.0265 76.3323C28.2271 76.3323 28.4159 76.3402 28.6007 76.3441C28.7856 76.3441 28.9626 76.3519 29.1239 76.3519H30.5831C30.9607 76.3519 31.3265 76.3402 31.6687 76.3205C32.0149 76.297 32.3256 76.2616 32.6048 76.2067C32.8802 76.1517 33.1004 76.0574 33.2578 75.9357L32.9706 77.3415H25.0332C25.0725 77.2591 25.1119 77.1805 25.1433 77.0981C25.1827 77.0156 25.2102 76.9213 25.2417 76.8114C25.2653 76.7014 25.2889 76.5797 25.3046 76.4344C25.3203 76.293 25.3282 76.1242 25.3282 75.92V69.9079C25.3282 69.7076 25.3203 69.5309 25.3046 69.3934C25.2889 69.2521 25.2692 69.1225 25.2417 69.0165C25.2102 68.9065 25.1827 68.8123 25.1433 68.7298C25.1079 68.6473 25.0725 68.5688 25.0332 68.4863" fill="#212121"/>
<path d="M42.4111 77.3415C42.4505 77.259 42.4859 77.1805 42.5213 77.098C42.5567 77.0156 42.5881 76.9213 42.6196 76.8114C42.6432 76.7014 42.6629 76.5757 42.6825 76.4344C42.6983 76.293 42.7061 76.1241 42.7061 75.9199V69.9078C42.7061 69.7076 42.6983 69.5308 42.6825 69.3973C42.6629 69.252 42.6432 69.1264 42.6196 69.0203C42.5881 68.9104 42.5567 68.8161 42.5213 68.7337C42.4859 68.6551 42.4505 68.5766 42.4111 68.4941H44.5745C44.5312 68.5766 44.4958 68.6551 44.4643 68.7337C44.4289 68.8161 44.3975 68.9143 44.3699 69.0203C44.3424 69.1303 44.3188 69.252 44.3031 69.3973C44.2873 69.5348 44.2795 69.7076 44.2795 69.9078V76.0927C44.2795 76.1752 44.2873 76.2616 44.3031 76.348C44.3385 76.348 44.4132 76.348 44.5351 76.3558C44.661 76.3637 44.7947 76.3637 44.9521 76.3715C45.1055 76.3715 45.2667 76.3715 45.428 76.3715H45.8371C46.2029 76.3715 46.5765 76.3715 46.962 76.3794C47.3435 76.3794 47.7054 76.3794 48.0476 76.3558C48.3898 76.3323 48.6926 76.2969 48.968 76.2341C49.2433 76.1752 49.4636 76.0849 49.617 75.9631L49.3298 77.3454H42.4151L42.4111 77.3415Z" fill="#212121"/>
<path d="M52.1084 68.4903H59.9278C59.92 68.7259 59.916 68.9379 59.916 69.1303V69.8097C59.8688 69.7861 59.8216 69.7586 59.7744 69.7272C59.68 69.6723 59.562 69.6291 59.4283 69.5937C59.3103 69.5702 59.1412 69.5466 58.9209 69.527C58.6967 69.5073 58.445 69.4916 58.1657 69.4759C57.8865 69.4681 57.5875 69.4563 57.2728 69.4484C56.9621 69.4406 56.6514 69.4366 56.3407 69.4366C55.613 69.4366 54.8224 69.4445 53.9767 69.4602V72.0795C54.1852 72.0795 54.4369 72.0795 54.7319 72.0873C55.0309 72.0873 55.3455 72.0873 55.6838 72.0873C56.026 72.0795 56.3564 72.0795 56.6946 72.0677C57.029 72.0598 57.3436 72.0441 57.6308 72.0284C57.9218 72.0088 58.1696 71.9813 58.3742 71.9459C58.5748 71.9106 58.7124 71.8635 58.7793 71.8124V73.3282C58.6888 73.2772 58.5354 73.234 58.3073 73.2026C58.0831 73.1672 57.8196 73.1358 57.5206 73.1162C57.2178 73.0965 56.8953 73.0808 56.5531 73.069C56.2069 73.0533 55.8726 73.0455 55.5501 73.0455C55.2236 73.0455 54.9247 73.0455 54.6454 73.0455C54.374 73.0455 54.1498 73.0533 53.9807 73.0533V76.3009C53.9807 76.3009 54.0475 76.3127 54.1577 76.3127C54.2717 76.3127 54.4094 76.3127 54.5707 76.3205C54.7319 76.3205 54.9129 76.3284 55.1095 76.3323C55.3101 76.3323 55.4989 76.3402 55.6838 76.3441C55.8687 76.3441 56.0457 76.3519 56.2069 76.3519H57.6662C58.0438 76.3519 58.4096 76.3402 58.7518 76.3205C59.0979 76.297 59.4086 76.2616 59.6879 76.2067C59.9632 76.1517 60.1835 76.0574 60.3408 75.9357L60.0537 77.3415H52.1163C52.1595 77.2591 52.1949 77.1805 52.2264 77.0981C52.2657 77.0156 52.2933 76.9213 52.3247 76.8114C52.3483 76.7014 52.3719 76.5797 52.3877 76.4344C52.4073 76.293 52.4113 76.1242 52.4113 75.92V69.9079C52.4113 69.7076 52.4034 69.5309 52.3877 69.3934C52.3719 69.2521 52.3523 69.1225 52.3247 69.0165C52.2933 68.9065 52.2657 68.8123 52.2264 68.7298C52.191 68.6473 52.1595 68.5688 52.1163 68.4863" fill="#212121"/>
<path d="M72.0023 76.4344C72.1203 76.6622 72.2462 76.8467 72.3799 76.992C72.5097 77.1373 72.6395 77.2512 72.7654 77.3415H70.0907C70.1615 77.2316 70.1969 77.0902 70.1969 76.9213C70.1969 76.7525 70.1458 76.564 70.0317 76.348L69.2451 74.8558H64.5487L63.703 76.5247C63.6086 76.7093 63.5693 76.8703 63.585 77.0038C63.6047 77.1373 63.644 77.2473 63.7148 77.3337H61.874C62.0078 77.2394 62.1297 77.1177 62.232 76.9724C62.3342 76.8271 62.4207 76.6857 62.4955 76.5483L66.7238 68.4863H67.8409L71.9984 76.4266L72.0023 76.4344ZM65.001 73.9605H68.7652L66.9126 70.226L65.001 73.9605Z" fill="#212121"/>
<path d="M79.725 68.4903C80.0986 68.4903 80.4841 68.5138 80.8853 68.557C81.2865 68.6002 81.672 68.6827 82.0574 68.8005C82.435 68.9183 82.8008 69.0754 83.1391 69.2796C83.4813 69.4798 83.7802 69.7429 84.0319 70.061C84.2876 70.3791 84.4882 70.7639 84.6377 71.2155C84.7911 71.6671 84.8658 72.2051 84.8658 72.8177C84.8658 73.5835 84.7242 74.251 84.4449 74.8244C84.1617 75.3938 83.7841 75.865 83.3082 76.2381C82.8323 76.6111 82.2856 76.886 81.668 77.0706C81.0466 77.2512 80.4015 77.3415 79.7289 77.3415H75.1426C75.182 77.2591 75.2213 77.1766 75.2528 77.0981C75.2882 77.0195 75.3196 76.9253 75.3472 76.8114C75.3747 76.7014 75.3983 76.5797 75.414 76.4344C75.4258 76.293 75.4376 76.1242 75.4376 75.92V69.9079C75.4376 69.7115 75.4298 69.5427 75.414 69.4013C75.3944 69.2521 75.3786 69.1264 75.3511 69.0165C75.3236 68.9065 75.3 68.8123 75.2606 68.7298C75.2252 68.6473 75.1859 68.5688 75.1348 68.4863H79.721L79.725 68.4903ZM79.7171 76.348C80.3346 76.348 80.8617 76.2577 81.3022 76.081C81.7388 75.9043 82.1046 75.6608 82.3839 75.3506C82.6671 75.0404 82.8755 74.6712 83.0053 74.2432C83.1312 73.8112 83.1981 73.3518 83.1981 72.8531C83.1981 71.7535 82.9227 70.9171 82.3603 70.332C81.8017 69.7508 80.9167 69.4641 79.7053 69.4641H77.007V76.348H79.7171Z" fill="#212121"/>
<path d="M88.3692 69.9118C88.3692 69.7115 88.3614 69.5348 88.3456 69.3974C88.3299 69.256 88.3102 69.1264 88.2788 69.0204C88.2552 68.9104 88.2198 68.8201 88.1844 68.7337C88.149 68.6512 88.1136 68.5727 88.0742 68.4902H90.2375C90.1982 68.5727 90.1589 68.6512 90.1274 68.7337C90.092 68.8162 90.0605 68.9104 90.0291 69.0204C90.0055 69.1303 89.9819 69.256 89.9662 69.3974C89.9465 69.5387 89.9425 69.7115 89.9425 69.9118V75.9239C89.9425 76.1281 89.9504 76.3009 89.9662 76.4383C89.9819 76.5797 90.0015 76.7053 90.0291 76.8153C90.0605 76.9253 90.0959 77.0234 90.1274 77.102C90.1628 77.1844 90.1982 77.2669 90.2375 77.3454H88.0742C88.1136 77.263 88.1529 77.1805 88.1844 77.102C88.2198 77.0234 88.2552 76.9292 88.2788 76.8153C88.3063 76.7053 88.3299 76.5836 88.3456 76.4383C88.3614 76.2969 88.3692 76.1281 88.3692 75.9239V69.9118Z" fill="#212121"/>
<path d="M102.948 69.9118V77.3454H101.466L95.5184 70.0571V75.9239C95.5184 76.1281 95.5262 76.3009 95.542 76.4383C95.5577 76.5797 95.5773 76.7053 95.6088 76.8153C95.6324 76.9253 95.6599 77.0234 95.6953 77.102C95.7268 77.1844 95.7622 77.2669 95.8016 77.3454H94.2715C94.3502 77.1923 94.421 77.0156 94.48 76.8153C94.5389 76.619 94.5704 76.3205 94.5704 75.9239V69.9118C94.5704 69.7115 94.5626 69.5348 94.5468 69.3974C94.5311 69.256 94.5075 69.1264 94.48 69.0204C94.4485 68.9104 94.421 68.8162 94.3856 68.7337C94.3502 68.6473 94.3108 68.5688 94.2715 68.4942H96.3522L101.997 75.3191V69.9118C101.997 69.7115 101.989 69.5348 101.973 69.3974C101.957 69.256 101.93 69.1264 101.898 69.0204C101.867 68.9104 101.831 68.8201 101.792 68.7337C101.757 68.6512 101.725 68.5727 101.69 68.4902H103.243C103.204 68.5727 103.165 68.6512 103.133 68.7337C103.098 68.8162 103.062 68.9104 103.039 69.0204C103.007 69.1303 102.988 69.2599 102.972 69.4052C102.956 69.5466 102.948 69.7194 102.948 69.9118Z" fill="#212121"/>
<path d="M116.284 69.2055V70.58C116.15 70.4857 115.973 70.3561 115.749 70.2069C115.32 69.9242 114.824 69.7121 114.254 69.5668C113.688 69.4254 113.094 69.3508 112.476 69.3508C111.804 69.3508 111.194 69.4372 110.643 69.6061C110.093 69.7749 109.589 70.0812 109.133 70.5132C108.806 70.8195 108.551 71.169 108.366 71.5538C108.181 71.9426 108.087 72.3706 108.087 72.8379C108.087 73.3052 108.169 73.7136 108.327 74.0906C108.48 74.4676 108.732 74.8446 109.074 75.2216C109.436 75.626 109.904 75.9363 110.474 76.1483C111.045 76.3604 111.717 76.4703 112.484 76.4703C112.921 76.4703 113.318 76.435 113.684 76.3722C114.046 76.3054 114.392 76.1837 114.718 75.9952V74.016C114.718 73.643 114.683 73.372 114.608 73.1992C114.533 73.0225 114.466 72.8929 114.404 72.8026H116.288V76.4154C115.997 76.596 115.705 76.7491 115.41 76.8827C115.119 77.0201 114.82 77.1261 114.506 77.2086C114.203 77.295 113.88 77.3617 113.546 77.401C113.216 77.4364 112.858 77.4599 112.476 77.4599C111.54 77.4599 110.71 77.3303 109.979 77.0712C109.247 76.812 108.594 76.4468 108.024 75.9795C107.544 75.6025 107.178 75.1313 106.899 74.5736C106.627 74.016 106.482 73.4348 106.462 72.8301C106.446 72.2136 106.58 71.6363 106.863 71.0983C107.143 70.5564 107.54 70.0891 108.059 69.6885C108.275 69.5197 108.535 69.3587 108.826 69.1977C109.121 69.0445 109.448 68.9032 109.806 68.7775C110.167 68.6597 110.569 68.5615 111.009 68.4869C111.454 68.4162 111.941 68.377 112.468 68.377C112.799 68.377 113.141 68.3966 113.491 68.4319C113.849 68.4673 114.191 68.5222 114.518 68.5969C114.852 68.6675 115.167 68.7539 115.469 68.856C115.772 68.9542 116.04 69.072 116.276 69.2016" fill="#212121"/>
<path d="M133.492 73.1004H128.025V75.9239C128.025 76.1281 128.032 76.3009 128.048 76.4422C128.064 76.5836 128.084 76.7093 128.115 76.8192C128.139 76.9292 128.174 77.0234 128.209 77.1059C128.245 77.1883 128.284 77.2669 128.323 77.3493H126.16C126.196 77.2669 126.239 77.1883 126.274 77.1059C126.31 77.0234 126.341 76.9292 126.369 76.8192C126.396 76.7093 126.42 76.5836 126.435 76.4422C126.451 76.3009 126.459 76.1281 126.459 75.9239V69.9118C126.459 69.7115 126.451 69.5387 126.435 69.4013C126.42 69.2599 126.4 69.1303 126.369 69.0243C126.341 68.9143 126.31 68.8201 126.274 68.7376C126.239 68.6551 126.196 68.5766 126.16 68.4941H128.323C128.284 68.5766 128.245 68.6551 128.209 68.7376C128.174 68.8201 128.143 68.9143 128.115 69.0243C128.087 69.1342 128.064 69.2599 128.048 69.4013C128.028 69.5426 128.025 69.7115 128.025 69.9118V72.1069H133.492V69.9118C133.492 69.7115 133.484 69.5387 133.468 69.4013C133.453 69.2599 133.433 69.1303 133.401 69.0243C133.37 68.9182 133.342 68.8201 133.307 68.7376C133.272 68.6551 133.232 68.5766 133.193 68.4941H135.356C135.317 68.5766 135.278 68.6551 135.242 68.7376C135.207 68.8201 135.175 68.9143 135.148 69.0243C135.12 69.1342 135.097 69.2599 135.081 69.4013C135.065 69.5426 135.057 69.7115 135.057 69.9118V75.9239C135.057 76.1281 135.065 76.3009 135.081 76.4422C135.097 76.5836 135.116 76.7093 135.148 76.8192C135.175 76.9292 135.207 77.0234 135.242 77.1059C135.278 77.1883 135.317 77.2669 135.356 77.3493H133.193C133.232 77.2669 133.272 77.1883 133.307 77.1059C133.342 77.0234 133.374 76.9292 133.401 76.8192C133.429 76.7093 133.453 76.5836 133.468 76.4422C133.484 76.3009 133.492 76.1281 133.492 75.9239V73.1004Z" fill="#212121"/>
<path d="M148.429 69.9714C148.771 70.3326 149.039 70.7567 149.232 71.2398C149.428 71.7188 149.527 72.2765 149.527 72.9048C149.527 73.5331 149.424 74.0946 149.228 74.5894C149.027 75.0764 148.764 75.5044 148.429 75.8657C147.93 76.3997 147.3 76.8042 146.549 77.0791C145.798 77.35 144.964 77.4875 144.044 77.4875C143.123 77.4875 142.281 77.354 141.53 77.083C140.771 76.8121 140.146 76.4037 139.646 75.8657C139.316 75.5044 139.052 75.0764 138.859 74.5894C138.663 74.0946 138.568 73.537 138.568 72.9048C138.568 72.2725 138.663 71.7188 138.859 71.2398C139.056 70.7567 139.316 70.3366 139.646 69.9714C140.146 69.4334 140.775 69.0368 141.53 68.7658C142.285 68.4948 143.127 68.3613 144.044 68.3613C144.96 68.3613 145.798 68.4988 146.549 68.7658C147.3 69.0328 147.926 69.4373 148.429 69.9714ZM146.549 75.85C147.029 75.5122 147.367 75.0921 147.576 74.6012C147.788 74.1064 147.894 73.5409 147.894 72.9008C147.894 72.2608 147.788 71.7149 147.576 71.2319C147.367 70.745 147.025 70.3287 146.549 69.9831C146.23 69.7593 145.865 69.5865 145.444 69.4687C145.023 69.3509 144.551 69.292 144.032 69.292C143.513 69.292 143.041 69.3509 142.628 69.4687C142.215 69.5865 141.853 69.7593 141.534 69.9831C141.058 70.3287 140.716 70.745 140.5 71.2319C140.287 71.7149 140.181 72.2765 140.181 72.9166C140.181 73.5566 140.287 74.1103 140.5 74.6012C140.712 75.096 141.058 75.5122 141.534 75.85C142.175 76.3173 143.009 76.5529 144.032 76.5529C145.054 76.5529 145.912 76.3173 146.549 75.85Z" fill="#212121"/>
<path d="M156.272 75.9239C156.272 76.1202 156.28 76.2891 156.292 76.4304C156.304 76.5757 156.324 76.7053 156.343 76.8153C156.367 76.9252 156.398 77.0195 156.434 77.1019C156.469 77.1844 156.512 77.2629 156.56 77.3454H154.4C154.436 77.2629 154.475 77.1844 154.51 77.1019C154.546 77.0195 154.577 76.9252 154.613 76.8153C154.64 76.7053 154.664 76.5797 154.679 76.4383C154.699 76.2969 154.703 76.1241 154.703 75.9239V69.4366H152.839C152.508 69.4366 152.201 69.4602 151.93 69.5034C151.659 69.5505 151.45 69.6447 151.309 69.79V68.4941H159.675V69.79C159.557 69.6369 159.36 69.5387 159.093 69.4994C158.821 69.4602 158.507 69.4366 158.141 69.4366H156.276V75.9239H156.272Z" fill="#212121"/>
<path d="M162.288 68.4903H170.108C170.1 68.7259 170.096 68.9379 170.096 69.1303V69.8097C170.045 69.7861 170.001 69.7586 169.954 69.7272C169.86 69.6723 169.742 69.6291 169.608 69.5937C169.49 69.5702 169.321 69.5466 169.097 69.527C168.876 69.5073 168.625 69.4916 168.345 69.4759C168.062 69.4681 167.763 69.4563 167.453 69.4484C167.138 69.4406 166.827 69.4366 166.52 69.4366C165.793 69.4366 165.002 69.4445 164.156 69.4602V72.0795C164.361 72.0795 164.617 72.0795 164.916 72.0873C165.211 72.0873 165.529 72.0873 165.863 72.0873C166.202 72.0795 166.536 72.0795 166.874 72.0677C167.213 72.0598 167.527 72.0441 167.818 72.0284C168.105 72.0088 168.353 71.9813 168.558 71.9459C168.762 71.9106 168.9 71.8635 168.963 71.8124V73.3282C168.876 73.2772 168.719 73.234 168.495 73.2026C168.267 73.1672 168.003 73.1358 167.704 73.1162C167.401 73.0965 167.079 73.0808 166.737 73.069C166.391 73.0533 166.056 73.0455 165.73 73.0455C165.403 73.0455 165.104 73.0455 164.825 73.0455C164.55 73.0455 164.329 73.0533 164.16 73.0533V76.3009C164.16 76.3009 164.227 76.3127 164.341 76.3127C164.455 76.3127 164.585 76.3127 164.746 76.3205C164.912 76.3205 165.093 76.3284 165.285 76.3323C165.486 76.3323 165.679 76.3402 165.863 76.3441C166.052 76.3441 166.225 76.3519 166.383 76.3519H167.846C168.223 76.3519 168.589 76.3402 168.931 76.3205C169.278 76.297 169.588 76.2616 169.864 76.2067C170.143 76.1517 170.359 76.0574 170.517 75.9357L170.233 77.3415H162.296C162.335 77.2591 162.375 77.1805 162.406 77.0981C162.442 77.0156 162.473 76.9213 162.501 76.8114C162.528 76.7014 162.552 76.5797 162.567 76.4344C162.583 76.293 162.591 76.1242 162.591 75.92V69.9079C162.591 69.7076 162.583 69.5309 162.567 69.3934C162.552 69.2521 162.532 69.1225 162.501 69.0165C162.473 68.9065 162.442 68.8123 162.406 68.7298C162.371 68.6473 162.335 68.5688 162.296 68.4863" fill="#212121"/>
<path d="M173.721 77.3415C173.76 77.259 173.799 77.1805 173.831 77.098C173.866 77.0156 173.898 76.9213 173.925 76.8114C173.953 76.7014 173.976 76.5757 173.992 76.4344C174.008 76.293 174.016 76.1241 174.016 75.9199V69.9078C174.016 69.7076 174.008 69.5308 173.992 69.3973C173.976 69.252 173.953 69.1264 173.925 69.0203C173.902 68.9104 173.866 68.8161 173.831 68.7337C173.795 68.6551 173.76 68.5766 173.721 68.4941H175.884C175.845 68.5766 175.805 68.6551 175.77 68.7337C175.735 68.8161 175.703 68.9143 175.676 69.0203C175.648 69.1303 175.624 69.252 175.609 69.3973C175.593 69.5348 175.585 69.7076 175.585 69.9078V76.0927C175.585 76.1752 175.593 76.2616 175.609 76.348C175.64 76.348 175.715 76.348 175.837 76.3558C175.959 76.3637 176.096 76.3637 176.254 76.3715C176.407 76.3715 176.568 76.3715 176.73 76.3715H177.139C177.505 76.3715 177.878 76.3715 178.264 76.3794C178.649 76.3794 179.011 76.3794 179.353 76.3558C179.691 76.3323 179.998 76.2969 180.274 76.2341C180.545 76.1752 180.761 76.0849 180.923 75.9631L180.635 77.3454H173.721V77.3415Z" fill="#212121"/>
<path d="M190.19 69.0015V70.3209C190.025 70.1756 189.812 70.05 189.561 69.9322C189.305 69.8183 189.03 69.7201 188.735 69.6416C188.436 69.5591 188.125 69.4963 187.799 69.4491C187.468 69.3981 187.138 69.3706 186.803 69.3628C186.532 69.3549 186.261 69.3706 185.989 69.4138C185.718 69.4531 185.466 69.5198 185.246 69.6062C185.022 69.6965 184.845 69.8183 184.703 69.9675C184.565 70.1167 184.495 70.2974 184.495 70.5055C184.495 70.7332 184.558 70.9139 184.679 71.0592C184.801 71.2005 184.967 71.3223 185.175 71.4205C185.38 71.5186 185.623 71.6129 185.903 71.6914C186.182 71.7739 186.485 71.8603 186.811 71.9584C187.134 72.0645 187.456 72.1626 187.779 72.2569C188.098 72.3511 188.404 72.4572 188.699 72.571C188.99 72.6889 189.266 72.8302 189.517 72.9834C189.773 73.1404 189.997 73.3368 190.186 73.5646C190.265 73.6588 190.332 73.7688 190.387 73.8944C190.442 74.0201 190.481 74.1497 190.513 74.2753C190.54 74.4049 190.556 74.5345 190.56 74.6562C190.56 74.7819 190.56 74.8919 190.552 74.99C190.517 75.4691 190.363 75.8657 190.104 76.1877C189.844 76.5097 189.506 76.7689 189.093 76.9574C188.68 77.1498 188.208 77.2833 187.677 77.3619C187.146 77.4365 186.595 77.4718 186.013 77.464C185.262 77.4483 184.593 77.3658 184.011 77.2205C183.429 77.0752 182.98 76.9378 182.662 76.8121L182.579 75.3906C182.662 75.4652 182.784 75.5634 182.957 75.689C183.13 75.8147 183.346 75.9364 183.629 76.0581C183.905 76.1799 184.243 76.2859 184.64 76.3802C185.033 76.4705 185.494 76.5215 186.017 76.5294C186.406 76.5372 186.776 76.5294 187.122 76.494C187.472 76.4626 187.779 76.3959 188.042 76.2859C188.31 76.1838 188.518 76.0385 188.68 75.8539C188.837 75.6733 188.92 75.4416 188.92 75.1589C188.92 74.9625 188.857 74.7819 188.739 74.6248C188.621 74.4599 188.467 74.3185 188.282 74.1929C188.098 74.0672 187.885 73.9572 187.653 73.863C187.417 73.7648 187.185 73.6784 186.949 73.5999C186.721 73.5253 186.493 73.4585 186.276 73.3996C186.064 73.3446 185.891 73.2936 185.753 73.2543C185.246 73.1012 184.762 72.9205 184.302 72.7163C183.842 72.5161 183.472 72.2451 183.197 71.9035C183.039 71.7189 182.933 71.5147 182.878 71.2791C182.823 71.0513 182.807 70.8236 182.831 70.6076C182.866 70.1874 183.004 69.834 183.232 69.5473C183.46 69.2607 183.759 69.029 184.117 68.8483C184.479 68.6716 184.892 68.546 185.356 68.4792C185.82 68.4124 186.308 68.381 186.823 68.3889C187.091 68.3889 187.378 68.4124 187.677 68.4478C187.98 68.4792 188.278 68.5224 188.573 68.5734C188.872 68.6245 189.16 68.6873 189.435 68.7619C189.71 68.8326 189.958 68.9112 190.182 68.9897" fill="#212121"/>
<path d="M52.7219 87.1693C52.9343 87.3971 53.0995 87.6602 53.2214 87.9547C53.3434 88.2571 53.4024 88.5987 53.4024 88.9914C53.4024 89.3841 53.3395 89.7336 53.2175 90.036C53.0956 90.3384 52.9304 90.6015 52.7219 90.8331C52.4112 91.163 52.0218 91.4143 51.5537 91.5871C51.0857 91.756 50.5665 91.8424 49.9961 91.8424C49.4258 91.8424 48.9027 91.7599 48.4307 91.591C47.9626 91.4222 47.5693 91.1709 47.2585 90.8331C47.054 90.6054 46.8888 90.3384 46.7669 90.036C46.6449 89.7336 46.5859 89.3841 46.5859 88.9914C46.5859 88.5987 46.6449 88.2532 46.7669 87.9547C46.8888 87.6563 47.054 87.3971 47.2585 87.1693C47.5693 86.8395 47.9587 86.5881 48.4307 86.4193C48.9027 86.2504 49.4258 86.168 49.9961 86.168C50.5665 86.168 51.0857 86.2504 51.5537 86.4193C52.0218 86.5881 52.4112 86.8395 52.7219 87.1693ZM51.5537 90.8292C51.8487 90.6172 52.0611 90.358 52.1949 90.0556C52.3247 89.7493 52.3915 89.3959 52.3915 88.9993C52.3915 88.6027 52.3247 88.261 52.1949 87.9586C52.0651 87.6563 51.8487 87.401 51.5537 87.185C51.3571 87.0437 51.1289 86.9376 50.8693 86.863C50.6097 86.7923 50.3147 86.7531 49.9883 86.7531C49.6618 86.7531 49.3747 86.7884 49.119 86.863C48.8594 86.9376 48.6352 87.0437 48.4385 87.185C48.1435 87.401 47.9272 87.6602 47.7974 87.9586C47.6637 88.261 47.5968 88.6105 47.5968 89.0071C47.5968 89.4037 47.6637 89.7493 47.7974 90.0595C47.9272 90.3619 48.1435 90.625 48.4385 90.8331C48.8358 91.1237 49.355 91.269 49.9883 91.269C50.6215 91.269 51.1604 91.1237 51.5577 90.8331" fill="#212121"/>
<path d="M56.8731 86.2549H61.7189V87.0717C61.6914 87.0599 61.66 87.0442 61.6324 87.0246C61.6088 87.0128 61.5773 87.001 61.538 86.9814C61.5026 86.9657 61.4594 86.9499 61.4161 86.9421C61.3414 86.9264 61.2352 86.9146 61.0975 86.9028C60.9559 86.8871 60.8025 86.8793 60.6294 86.8714C60.4524 86.8636 60.2676 86.8596 60.0748 86.8518C59.8782 86.8439 59.6854 86.8439 59.4927 86.8439C59.0404 86.8439 58.5526 86.8439 58.0256 86.8518V88.4775C58.1554 88.4854 58.3127 88.4854 58.4976 88.4893H59.0836C59.2921 88.4893 59.5006 88.4814 59.709 88.4775C59.9214 88.4775 60.1181 88.4657 60.299 88.454C60.48 88.4422 60.6294 88.4265 60.7592 88.4029C60.889 88.3793 60.9716 88.3519 61.011 88.3204V89.2551C60.9598 89.2236 60.8615 89.2001 60.7199 89.1804C60.5783 89.1569 60.417 89.1451 60.2243 89.1294C60.0355 89.1176 59.8349 89.1058 59.6146 89.098C59.4022 89.0901 59.1938 89.0862 58.9932 89.0823C58.7886 89.0823 58.6038 89.0823 58.4307 89.0823H58.0216V90.869C58.0216 90.9947 58.0295 91.1007 58.0334 91.1871C58.0413 91.2774 58.0531 91.356 58.0688 91.4188C58.0846 91.4855 58.1003 91.5444 58.1239 91.5955C58.1475 91.6465 58.1711 91.7015 58.1986 91.7565H56.8652C56.8888 91.7055 56.9164 91.6583 56.936 91.6034C56.9596 91.5523 56.9754 91.4934 56.995 91.4266C57.0108 91.3599 57.0265 91.2813 57.0344 91.195C57.0422 91.1086 57.0501 90.9986 57.0501 90.8769V87.1384C57.0501 87.0128 57.0422 86.9028 57.0344 86.8164C57.0265 86.73 57.0108 86.6476 56.995 86.5808C56.9754 86.5141 56.9596 86.4552 56.936 86.4041C56.9124 86.3531 56.8888 86.3059 56.8652 86.2549" fill="#212121"/>
<path d="M72.4226 90.8729C72.4226 90.9947 72.4226 91.1007 72.4305 91.191C72.4384 91.2813 72.4541 91.3599 72.4659 91.4306C72.4816 91.4973 72.5013 91.5562 72.521 91.6073C72.5406 91.6583 72.5721 91.7054 72.5996 91.7604H71.2545C71.2781 91.7094 71.3016 91.6583 71.3213 91.6073C71.3449 91.5562 71.3646 91.4973 71.3842 91.4306C71.4078 91.3599 71.4196 91.2853 71.4314 91.1949C71.4393 91.1086 71.4472 91.0025 71.4472 90.8769V86.8439H70.2869C70.0784 86.8439 69.8896 86.8557 69.7205 86.8832C69.5513 86.9107 69.4215 86.9696 69.3311 87.0599V86.2549H74.5309V87.0599C74.4601 86.9657 74.3382 86.9067 74.169 86.8793C73.9999 86.8518 73.8072 86.8439 73.5751 86.8439H72.4187V90.8769L72.4226 90.8729Z" fill="#212121"/>
<path d="M82.2013 89.1176H78.8029V90.8769C78.8029 91.0025 78.8108 91.1086 78.8186 91.195C78.8265 91.2813 78.8422 91.3599 78.858 91.4266C78.8776 91.4934 78.8934 91.5523 78.917 91.6034C78.9406 91.6544 78.9602 91.7055 78.9878 91.7565H77.6426C77.6662 91.7055 77.6898 91.6583 77.7094 91.6034C77.733 91.5523 77.7488 91.4934 77.7684 91.4266C77.7842 91.3599 77.7999 91.2813 77.8078 91.195C77.8156 91.1086 77.8235 90.9986 77.8235 90.8769V87.1345C77.8235 87.0089 77.8156 86.9028 77.8078 86.8164C77.7999 86.7261 77.7842 86.6476 77.7684 86.5808C77.7488 86.5141 77.733 86.4552 77.7094 86.4041C77.6858 86.3531 77.6622 86.3059 77.6426 86.2549H78.9878C78.9602 86.3059 78.9366 86.3531 78.917 86.4041C78.8934 86.4552 78.8776 86.5141 78.858 86.5808C78.8422 86.6476 78.8265 86.7261 78.8186 86.8164C78.8108 86.9028 78.8029 87.0089 78.8029 87.1345V88.4972H82.2013V87.1345C82.2013 87.0089 82.1934 86.9028 82.1856 86.8164C82.1777 86.7261 82.162 86.6476 82.1502 86.5808C82.1305 86.5141 82.1108 86.4552 82.0912 86.4041C82.0676 86.3531 82.04 86.3059 82.0164 86.2549H83.3656C83.342 86.3059 83.3144 86.3531 83.2948 86.4041C83.2751 86.4552 83.2554 86.5141 83.2358 86.5808C83.2161 86.6476 83.2043 86.7261 83.1964 86.8164C83.1886 86.9028 83.1807 87.0089 83.1807 87.1345V90.8769C83.1807 91.0025 83.1886 91.1086 83.1964 91.195C83.2043 91.2813 83.22 91.3599 83.2358 91.4266C83.2554 91.4934 83.2751 91.5523 83.2948 91.6034C83.3184 91.6544 83.342 91.7055 83.3656 91.7565H82.0164C82.04 91.7055 82.0676 91.6583 82.0912 91.6034C82.1108 91.5523 82.1305 91.4934 82.1502 91.4266C82.1659 91.3599 82.1777 91.2813 82.1856 91.195C82.1934 91.1086 82.2013 90.9986 82.2013 90.8769V89.1176Z" fill="#212121"/>
<path d="M87.3527 86.2559H92.2142C92.2064 86.3973 92.2064 86.5347 92.2064 86.6525V87.0766C92.1749 87.0609 92.1434 87.0413 92.1159 87.0256C92.0569 86.9902 91.9861 86.9588 91.9035 86.9431C91.8288 86.9274 91.7226 86.9156 91.5849 86.9038C91.4433 86.8881 91.2899 86.8803 91.1129 86.8724C90.9398 86.8646 90.755 86.8606 90.5583 86.8528C90.3616 86.8449 90.1689 86.8449 89.9762 86.8449C89.5238 86.8449 89.0322 86.8528 88.5051 86.8606V88.4903C88.631 88.4903 88.7922 88.4903 88.9771 88.4903H89.571C89.7795 88.4903 89.988 88.4825 90.1964 88.4785C90.4088 88.4785 90.6016 88.4668 90.7786 88.455C90.9595 88.4432 91.1129 88.4275 91.2427 88.4039C91.3686 88.3804 91.4512 88.3529 91.4905 88.3215V89.2678C91.4354 89.2364 91.341 89.2089 91.1994 89.1854C91.0578 89.1618 90.8966 89.1461 90.7078 89.1343C90.5229 89.1226 90.3184 89.1108 90.106 89.1029C89.8936 89.0951 89.6851 89.0911 89.4806 89.0872C89.276 89.0872 89.0912 89.0872 88.9181 89.0872C88.745 89.0872 88.6035 89.0872 88.5012 89.0872V91.1096C88.5012 91.1096 88.5445 91.1174 88.6113 91.1174C88.6782 91.1174 88.7647 91.1174 88.867 91.1174C88.9692 91.1174 89.0794 91.1253 89.2013 91.1253C89.3272 91.1253 89.4452 91.1331 89.5632 91.1331C89.6772 91.1331 89.7834 91.1331 89.8818 91.1331H90.7904C91.0264 91.1331 91.2506 91.1253 91.463 91.1096C91.6754 91.1017 91.8681 91.0742 92.0451 91.0428C92.2142 91.0075 92.3519 90.9525 92.4502 90.874L92.2732 91.7497H87.3369C87.3605 91.6986 87.3841 91.6515 87.4038 91.5965C87.4274 91.5455 87.447 91.4866 87.4628 91.4198C87.4824 91.353 87.4982 91.2745 87.5061 91.1881C87.5139 91.1017 87.5218 90.9918 87.5218 90.87V87.1316C87.5218 87.0059 87.5139 86.896 87.5061 86.8096C87.4982 86.7232 87.4824 86.6407 87.4628 86.574C87.447 86.5072 87.4274 86.4483 87.4038 86.3973C87.3802 86.3462 87.3605 86.2991 87.3369 86.248" fill="#212121"/>
<path d="M108.236 86.2561C108.2 86.2953 108.169 86.3385 108.141 86.3739C108.11 86.4171 108.082 86.4681 108.051 86.527C108.016 86.5859 107.984 86.6605 107.945 86.7391C107.909 86.8215 107.862 86.9236 107.815 87.0454L105.88 91.848H105.754L104.181 88.1449L102.584 91.848H102.434L100.479 87.0297C100.428 86.904 100.389 86.8019 100.353 86.7194C100.318 86.637 100.287 86.5702 100.259 86.5152C100.235 86.4563 100.208 86.4053 100.176 86.3699C100.153 86.3346 100.117 86.2953 100.078 86.2561H101.506C101.471 86.2993 101.443 86.3582 101.427 86.4249C101.419 86.4878 101.419 86.5663 101.427 86.6605C101.435 86.7548 101.463 86.8726 101.518 87.0061L102.71 90.0809L104.35 86.2168H104.468L105.998 90.0377L107.213 87.0375C107.28 86.8765 107.319 86.743 107.339 86.6409C107.359 86.5388 107.359 86.4563 107.347 86.4014C107.339 86.3346 107.319 86.2875 107.288 86.2521H108.236V86.2561Z" fill="#212121"/>
<path d="M116.807 87.1693C117.019 87.3971 117.184 87.6602 117.306 87.9547C117.428 88.2571 117.487 88.5987 117.487 88.9914C117.487 89.3841 117.428 89.7336 117.302 90.036C117.181 90.3384 117.015 90.6015 116.807 90.8331C116.5 91.163 116.107 91.4143 115.639 91.5871C115.175 91.756 114.651 91.8424 114.081 91.8424C113.511 91.8424 112.988 91.7599 112.52 91.591C112.048 91.4222 111.658 91.1709 111.347 90.8331C111.143 90.6054 110.978 90.3384 110.856 90.036C110.734 89.7336 110.675 89.3841 110.675 88.9914C110.675 88.5987 110.734 88.2532 110.856 87.9547C110.978 87.6563 111.143 87.3971 111.347 87.1693C111.662 86.8395 112.048 86.5881 112.52 86.4193C112.988 86.2504 113.511 86.168 114.081 86.168C114.651 86.168 115.175 86.2504 115.639 86.4193C116.107 86.5881 116.5 86.8395 116.807 87.1693ZM115.639 90.8292C115.934 90.6172 116.15 90.358 116.28 90.0556C116.414 89.7493 116.476 89.3959 116.476 88.9993C116.476 88.6027 116.414 88.261 116.28 87.9586C116.154 87.6563 115.934 87.401 115.639 87.185C115.442 87.0437 115.214 86.9376 114.954 86.863C114.695 86.7923 114.4 86.7531 114.077 86.7531C113.755 86.7531 113.46 86.7884 113.204 86.863C112.944 86.9376 112.72 87.0437 112.52 87.185C112.228 87.401 112.012 87.6602 111.878 87.9586C111.745 88.261 111.678 88.6105 111.678 89.0071C111.678 89.4037 111.745 89.7493 111.878 90.0595C112.012 90.3619 112.225 90.625 112.52 90.8331C112.921 91.1237 113.44 91.269 114.073 91.269C114.706 91.269 115.241 91.1237 115.639 90.8331" fill="#212121"/>
<path d="M126.804 91.7565H125.439C125.325 91.5994 125.179 91.3835 124.998 91.1086C124.814 90.8376 124.629 90.547 124.444 90.2407C124.377 90.1347 124.302 90.0208 124.224 89.903C124.141 89.7852 124.058 89.6753 123.968 89.5732C123.881 89.4711 123.787 89.3807 123.689 89.3022C123.59 89.2237 123.488 89.1687 123.386 89.1412C123.319 89.1255 123.228 89.1137 123.118 89.1019C123.008 89.0941 122.89 89.0862 122.764 89.0784C122.638 89.0784 122.52 89.0705 122.406 89.0705H122.127V90.8651C122.127 90.979 122.135 91.0772 122.139 91.1557C122.143 91.2342 122.159 91.3089 122.174 91.3756C122.186 91.4424 122.21 91.5013 122.229 91.5602C122.257 91.6191 122.281 91.6858 122.312 91.7565H120.963C120.99 91.7055 121.018 91.6544 121.045 91.6034C121.069 91.5523 121.089 91.4934 121.104 91.4267C121.12 91.3599 121.132 91.2774 121.14 91.1871C121.148 91.0968 121.156 90.9868 121.156 90.8651V87.1345C121.156 86.8911 121.132 86.7065 121.097 86.573C121.061 86.4434 121.018 86.3374 120.971 86.251H122.705C123.15 86.251 123.575 86.2588 123.98 86.2745C124.389 86.2942 124.747 86.3452 125.054 86.4316C125.36 86.5219 125.608 86.6594 125.789 86.8439C125.974 87.0285 126.06 87.2916 126.06 87.6333C126.06 87.9317 126.005 88.1673 125.891 88.3401C125.777 88.5129 125.644 88.6464 125.486 88.7446C125.329 88.8388 125.168 88.9016 125.002 88.9331C124.833 88.9606 124.692 88.9841 124.582 88.9959C124.656 89.0234 124.735 89.0823 124.821 89.1648C124.908 89.2472 124.995 89.3493 125.089 89.4632C125.179 89.5771 125.27 89.7067 125.364 89.8402C125.459 89.9776 125.549 90.1151 125.644 90.2604C125.762 90.441 125.872 90.6059 125.966 90.7552C126.06 90.9044 126.155 91.0379 126.241 91.1596C126.332 91.2814 126.418 91.3874 126.509 91.4895C126.595 91.5877 126.698 91.6819 126.812 91.7604M122.855 88.505C123.142 88.505 123.394 88.505 123.602 88.4972C123.815 88.4893 124.003 88.4736 124.165 88.4501C124.464 88.399 124.676 88.3126 124.806 88.1909C124.936 88.0691 125.002 87.8924 125.002 87.6568C125.002 87.5312 124.971 87.4212 124.916 87.3309C124.857 87.2406 124.79 87.166 124.703 87.1031C124.621 87.0442 124.53 86.9971 124.432 86.9618C124.334 86.9303 124.247 86.9068 124.169 86.8911C124.078 86.8754 123.976 86.8636 123.866 86.8557C123.756 86.8479 123.641 86.84 123.531 86.8361C123.413 86.8361 123.303 86.8282 123.189 86.8282C123.079 86.8204 122.977 86.8204 122.886 86.8204H122.131V88.4893C122.131 88.4893 122.174 88.4972 122.225 88.4972H122.855V88.505Z" fill="#212121"/>
<path d="M129.765 91.7565C129.788 91.7055 129.812 91.6544 129.832 91.6034C129.851 91.5523 129.875 91.4934 129.894 91.4267C129.91 91.3599 129.926 91.2814 129.934 91.191C129.942 91.1046 129.95 90.9986 129.95 90.873V87.1345C129.95 87.0089 129.942 86.9028 129.934 86.8165C129.926 86.7261 129.91 86.6476 129.894 86.5808C129.875 86.5141 129.855 86.4552 129.832 86.4041C129.808 86.3531 129.788 86.306 129.765 86.251H131.11C131.086 86.302 131.059 86.3531 131.043 86.4041C131.019 86.4552 131 86.5141 130.984 86.5808C130.964 86.6476 130.949 86.7261 130.941 86.8165C130.933 86.9028 130.925 87.0128 130.925 87.1345V90.979C130.925 91.03 130.933 91.085 130.941 91.1361C130.964 91.1361 131.008 91.1361 131.086 91.1439C131.165 91.1439 131.248 91.1439 131.346 91.1518C131.44 91.1518 131.543 91.1518 131.645 91.1518H131.896C132.125 91.1518 132.357 91.1518 132.597 91.1518C132.837 91.1518 133.061 91.1518 133.277 91.14C133.489 91.1243 133.678 91.1007 133.843 91.0614C134.013 91.0261 134.146 90.9672 134.249 90.8926L134.072 91.7526H129.773L129.765 91.7565Z" fill="#212121"/>
<path d="M140.123 86.2549C140.351 86.2549 140.595 86.2706 140.843 86.2942C141.091 86.3217 141.335 86.3766 141.571 86.4473C141.811 86.518 142.035 86.6162 142.243 86.7458C142.456 86.8714 142.64 87.0324 142.798 87.2327C142.951 87.433 143.077 87.6686 143.172 87.9513C143.266 88.2341 143.313 88.5639 143.313 88.9448C143.313 89.4239 143.227 89.8363 143.054 90.1936C142.877 90.547 142.644 90.8415 142.346 91.0693C142.051 91.2971 141.712 91.4738 141.327 91.5877C140.941 91.6976 140.54 91.7565 140.123 91.7565H137.272C137.295 91.7055 137.319 91.6544 137.342 91.6034C137.366 91.5523 137.382 91.4934 137.401 91.4227C137.417 91.356 137.429 91.2814 137.437 91.191C137.449 91.1046 137.452 90.9986 137.452 90.873V87.1345C137.452 87.0089 137.452 86.9068 137.437 86.8165C137.429 86.7261 137.413 86.6476 137.401 86.5769C137.386 86.5102 137.366 86.4513 137.346 86.4002C137.323 86.3531 137.299 86.302 137.268 86.251H140.119L140.123 86.2549ZM140.115 91.14C140.501 91.14 140.831 91.085 141.103 90.9751C141.378 90.8651 141.598 90.712 141.775 90.5195C141.948 90.3232 142.078 90.0954 142.161 89.8284C142.243 89.5653 142.283 89.2747 142.283 88.9645C142.283 88.2812 142.11 87.7628 141.759 87.3976C141.413 87.0364 140.863 86.8557 140.107 86.8557H138.432V91.14H140.115Z" fill="#212121"/>
</svg>
