<svg width="167" height="50" viewBox="0 0 167 50" fill="none" xmlns="http://www.w3.org/2000/svg">
<path fill-rule="evenodd" clip-rule="evenodd" d="M162.25 4.16797H161.833C161.333 5.08464 160.75 6.08464 160.167 7.16797C159.583 8.2513 159 9.33464 158.417 10.418C157.833 11.5013 157.25 12.668 156.667 13.7513C156.083 14.8346 155.583 15.8346 155.083 16.7513C154.583 17.668 154.167 18.5013 153.75 19.2513C153.5 19.668 153.333 20.0846 153.167 20.418C153.083 20.5846 153 20.7513 152.917 20.918L144.25 4.16797H143.75L140.833 25.418H142.917L144.417 9.83464L152.167 25.3346H152.417L160.333 9.83464L161.833 25.418H164.667L162.25 4.16797ZM65.75 25.418L74.9167 4.16797H75.5C75.6667 4.66797 75.9167 5.08464 76.0834 5.58464L76.25 6.0013L76.4167 6.33464C76.6667 6.83464 76.8334 7.41797 77.0834 8.0013C77.25 8.5013 77.5 9.0013 77.6667 9.5013C78 10.418 78.4167 11.2513 78.75 12.168C79.3334 13.5846 79.9167 14.918 80.5 16.3346C81.0834 17.7513 81.5834 19.0013 82.1667 20.168C82.6667 21.3346 83.1667 22.418 83.5834 23.3346C84.0001 24.2513 84.3334 25.0013 84.5834 25.5013H81.4167C81.25 25.0013 81.0834 24.5013 80.8334 23.8346C80.5834 23.168 80.3334 22.5013 80 21.7513C79.8334 21.3346 79.6667 20.918 79.5 20.5013C79.4167 20.168 79.25 19.918 79.1667 19.5846C78.8334 18.8346 78.5834 18.168 78.3334 17.5013H71L67.8334 25.5846H65.75V25.418ZM74.5 8.2513L71.4167 16.0013H77.8334L74.5 8.2513ZM40.25 4.58464V23.7513H48.5V25.5013H37.5834V4.66797H40.25V4.58464ZM2 31.0846H164.667V32.3346H2V31.0846ZM19.9167 38.8346C19.5833 39.168 19.25 39.5846 19.0833 40.0846C18.9167 40.5846 18.75 41.168 18.75 41.7513C18.75 42.418 18.8333 42.918 19.0833 43.418C19.25 43.918 19.5833 44.3346 19.9167 44.668C20.25 45.0013 20.75 45.2513 21.25 45.418C21.75 45.5846 22.3333 45.668 22.9167 45.668C23.5 45.668 24.0833 45.5846 24.5833 45.418C25.0833 45.2513 25.5 45.0013 25.9167 44.668C26.25 44.3346 26.5833 43.918 26.75 43.418C26.9167 42.918 27.0833 42.3346 27.0833 41.7513C27.0833 41.0846 27 40.5846 26.75 40.0846C26.5833 39.5846 26.25 39.168 25.9167 38.8346C25.5833 38.5013 25.0833 38.2513 24.5833 38.0846C24.0833 37.918 23.5 37.8346 22.9167 37.8346C22.3333 37.8346 21.75 37.918 21.25 38.0846C20.75 38.168 20.25 38.418 19.9167 38.8346ZM25.0833 39.0013C25.3333 39.3346 25.5833 39.668 25.75 40.0846C25.9167 40.5013 26 41.0846 26 41.668C26 42.2513 25.9167 42.8346 25.75 43.2513C25.5833 43.668 25.4167 44.0846 25.0833 44.3346C24.8333 44.668 24.5 44.8346 24.0833 45.0013C23.75 45.168 23.3333 45.2513 22.8333 45.2513C22.4167 45.2513 22 45.168 21.6667 45.0013C21.3333 44.8346 21 44.668 20.6667 44.3346C20.4167 44.0013 20.1667 43.668 20 43.2513C19.8333 42.8346 19.75 42.2513 19.75 41.668C19.75 41.0846 19.8333 40.5013 20 40.0846C20.1667 39.668 20.3333 39.2513 20.6667 39.0013C20.9167 38.668 21.25 38.5013 21.6667 38.3346C22 38.168 22.4167 38.0846 22.8333 38.0846C23.25 38.0846 23.6667 38.168 24.0833 38.3346C24.5 38.5013 24.8333 38.7513 25.0833 39.0013ZM124.5 40.0846C124.667 39.5846 125 39.168 125.333 38.8346C125.667 38.5013 126.167 38.2513 126.667 38.0846C127.167 37.918 127.75 37.8346 128.333 37.8346C128.917 37.8346 129.5 37.918 130 38.0846C130.5 38.2513 130.917 38.5013 131.333 38.8346C131.667 39.168 132 39.5846 132.167 40.0846C132.333 40.5846 132.5 41.168 132.5 41.7513C132.5 42.418 132.417 42.918 132.167 43.418C132 43.918 131.667 44.3346 131.333 44.668C131 45.0013 130.5 45.2513 130 45.418C129.5 45.5846 128.917 45.668 128.333 45.668C127.75 45.668 127.167 45.5846 126.667 45.418C126.167 45.2513 125.75 45.0013 125.333 44.668C125 44.3346 124.667 43.918 124.5 43.418C124.333 42.918 124.167 42.3346 124.167 41.7513C124.167 41.0846 124.25 40.5846 124.5 40.0846ZM131.167 40.168C131 39.7513 130.833 39.3346 130.5 39.0846C130.25 38.7513 129.917 38.5846 129.5 38.418C129.167 38.2513 128.75 38.168 128.25 38.168C127.833 38.168 127.417 38.2513 127.083 38.418C126.75 38.5846 126.417 38.7513 126.083 39.0846C125.833 39.418 125.583 39.7513 125.417 40.168C125.25 40.5846 125.167 41.168 125.167 41.7513C125.167 42.3346 125.25 42.918 125.417 43.3346C125.583 43.7513 125.75 44.168 126.083 44.418C126.333 44.7513 126.667 44.918 127.083 45.0846C127.417 45.2513 127.833 45.3346 128.25 45.3346C128.667 45.3346 129.083 45.2513 129.5 45.0846C129.833 44.918 130.167 44.7513 130.5 44.418C130.75 44.0846 131 43.7513 131.167 43.3346C131.333 42.918 131.417 42.3346 131.417 41.7513C131.417 41.168 131.333 40.5846 131.167 40.168ZM54.8334 23.7513V4.58464H52.1667V25.418H63.0834V23.668H54.8334V23.7513ZM23.6667 4.16797L14.5 25.418H16.5L19.6667 17.3346H27C27.25 18.0013 27.5834 18.668 27.8334 19.418C27.9167 19.7513 28.0833 20.0013 28.1667 20.3346C28.3333 20.7513 28.5 21.168 28.6667 21.5846C28.9167 22.3346 29.25 23.0013 29.5 23.668C29.75 24.3346 29.9167 24.918 30.0833 25.3346H33.3334C33.0834 24.8346 32.75 24.168 32.3333 23.168C31.9167 22.2513 31.4167 21.168 30.9167 20.0013C30.4167 18.8346 29.8333 17.5013 29.25 16.168C28.6667 14.7513 28.0833 13.418 27.5 12.0013C27.1667 11.0846 26.75 10.2513 26.4167 9.33464C26.25 8.83464 26 8.33464 25.8333 7.91797C25.5833 7.33464 25.3333 6.83464 25.1667 6.2513L25 6.0013L24.8333 5.58464C24.6667 5.08464 24.4167 4.58464 24.25 4.16797H23.6667ZM20.25 16.0013L23.3333 8.2513L26.6667 16.0013H20.25ZM104.667 7.2513C105.5 8.08464 106.083 9.16797 106.417 10.418C106.75 11.668 107 13.0846 107 14.5846C107 16.5846 106.667 18.3346 106 19.668C105.333 21.0846 104.417 22.168 103.333 23.0013C102.25 23.8346 101.083 24.418 99.7501 24.8346C98.5001 25.168 97.3334 25.3346 96.2501 25.3346H88V4.5013H97.5001C99.0834 4.5013 100.417 4.7513 101.583 5.16797C102.833 5.7513 103.833 6.41797 104.667 7.2513ZM101.083 22.5013C101.917 21.7513 102.667 20.7513 103.25 19.5013C103.833 18.2513 104.083 16.5846 104.083 14.5846C104.083 12.8346 103.833 11.3346 103.417 10.2513C103 9.08464 102.417 8.2513 101.667 7.58464C100.917 6.91797 100 6.5013 99.0001 6.2513C98.0001 6.0013 96.8334 5.83464 95.5834 5.83464C94.6667 5.83464 93.8334 5.83464 93.0834 5.91797C92.3334 6.0013 91.5834 6.08464 91.0001 6.16797V24.0846C91.4167 24.168 92.0001 24.2513 92.7501 24.3346C93.5001 24.418 94.2501 24.418 95.0001 24.418C96.0834 24.418 97.1667 24.2513 98.3334 24.0013C99.2501 23.7513 100.167 23.2513 101.083 22.5013ZM113.917 4.58464H111V25.418H113.917V4.58464ZM134.667 4.58464H137.167V17.0013V17.2513C137.167 20.2513 136.5 22.418 135.083 23.7513C133.75 25.0846 131.5 25.8346 128.5 25.8346C128.417 25.8346 128.417 25.8346 128.333 25.8346H128.25C128.167 25.8346 128.083 25.8346 128 25.8346C125 25.8346 122.833 25.168 121.417 23.7513C120.083 22.3346 119.333 20.168 119.333 17.2513V17.0013V4.58464H121.833V11.5013V11.5846V11.668C121.833 12.7513 121.833 13.8346 121.833 14.918C121.833 15.5846 121.833 16.3346 121.833 17.0846C121.833 17.8346 121.917 18.5013 122.083 19.2513C122.167 19.918 122.417 20.5846 122.667 21.2513C122.917 21.918 123.333 22.418 123.833 22.918C124.333 23.418 125 23.7513 125.75 24.0013C126.417 24.2513 127.25 24.418 128.25 24.418C129.25 24.418 130.083 24.2513 130.75 24.0013C131.5 23.7513 132.167 23.3346 132.667 22.918C133.167 22.418 133.583 21.918 133.833 21.2513C134.083 20.5846 134.333 19.918 134.417 19.2513C134.5 18.5846 134.583 17.8346 134.667 17.0846C134.667 16.3346 134.667 15.668 134.667 14.918C134.667 13.7513 134.667 12.668 134.667 11.668V11.5846V11.5013V4.58464ZM7.58334 41.168V37.8346H8.66667V45.5846H7.58334V41.668H3.16667V45.5013C3.08333 45.5013 3.08333 45.5013 3 45.5013C2.91667 45.5013 2.91667 45.5013 2.83333 45.5013H2.41667C2.33333 45.5013 2.16667 45.5013 2.08333 45.5013V37.8346H3.16667V41.168H7.58334ZM41.6667 38.5846V37.918H35.9167V38.5846H38.25V45.5846H39.1667C39.1667 45.5846 39.1667 45.5846 39.25 45.5846H39.3334V38.668V38.5846H41.6667ZM52.5 44.5013C52.5 44.668 52.5 44.8346 52.5 45.0013H55.5V45.668H51.5V37.918H51.6667H51.8334H52.4167H53.0834H55.4167V38.5846H52.5C52.5 38.7513 52.5 38.918 52.5 39.0846C52.5 39.3346 52.5 39.5846 52.5 39.8346C52.5 40.168 52.5 40.418 52.5 40.668C52.5 40.918 52.5 41.0846 52.5 41.168H55.1667V41.8346H52.5V41.918C52.5 42.0013 52.5 42.0846 52.5 42.2513V42.668V43.3346C52.5 43.8346 52.5 44.168 52.5 44.5013ZM66.75 44.918V37.8346H65.6667V45.5846H69.75V44.918H66.75ZM97.9167 42.0846H98.9167C98.9167 42.2513 98.9167 42.5013 98.9167 42.918V45.2513C98.7501 45.3346 98.5834 45.3346 98.3334 45.418C98.0834 45.5013 97.8334 45.5013 97.5834 45.5846C97.3334 45.668 97.0834 45.668 96.8334 45.668C96.5834 45.668 96.3334 45.7513 96.0834 45.7513C95.4167 45.7513 94.8334 45.668 94.3334 45.5013C93.8334 45.3346 93.3334 45.0846 93.0001 44.7513C92.6667 44.418 92.3334 44.0013 92.1667 43.5013C92.0001 43.0013 91.8334 42.418 91.8334 41.7513C91.8334 41.0846 91.9167 40.5846 92.1667 40.0846C92.3334 39.5846 92.6667 39.168 93.0834 38.8346C93.5001 38.5013 93.9167 38.2513 94.4167 38.0846C94.9167 37.918 95.5834 37.8346 96.1667 37.8346C96.5834 37.8346 96.9167 37.8346 97.1667 37.918C97.5001 37.918 97.7501 38.0013 97.9167 38.0846C98.1667 38.168 98.3334 38.2513 98.5001 38.3346C98.6667 38.418 98.8334 38.5013 98.9167 38.5846L98.6667 39.418H98.5001C98.4167 39.2513 98.2501 39.168 98.0834 39.0013C97.9167 38.8346 97.7501 38.7513 97.5001 38.668C97.3334 38.5846 97.0834 38.5013 96.8334 38.418C96.5834 38.3346 96.3334 38.3346 96.0001 38.3346C95.5834 38.3346 95.0834 38.418 94.7501 38.5846C94.3334 38.7513 94.0001 38.918 93.7501 39.2513C93.4167 39.5846 93.2501 39.918 93.0834 40.3346C92.9167 40.7513 92.8334 41.3346 92.8334 41.918C92.8334 42.5013 92.9167 43.0013 93.0834 43.418C93.2501 43.8346 93.4167 44.2513 93.7501 44.5013C94.0001 44.8346 94.4167 45.0013 94.8334 45.168C95.2501 45.3346 95.7501 45.418 96.2501 45.418C96.4167 45.418 96.5834 45.418 96.7501 45.418C96.9167 45.418 97.0834 45.418 97.2501 45.3346C97.4167 45.3346 97.5834 45.2513 97.6667 45.2513C97.7501 45.2513 97.9167 45.168 98.0001 45.0846V42.0846H97.9167ZM114.5 45.168C114.333 45.0013 114.167 44.7513 113.917 44.5013C113.833 44.418 113.75 44.3346 113.75 44.2513C113.583 44.0846 113.5 43.918 113.333 43.7513C113.167 43.5846 113.083 43.418 112.917 43.2513L112.75 43.0013C112.583 42.7513 112.417 42.5013 112.25 42.3346C112.167 42.2513 112.083 42.0846 112 42.0013C111.917 41.918 111.917 41.918 111.833 41.8346C112.083 41.8346 112.25 41.7513 112.583 41.668C112.833 41.5846 113.083 41.418 113.333 41.2513C113.583 41.0846 113.75 40.8346 113.917 40.5846C114.083 40.3346 114.167 40.0013 114.167 39.668C114.167 39.3346 114.083 39.0846 114 38.8346C113.917 38.5846 113.75 38.418 113.5 38.3346C113.333 38.168 113.083 38.0846 112.75 38.0013C112.583 38.0013 112.333 37.918 112.167 37.918H110.417H109.333V45.668H110.417V42.0013H110.75C111 42.2513 111.25 42.5846 111.5 42.918C111.75 43.2513 112.083 43.668 112.333 44.0013C112.583 44.3346 112.833 44.668 113.083 45.0013L113.25 45.2513C113.417 45.418 113.5 45.5846 113.583 45.7513H114.917C114.833 45.5013 114.667 45.3346 114.5 45.168ZM111.083 41.5013C110.917 41.5013 110.833 41.5013 110.667 41.5013C110.583 41.5013 110.5 41.5013 110.417 41.5013V38.3346H110.5C110.583 38.3346 110.75 38.3346 110.833 38.3346C111 38.3346 111.25 38.3346 111.5 38.3346C111.667 38.3346 111.917 38.3346 112.083 38.418C112.25 38.418 112.5 38.5013 112.667 38.668C112.833 38.7513 113 38.918 113.083 39.0846C113.167 39.2513 113.25 39.5013 113.25 39.8346C113.25 40.168 113.167 40.418 113.083 40.668C112.917 40.918 112.75 41.0846 112.583 41.168C112.417 41.3346 112.167 41.418 111.917 41.418C111.5 41.5013 111.25 41.5013 111.083 41.5013ZM164.167 38.5013C164.333 38.668 164.417 38.8346 164.5 39.0013C164.583 39.2513 164.667 39.5013 164.667 39.7513C164.667 40.2513 164.583 40.668 164.333 40.918C164.083 41.2513 163.833 41.5013 163.583 41.668C163.25 41.8346 162.917 41.918 162.583 42.0013C162.25 42.0846 161.917 42.0846 161.667 42.0846C161.5 42.0846 161.333 42.0846 161.167 42.0846C161.083 42.0846 160.917 42.0846 160.833 42.0846V45.0846V45.5013H159.75V45.0846V37.8346H162.167H162.25C162.333 37.8346 162.417 37.8346 162.583 37.8346H162.667C162.833 37.8346 163 37.8346 163.167 37.918C163.333 37.918 163.5 38.0013 163.667 38.0846C163.917 38.2513 164.083 38.3346 164.167 38.5013ZM163 41.3346C163.25 41.168 163.333 41.0013 163.5 40.7513C163.667 40.5013 163.667 40.168 163.667 39.8346C163.667 39.5013 163.583 39.2513 163.5 39.0846C163.417 38.918 163.25 38.7513 163.167 38.5846C163 38.5013 162.833 38.418 162.583 38.3346C162.333 38.3346 162.083 38.2513 161.833 38.2513H160.917V41.5846C161.167 41.668 161.333 41.668 161.583 41.668C161.833 41.668 162.083 41.668 162.333 41.5846C162.5 41.5846 162.75 41.5013 163 41.3346ZM14.9167 7.58464C14.6667 7.0013 14.3333 6.5013 14 6.16797C13.5833 5.7513 13.1667 5.5013 12.6667 5.2513C12.1667 5.0013 11.6667 4.91797 11.25 4.7513C10.75 4.66797 10.25 4.58464 9.83334 4.58464H9.75C9.5 4.58464 9.25 4.58464 9.08334 4.58464H2.08333V25.418H4.75V23.918V17.5846V15.918C5.16667 15.918 5.5 16.0013 5.91667 16.0013C6.33334 16.0013 6.75 16.0013 7.16667 16.0013C7.91667 16.0013 8.75 15.918 9.66667 15.7513C10.5833 15.5846 11.5 15.2513 12.3333 14.8346C13.1667 14.3346 13.8333 13.7513 14.4167 12.918C15 12.0846 15.25 11.0013 15.25 9.66797C15.25 8.83464 15.1667 8.16797 14.9167 7.58464ZM12 12.418C11.6667 13.0846 11.1667 13.5846 10.6667 14.0013C10.0833 14.418 9.50001 14.668 8.83334 14.7513C8.16667 14.918 7.5 15.0013 6.91667 15.0013C6.16667 15.0013 5.5 14.918 4.75 14.7513V5.66797H7.5C8.25 5.66797 9 5.7513 9.58334 5.83464C10.1667 5.91797 10.75 6.16797 11.1667 6.41797C11.5833 6.7513 11.9167 7.16797 12.1667 7.66797C12.4167 8.2513 12.5 8.91797 12.5 9.83464C12.5 10.918 12.3333 11.7513 12 12.418ZM148.5 38.168V37.918H149V38.168V42.5846C149 43.0846 148.917 43.5013 148.75 43.918C148.583 44.3346 148.417 44.668 148.167 44.918C147.917 45.168 147.583 45.418 147.167 45.5846C146.75 45.7513 146.333 45.8346 145.833 45.8346C144.75 45.8346 143.917 45.5846 143.417 45.0846C142.917 44.5846 142.667 43.8346 142.667 42.918V37.918H143.667V42.7513C143.667 43.0013 143.667 43.168 143.75 43.418C143.833 43.668 143.833 43.918 144 44.168C144.083 44.418 144.25 44.5846 144.417 44.7513C144.583 44.918 144.833 45.0846 145.083 45.168C145.333 45.2513 145.75 45.3346 146.167 45.3346C146.583 45.3346 146.917 45.2513 147.167 45.168C147.417 45.0013 147.667 44.918 147.833 44.668C148 44.5013 148.167 44.2513 148.25 44.0013C148.333 43.7513 148.417 43.5013 148.5 43.168C148.583 42.918 148.583 42.5846 148.583 42.3346C148.583 42.2513 148.583 42.168 148.583 42.168C148.583 42.0013 148.583 41.7513 148.583 41.5846C148.583 40.7513 148.583 40.0846 148.583 39.5846V38.168H148.5Z" fill="#212121"/>
</svg>
