<svg width="874" height="662" viewBox="0 0 874 662" fill="none" xmlns="http://www.w3.org/2000/svg">
<g clip-path="url(#clip0_20635_20379)">
<path d="M461.127 59.461C463.025 56.8471 465.552 53.1234 467.903 53.9119C470.254 54.7005 474.415 60.5124 477.716 62.6736C481.016 64.8494 482.403 66.923 485.44 66.923C488.478 66.923 489.69 63.3599 490.99 64.6596C492.289 65.9592 494.815 67.7846 493.501 69.0842C492.187 70.3839 486.988 77.8459 491.238 78.722C495.487 79.5836 495.4 77.2472 495.4 75.0714C495.4 72.8955 496.057 69.0404 497.4 67.697C498.744 66.3535 502 62.8342 503.913 62.3085C505.826 61.7828 518.151 67.697 517.537 64.8202C516.924 61.9581 508.6 56.263 508.6 53.7659C508.6 51.2688 514.15 43.6316 516.676 43.6316C519.202 43.6316 523.101 45.9826 524.488 44.5808C525.876 43.1935 528.65 42.405 530.125 39.5428C531.6 36.6807 530.3 30.2554 533.162 31.3799C536.024 32.5043 540.288 40.9593 541.413 40.3168C543.676 39.0171 543.413 35.0159 545.399 33.8915C547.4 32.7671 549.138 31.891 551.036 29.978C552.949 28.065 552.599 26.5463 555.811 27.0282C562.85 28.065 564.836 37.7029 566.062 37.7029C567.289 37.7029 571.013 35.7899 571.538 33.103C572.064 30.4161 570.837 31.1024 571.538 29.7151C572.239 28.3279 573.013 26.5901 572.488 26.0644C571.962 25.5387 569.45 23.7134 570.399 21.5522C571.349 19.3764 571.874 18.252 574.561 17.6386C577.248 17.0253 577.073 14.9517 580.461 15.6381C583.849 16.339 584.973 18.325 584.199 20.5884C583.41 22.8518 578.475 29.3793 581.249 32.1392C584.024 34.8991 584.418 30.8834 585.674 32.1392C586.93 33.395 587.674 38.1117 592.099 38.6374C596.524 39.1631 602 37.3378 605.899 35.6001C609.812 33.8623 612.806 31.044 611.448 29.7005C610.09 28.3571 606.892 26.5317 608.849 24.575C610.805 22.6182 612.193 20.6322 611.112 19.537C610.031 18.4564 608.25 17.624 608.936 14.061C609.622 10.4979 611.156 11.1988 611.784 9.72395C612.412 8.24907 612.674 5.8104 615.011 7.21227C617.362 8.59953 616.573 14.3238 618.574 14.7619C620.575 15.2 624.43 20.1065 625.948 18.5878C627.467 17.0691 627.555 15.1562 625.948 13.5499C624.342 11.9436 623.597 10.2496 625.087 9.72395C626.562 9.19825 632.943 9.32967 631.512 7.8986C630.081 6.46753 620.75 3.73681 622.999 1.47338C625.247 -0.790051 626.912 -0.0891179 629.424 0.524199C631.935 1.13751 638.974 5.47454 643.136 3.91204C647.341 2.42256 647.517 -0.00150128 651.08 -0.00150128C654.643 -0.00150128 655.417 2.15971 657.505 2.15971C659.593 2.15971 663.93 1.80924 666.179 3.10889C668.442 4.40854 671.013 6.90561 670.005 9.00841C667.406 14.3968 662.192 13.8711 662.192 16.3828C662.192 18.8945 663.974 21.9757 666.267 24.2829C668.559 26.5901 672.911 24.94 674.079 26.1083C675.247 27.2765 677.116 29.4961 679.292 31.6573C681.468 33.8331 684.593 40.0831 686.579 42.0691C688.58 44.0697 690.653 38.4184 691.617 41.2075C692.566 43.9821 692.318 48.2461 695.18 50.3197C698.042 52.4078 702.175 53.138 704.818 50.4949C707.461 47.8518 710.031 41.9815 713.492 41.9815C716.953 41.9815 719.304 45.3693 721.567 45.3693C723.831 45.3693 725.13 44.756 726.693 43.1935C728.255 41.631 730.519 41.1053 734.33 42.2443C738.156 43.3687 740.58 47.4575 742.668 47.4575C744.756 47.4575 749.137 48.3629 750.306 47.1947C751.474 46.0264 750.481 37.7321 753.343 38.6812C756.205 39.6304 759.067 45.7198 759.067 47.6181C759.067 49.5165 761.331 52.1304 762.63 52.6561C763.93 53.1818 766.456 55.4306 766.456 56.3944C766.456 57.3582 767.931 61.8704 769.494 61.4324C771.056 60.9943 770.443 56.7449 774.093 57.694C777.744 58.6432 777.788 61.1257 776.78 62.1187C775.787 63.1117 772.619 62.8196 772.18 64.2069C771.742 65.5942 772.706 68.1204 770.18 69.4201C767.668 70.7197 766.617 71.6835 764.879 73.4066C763.141 75.1298 761.667 77.8313 763.492 77.8313C765.317 77.8313 767.055 76.444 767.917 78.0941C768.778 79.7442 769.216 81.482 770.954 81.482C772.692 81.482 776.342 77.656 778.065 77.656C779.789 77.656 780.416 79.6566 782.315 78.6928C784.228 77.7437 784.578 76.3418 786.301 77.3056C788.039 78.2548 789.207 80.3868 788.127 81.4674C787.046 82.548 770.326 93.354 763.302 92.5801C756.264 91.7915 757.709 90.3605 756.263 88.9294C754.832 87.4983 754.175 88.6665 752.35 89.2799C750.525 89.8932 749.313 88.243 748.276 87.1917C747.239 86.1549 742.508 80.635 740.288 82.8546C738.068 85.0743 743.238 89.8055 744.8 91.368C746.363 92.9305 748.685 91.7331 749.575 92.6239C750.466 93.5147 754.263 94.5807 753.562 96.5812C752.861 98.5818 748.743 103.664 747.575 106.307C744.8 112.557 744.8 122.545 748.188 130.007C751.576 137.469 759.564 145.194 764.426 149.195C769.289 153.182 774.327 156.832 777.365 158.307C780.402 159.782 781.702 160.045 781.351 161.87C781.001 163.696 777.525 166.12 777.525 168.033C777.525 169.946 777.525 174.896 780.563 176.108C783.6 177.32 785.659 176.21 788.536 175.027C791.412 173.845 794.888 173.071 798.1 174.545C801.313 176.02 803.956 177.889 802.087 179.759C800.218 181.628 796.012 187.308 794.713 188.608C793.413 189.908 791.675 192.434 794.45 192.434C797.224 192.434 797.925 189.747 800.086 190.696C802.262 191.645 804.394 192.916 802.7 194.61C801.211 196.099 796.085 200.509 791.573 199.998C787.061 199.472 785.761 198.085 784.286 194.449C782.811 190.798 779.978 184.432 777.773 186.637C775.86 188.549 774.911 188.374 774.298 191.149C773.685 193.923 771.611 198.012 769.348 198.611C767.084 199.224 766.924 196.873 764.923 197.91C762.922 198.947 762.835 201.984 761.185 201.984C759.535 201.984 756.059 200.86 755.022 202.758C753.985 204.656 754.409 207.007 755.285 209.358C756.147 211.709 756.672 214.908 755.723 215.871C754.774 216.82 753.46 215.433 751.036 216.645C748.612 217.857 749.386 219.858 747.385 219.858C745.384 219.858 742.873 216.382 740.609 218.646C738.346 220.909 741.646 222.209 742.172 223.947C742.698 225.684 742.522 227.597 739.573 228.809C736.623 230.021 732.709 230.722 732.709 232.635C732.709 234.548 733.235 236.885 735.06 239.674C736.886 242.463 735.367 245.354 734.023 246.712C732.68 248.07 729.949 247.501 728.635 250.699C727.335 253.911 728.898 257.036 729.336 260.249C729.774 263.462 730.198 266.411 729.862 269.536C729.526 272.661 731.862 273.611 732.286 274.75C732.724 275.874 733.761 278.999 730.898 278.999C728.036 278.999 721.173 274.136 717.449 273.362C713.711 272.574 707.198 270.851 701.123 270.851C697.736 270.851 695.18 270.033 693.837 271.376C692.493 272.72 693.063 274.239 690.098 273.801C687.149 273.362 687.499 269.025 684.549 269.025C681.599 269.025 682.125 271.376 679.599 272.764C677.087 274.151 675.773 274.852 675.773 276.925C675.773 278.999 677.336 278.751 676.635 280.576C675.934 282.402 673.51 281.438 673.51 282.664C673.51 283.891 674.678 288.345 673.159 289.864C671.64 291.382 669.684 290.214 668.822 289.338C667.961 288.462 665.522 284.826 663.697 285.512C661.871 286.213 661.433 289.163 659.622 289.163C657.812 289.163 656.366 286.432 655.11 287.688C653.854 288.944 646.859 300.713 646.436 303.576C645.998 306.438 645.574 310.001 646.611 313.126C647.648 316.251 648.437 319.901 648.437 322.676C648.437 325.451 646.056 328.707 647.575 330.226C649.094 331.744 649.999 333.964 649.488 335.351C648.977 336.738 646.889 337.95 644.976 341.163C643.063 344.376 643.807 344.332 645.151 345.675C646.494 347.019 643.895 349.706 642.245 351.356C640.77 352.831 640.551 353.575 637.689 353.575C634.827 353.575 631.176 352.188 629.789 353.575C628.402 354.963 629.263 356.788 632.739 357.825C636.214 358.862 637.251 358.351 639.514 360.599C641.778 362.863 644.114 366.075 639.952 369.2C635.791 372.325 632.753 375.012 629.876 373.976C627.014 372.939 620.151 364.951 617.114 365.9C614.076 366.849 613.288 369.2 612.163 372.501C611.039 375.801 607.563 387.352 605.388 390.564C603.212 393.777 600.613 397.34 598.7 398.289C596.787 399.238 591.15 399.589 587.412 401.064C583.673 402.539 576.124 406.364 575.437 409.738C574.736 413.126 578.781 416.207 577.087 417.901C575.394 419.595 568.924 417.375 567.537 418.762C566.15 420.149 558.863 430.912 556.512 432.299C554.161 433.686 551.255 434.854 549.999 436.125C548.743 437.381 550.029 442.287 548.247 444.069C546.465 445.85 545.735 441.878 543.56 444.069C541.369 446.259 540.478 443.908 537.251 443.09C534.009 442.287 530.621 442.287 529.322 439.045C528.022 435.804 528.84 431.919 523.817 431.116C518.793 430.313 515.157 432.81 512.967 435.001C510.776 437.191 510.864 440.185 511.667 442.609C512.47 445.033 516.355 445.69 516.355 448.435C516.355 451.18 514.573 453.94 515.873 455.24C517.172 456.54 521.86 453.78 521.86 456.7C521.86 459.621 521.699 461.563 519.596 461.563C517.494 461.563 514.734 459.299 514.734 461.563C514.734 463.826 512.543 464.075 510.849 462.366C509.155 460.672 508.265 454.276 507.286 451.516C506.308 448.771 504.366 447.793 504.366 445.529C504.366 443.266 500.744 439.557 499.182 437.439C497.4 435.015 497.561 432.416 489.31 433.715C481.06 435.015 480.738 438.403 482.345 443.266C483.966 448.128 492.056 450.552 491.252 453.619C490.449 456.7 487.207 455.24 487.368 458.307C487.529 461.388 488.668 464.615 485.908 466.396C483.162 468.178 482.505 467.535 479.921 466.396C477.336 465.257 472.152 463.651 468.268 463.315C464.383 462.994 462.12 461.373 459.039 462.994C455.957 464.615 450.131 475.129 445.444 479.174C440.756 483.219 435.251 493.09 432.651 496.814C430.067 500.538 427.467 509.11 426.986 513.651C426.504 518.178 425.525 526.925 427.628 530.97C429.731 535.015 433.615 533.555 432.651 537.439C431.673 541.323 427.146 549.092 429.57 552.173C431.994 555.254 432.316 555.576 431.191 558C430.067 560.424 431.673 565.768 428.607 569.171C425.525 572.573 424.24 574.355 424.401 578.078C424.562 581.802 424.24 593.937 425.701 598.96C427.161 603.984 436.054 616.44 431.045 617.74C426.022 619.039 421.334 611.913 417.611 607.386C413.887 602.859 403.534 592.491 397.211 594.273C390.888 596.055 387.178 601.399 386.697 603.823C386.215 606.247 387.339 613.534 384.915 614.177C382.491 614.819 382.652 609.81 381.031 611.431C379.41 613.052 374.562 622.442 371.32 620.821C368.078 619.2 365.654 612.074 366.954 608.525C368.253 604.962 370.035 594.288 368.735 591.528C367.435 588.782 358.703 572.267 351.416 560.935C344.129 549.603 320.94 530.839 312.573 536.49C305.607 541.177 308.528 545.397 305.768 546.04C303.023 546.682 302.205 539.235 298.321 540.535C294.436 541.834 294.115 543.937 293.458 547.164C292.815 550.406 292.319 550.567 290.873 552.509C289.427 554.451 287.31 556.072 287.31 558.496C287.31 560.92 286.989 566.104 284.068 566.104C281.148 566.104 281.484 560.438 282.608 558.336C283.747 556.233 284.229 550.727 283.586 549.107C282.944 547.486 281.805 545.062 277.76 543.119C273.715 541.177 268.531 537.775 263.683 539.396C258.82 541.017 260.602 550.085 257.535 550.888C254.454 551.691 254.614 548.143 253.169 549.588C251.708 551.049 251.387 553.633 247.664 552.173C243.94 550.713 245.239 546.668 249.445 545.208C253.651 543.747 253.972 546.829 255.272 542.784C256.571 538.739 254.468 536.796 252.03 536.315C249.591 535.833 248.788 533.89 248.145 532.43C247.503 530.97 243.283 524.019 242.158 523.041C241.019 522.077 238.274 519.478 236.653 520.777C235.032 522.077 234.229 523.858 231.469 523.362C228.724 522.88 222.401 518.996 220.298 520.617C218.195 522.237 221.758 526.764 217.377 526.122C213.011 525.479 214.136 519.653 210.908 518.996C207.681 518.339 192.45 515.914 189.705 518.353C186.96 520.792 183.718 531.788 180.476 535.833C177.234 539.878 169.305 546.347 170.283 549.588C171.262 552.83 173.686 552.173 172.547 555.415C171.408 558.657 161.215 569.01 157.813 567.389C154.41 565.768 154.731 556.875 153.446 553.152C152.147 549.428 140.815 533.891 138.23 532.109C135.646 530.327 131.104 528.064 126.417 530.006C121.729 531.948 120.269 536.475 118.327 533.73C116.385 530.985 123.014 527.261 121.89 524.18C120.751 521.098 113.479 517.214 115.085 514.308C116.706 511.388 119.13 506.539 118.166 503.619C117.188 500.698 118.487 495.85 116.224 494.872C113.961 493.894 105.433 485.92 103.928 482.08C102.147 477.553 97.7953 465.506 101.665 458.613C103.928 454.568 105.871 447.924 109.273 446.318C112.675 444.697 120.284 440.17 118.663 438.228C117.042 436.286 108.791 439.527 109.594 435.964C110.397 432.401 115.26 429.977 114.282 427.714C113.318 425.45 110.076 422.851 114.121 420.909C118.166 418.967 125.132 416.221 125.453 413.622C125.774 411.037 123.511 406.992 127.234 405.211C130.958 403.429 130.637 401.166 132.258 399.063C133.879 396.96 137.442 396.318 138.887 394.04C140.348 391.776 140.99 390.155 139.209 387.074C137.427 383.993 128.198 384.65 127.395 380.445C126.592 376.239 133.543 374.779 129.98 372.355C126.417 369.931 126.417 373.333 123.671 371.216C120.926 369.113 119.305 367.653 119.948 365.228C120.59 362.804 124.971 359.723 120.751 359.723C116.531 359.723 108.777 361.987 108.119 358.745C107.477 355.503 112.325 353.561 110.222 352.276C108.119 350.976 101.315 350.012 102.454 346.128C103.593 342.244 109.419 341.601 109.74 339.323C110.062 337.06 107.477 332.358 110.383 331.554C113.303 330.751 116.209 335.921 117.509 333.979C118.809 332.036 121.715 324.91 122.532 321.026C123.336 317.142 126.256 306.613 128.359 309.052C130.462 311.49 130.944 322.807 135.164 321.026C139.384 319.244 146.977 308.234 151.022 311.315C155.067 314.396 144.057 322.165 146.656 325.071C149.241 327.991 151.68 327.991 156.206 326.531C160.733 325.071 162.033 321.347 167.056 321.668C172.08 321.99 172.08 324.253 175.467 322.968C178.87 321.668 179.834 318.602 181.776 319.726C183.718 320.865 188.084 327.495 190.348 325.713C192.611 323.932 190.026 319.566 193.093 319.566C196.16 319.566 199.08 321.99 204.103 320.208C209.127 318.427 208.966 314.863 212.851 314.221C216.735 313.578 215.596 314.382 217.874 313.243C220.137 312.104 220.459 309.68 222.561 310.322C224.664 310.965 223.7 314.528 227.088 314.528C230.476 314.528 236.39 312.469 236.799 314.688C237.281 317.273 236.638 321.814 240.844 323.596C245.05 325.378 244.246 322.457 247.81 321.814C251.373 321.172 252.994 321.493 254.279 319.872C255.578 318.251 254.439 316.149 256.221 315.185C258.002 314.206 263.347 312.921 262.69 308.876C262.047 304.831 261.726 299.808 258.324 299.326C254.921 298.844 254.439 300.947 250.715 301.429C246.992 301.911 243.911 302.407 242.786 301.108C241.647 299.808 233.397 293.018 235.981 290.915C238.566 288.812 244.553 285.249 241.647 283.146C238.727 281.043 232.097 277.48 229.512 276.181C226.928 274.881 225.307 274.56 226.27 272.457C227.249 270.354 225.789 269.215 223.35 267.77C220.926 266.309 220.108 257.898 221.086 255.138C222.05 252.393 227.234 252.875 228.373 250.275C229.512 247.691 227.234 244.77 230.476 244.288C233.718 243.806 233.221 245.427 237.106 242.507C240.99 239.586 248.598 234.096 247.138 232.475C245.678 230.854 240.669 233.438 240.333 231.175C240.012 228.912 241.472 228.094 239.69 226.488C237.909 224.867 235.324 226.327 235.645 223.246C235.967 220.165 238.727 215.959 240.172 212.396C241.633 208.833 237.427 208.19 237.427 205.766C237.427 203.342 231.279 194.434 234.025 192.171C236.77 189.908 244.057 184.563 251.183 180.036C258.309 175.509 263.814 166.12 265.596 163.36C267.377 160.6 267.377 156.73 271.422 156.73C275.467 156.73 282.754 155.27 287.281 153.006C291.808 150.743 297.634 147.983 295.853 146.201C294.071 144.42 290.026 143.281 293.107 140.696C296.189 138.112 304.6 130.503 308.323 131.307C312.047 132.11 320.955 141.339 323.058 138.593C325.16 135.848 327.263 126.78 328.402 123.859C329.541 120.939 331.323 118.033 329.863 116.733C328.402 115.433 325 113.331 326.781 111.228C328.563 109.125 329.205 106.044 331.469 107.986C333.732 109.928 333.411 116.397 336.813 113.652C340.216 110.907 345.225 105.08 347.327 101.678C349.43 98.2752 351.212 90.9884 357.038 92.288C362.865 93.5877 360.601 97.7933 360.923 100.539C361.244 103.284 363.347 110.892 366.267 113.17C369.188 115.433 370.984 119.303 376.46 118.675C380.666 118.193 388.434 114.309 388.595 111.228C388.755 108.147 386.01 103.138 387.617 100.874C389.237 98.611 394.903 92.6239 397.809 89.2214C400.73 85.819 404.614 80.8102 408.338 80.8102C412.062 80.8102 410.441 83.3949 412.383 82.4312C414.325 81.4528 413.522 79.35 415.946 80.0071C418.37 80.6496 416.267 88.4183 419.67 89.3967C423.072 90.3751 422.59 87.2939 425.175 85.8336C427.76 84.3733 429.059 89.0754 432.301 89.236C435.543 89.3967 438.449 82.767 442.99 82.4312C447.532 82.0953 448.977 85.9942 451.562 85.0158C454.147 84.0375 452.701 80.3284 454.965 78.3862C457.228 76.444 456.746 74.1806 457.549 71.26C458.352 68.3395 460.017 60.8336 461.054 59.4172L461.127 59.461Z" fill="white"/>
<path d="M479.804 58.1621C477.292 57.6364 477.029 52.3501 479.804 53.1241C482.578 53.898 482.316 58.6732 479.804 58.1621Z" fill="white"/>
<path d="M741.194 247.062C738.828 248.245 741.369 254.962 744.494 254.101C747.619 253.239 743.282 246.026 741.194 247.062Z" fill="white"/>
<path d="M736.066 283.773C732.78 283.773 733.467 294.448 736.066 294.448C738.665 294.448 739.717 283.773 736.066 283.773Z" fill="white"/>
<path d="M94.8874 534.241C99.2244 534.884 101.356 534.563 102.014 538.126C102.656 541.689 103.313 546.055 100.393 545.412C97.4721 544.77 98.1292 540.068 95.2087 540.55C92.2881 541.032 88.0825 542.813 87.44 539.747C86.7975 536.68 89.3822 533.438 94.8874 534.241Z" fill="white"/>
<path d="M59.6087 550.919C56.3377 550.919 54.5854 547.195 56.6882 545.735C58.791 544.274 60.7331 544.596 62.1934 542.493C63.6537 540.39 62.6753 536.506 65.9171 534.885C69.1589 533.264 70.6046 531.482 74.1677 531.804C77.7308 532.125 79.3517 534.067 79.3517 536.827C79.3517 539.587 82.2722 544.917 80.6513 546.859C79.0304 548.801 78.0666 551.722 75.1461 550.422C72.2255 549.122 72.0649 546.698 69.8014 547.18C67.538 547.662 66.399 549.765 64.7781 549.926C63.1572 550.086 62.0328 550.904 59.5941 550.904L59.6087 550.919Z" fill="white"/>
<path d="M18.0061 325.115C13.4355 325.334 13.3187 319.289 17.0278 320.253C20.7515 321.231 21.394 324.94 18.0061 325.115Z" fill="white"/>
<path d="M16.703 316.369C13.6802 316.924 10.0733 308.761 14.6002 309.403C19.1271 310.046 21.0692 315.551 16.703 316.369Z" fill="white"/>
<path d="M7.97244 302.611C4.10271 302.903 -0.438752 299.865 0.0431391 297.923C0.525031 295.981 1.82468 295.339 3.92748 296.142C6.03028 296.945 7.81181 297.281 8.61497 296.142C9.41812 295.003 9.09686 292.418 11.8568 293.557C14.6021 294.696 13.799 299.062 12.0174 300.362C10.2359 301.662 10.0752 302.465 7.97244 302.625V302.611Z" fill="white"/>
<path d="M57.1722 350.524C52.8498 349.955 52.8059 346.961 56.5297 345.019C60.2534 343.077 61.8743 340.332 67.8614 340.814C73.8485 341.295 78.0541 341.953 78.2148 344.859C78.3754 347.779 76.4332 351.006 73.1914 350.364C69.9496 349.721 70.2709 345.676 67.0437 346.158C63.8018 346.64 59.5962 350.846 57.1722 350.524Z" fill="white"/>
<path d="M102.015 323.494C99.2694 321.595 95.7063 310.541 99.0941 311.023C102.497 311.505 109.783 319.77 109.287 322.836C108.805 325.918 104.103 324.939 102 323.479L102.015 323.494Z" fill="white"/>
<path d="M105.742 330.94C103.814 331.509 105.741 327.216 106.881 327.859C108.02 328.501 108.501 330.122 105.742 330.94Z" fill="white"/>
<path d="M98.1284 303.75C96.0694 303.341 94.4047 300.026 93.1051 298.727C91.8054 297.427 88.5782 297.427 88.7388 294.521C88.8995 291.601 91.82 290.798 91.6594 287.074C91.4988 283.35 90.8562 283.832 89.0747 281.569C87.2932 279.305 85.351 277.845 87.4538 275.742C89.5566 273.639 93.2803 275.1 93.6016 271.858C93.9228 268.616 94.9012 266.834 97.1646 265.228C99.4281 263.607 100.728 259.883 103.794 262.965C106.861 266.046 107.357 270.251 106.218 272.354C105.079 274.457 101.531 277.217 102.977 280.284C104.437 283.365 99.2528 284.168 96.9894 286.11C94.726 288.052 95.8504 288.855 99.0922 289.352C102.334 289.834 106.7 289.673 107.343 291.455C107.985 293.236 105.079 295.982 106.204 296.96C107.343 297.924 110.731 299.545 108.146 300.523C105.561 301.501 103.619 299.545 103.283 301.005C102.962 302.465 101.341 304.407 98.0992 303.75H98.1284Z" fill="white"/>
<path d="M273.917 150.129C271.931 148.567 276.502 137.994 280.547 139.936C284.592 141.879 277.801 153.21 273.917 150.129Z" fill="white"/>
<path d="M841.817 181.527C838.269 180.709 832.062 181.746 832.486 178.052C832.924 174.372 834.662 172.634 831.829 170.677C829.01 168.721 823.812 162.441 827.711 160.485C831.61 158.528 830.31 162.66 835.523 164.822C840.722 166.997 838.78 162.865 843.978 165.041C849.177 167.216 842.46 168.297 843.978 170.896C845.497 173.496 847.877 176.752 849.615 179.351C851.353 181.951 851.572 184.345 849.615 184.126C847.658 183.907 844.621 182.17 841.802 181.527H841.817Z" fill="white"/>
<path d="M459.281 479.903C457.529 479.757 456.901 475.741 458.887 476.238C460.873 476.734 461.559 480.093 459.281 479.903Z" fill="white"/>
<path d="M484.927 499.704C482.299 499.266 482.153 494.155 485.22 494.651C488.286 495.148 487.293 500.098 484.927 499.704Z" fill="white"/>
<path d="M477.403 507.636C476.118 507.505 476.22 504.964 477.608 505.358C478.995 505.752 479.389 507.84 477.403 507.636Z" fill="white"/>
<path d="M479.391 501.796C478.354 502.059 479.099 499.313 479.888 500.116C480.676 500.905 480.983 501.402 479.391 501.796Z" fill="white"/>
<path d="M429.829 629.773C433.144 627.787 438.065 632.694 435.67 634.563C433.275 636.418 427.171 631.38 429.829 629.773Z" fill="white"/>
<path d="M424.511 653.15C421.05 653.15 419.999 646.768 423.445 647.031C426.906 647.294 427.695 653.15 424.511 653.15Z" fill="white"/>
<path d="M426.106 661.124C422.397 661.46 421.856 657.138 425.04 656.875C428.223 656.612 429.026 660.862 426.106 661.124Z" fill="white"/>
<path d="M435.065 646.332C437.737 647.967 441.301 653.735 440.512 655.196C439.738 656.656 438.657 655.196 436.905 654.509C435.153 653.823 433.211 651.589 432.919 650.026C432.626 648.464 432.816 644.959 435.065 646.332Z" fill="white"/>
<path d="M745.195 95.2243C743.516 91.2962 738.945 87.5141 735.674 86.2728C734.973 86.01 733.586 85.1484 732.111 84.2284C726.752 80.9136 717.771 75.3645 709.652 77.3797C704.819 78.5772 698.89 81.2933 693.136 83.9364C687.193 86.6525 681.06 89.4708 676.416 90.4784C667.45 92.4206 648.773 93.4574 639.267 93.0047C630.651 92.6104 623.992 89.6607 619.582 87.7039L619.1 87.4995C614.427 85.4405 603.212 84.6665 596.291 85.3236C595.152 83.4253 592.888 81.6729 590.493 79.8476C589.544 79.1175 588.245 78.1245 587.471 77.3943C590.829 74.576 601.153 65.2594 597.605 60.4113C595.181 57.0965 591.413 47.7945 591.764 45.4435C593.21 44.7279 598.321 43.9978 601.446 43.5451C606.148 42.8588 609.112 42.4061 610.689 41.6467C612.66 40.6976 615.245 38.0253 618.969 34.0533C620.955 31.9359 622.999 29.7455 624.036 29.0299C626.986 26.9856 626.358 23.4371 625.934 21.086C625.818 20.4581 625.657 19.5089 625.672 19.3045L621.597 17.6836C621.101 18.9394 621.349 20.3559 621.597 21.8454C621.846 23.2473 622.152 24.985 621.51 25.4377C620.093 26.4161 618.078 28.5627 615.742 31.0597C613.376 33.586 610.134 37.0323 608.762 37.6894C607.696 38.2005 603.855 38.7554 600.774 39.2081C594.465 40.1135 590.508 40.756 588.756 42.1432C584.054 45.8962 592.991 61.2875 593.94 62.8646C594.042 64.8798 587.617 71.7869 583.747 74.7366C582.958 75.3353 582.52 76.1823 582.52 77.1315C582.52 79.2927 584.725 80.9866 587.777 83.3085C589.384 84.5351 592.377 86.8277 592.611 87.7185C592.552 89.0766 589.734 94.9177 587.588 99.3423C580.593 98.9626 566.224 106.746 548.423 116.88C542.202 120.414 536.828 123.481 534.098 124.605C528.665 126.854 520.926 128.869 512.734 131.001C507.185 132.447 501.46 133.936 496.393 135.543C485.938 138.843 472.737 143.078 463.274 146.582C457.316 148.787 442.48 150.788 431.63 152.248C426.855 152.891 422.751 153.446 419.948 153.927C415.377 154.716 409.799 159.477 404.396 164.062C400.482 167.406 394.539 172.458 392.641 171.991C392.465 171.947 392.29 171.582 392.232 171.422C391.852 170.502 391.545 167.975 391.239 165.303C390.436 158.454 389.238 148.116 384.215 141.194C380.9 136.623 377.22 136.857 375.307 137.397C369.554 139.033 364.997 147.458 364.705 151.387C364.589 152.978 365.041 154.643 365.465 156.264C365.99 158.221 366.531 160.25 365.815 161.375C365.26 162.236 363.815 162.908 361.624 163.302C356.82 164.179 351.884 163.069 347.094 162.017C341.794 160.835 336.318 159.623 331.002 161.083C324.329 162.923 317.1 171.787 310.734 179.614C307.433 183.659 304.323 187.499 302.045 189.339C299.635 191.296 295.547 192.844 291.604 194.348C284.784 196.947 277.746 199.62 278.593 205.285C278.885 207.213 279.776 209.768 280.812 212.733C283.207 219.567 286.493 228.942 282.039 231.162C273.511 235.426 261.143 247.663 258.572 256.468C256.659 263.025 258.368 283.089 259.23 291.69C254.484 290.42 245.167 288.93 236.61 293.311L238.61 297.21C245.532 293.661 254.221 294.523 260.062 296.509L260.12 296.626C262.442 300.539 263.654 303.854 263.756 306.483C263.932 311.287 263.026 321.728 262.749 324.809C262.413 328.504 258.718 348.495 257.755 350.495C255.973 353.139 232.346 370.545 229.542 372.37C225.687 374.882 227.25 397.356 227.264 397.575C227.308 398.772 225.41 403.562 224.49 405.869C223.686 407.87 223.248 409.009 223.044 409.768C222.168 410.659 218.634 412.411 217.261 413.083C216.546 413.433 215.947 413.725 215.582 413.93C214.706 414.412 214.224 415.346 214.326 416.31C214.501 417.785 215.348 418.778 222.358 421.479C225.848 422.823 229.805 424.166 231.616 424.678C234.361 425.451 242.349 425.67 251.008 425.831C253.111 425.875 254.849 425.904 255.886 425.948C258.368 426.05 260.836 430.635 261.595 433.76C262.471 437.397 268.327 444.42 270.605 446.363C271.657 448.173 271.817 458.6 270.576 462.528C270.225 463.638 270.401 464.821 271.072 465.843C274.27 470.676 290.83 472.224 291.531 472.297C293.283 472.458 299.154 476.298 303.87 479.394C311.391 484.315 319.174 489.412 324.27 490.244C325.015 490.361 325.862 490.419 326.797 490.419C331.689 490.419 338.931 488.9 345.736 487.177C345.43 488.93 344.568 491.354 343.969 493.033C342.845 496.202 341.867 498.933 342.159 500.992C342.582 503.971 347.81 510.936 349.387 513.01C355.754 521.289 357.944 522.093 359.069 522.093C359.215 522.093 359.346 522.093 359.463 522.063C360.733 521.917 363.742 520.603 370.809 517.42C375.117 515.478 381.63 512.542 382.944 512.323C384.551 512.06 388.552 510.542 394.933 508.089C400.103 506.103 406.528 503.62 408.309 503.343C412.632 502.642 422.372 495.34 422.708 489.616C422.941 485.41 427.337 471.217 430.257 467.434C430.725 466.836 431.206 465.96 431.732 464.864C433.747 464.382 435.368 464.017 436.493 463.798C450.453 461.024 455.827 455.227 457.477 452.861L457.9 452.262C460.032 449.225 465.465 441.471 468.166 439.003C469.962 438.915 473.248 438.097 480.593 435.63L481.206 435.425C481.411 435.352 481.557 435.323 481.659 435.294C481.747 435.411 481.834 435.542 481.922 435.644L482.17 435.995L485.704 433.41L485.485 433.103C484.346 431.526 483.061 430.197 479.819 431.278L479.191 431.482C471.802 433.979 469.115 434.549 468.239 434.637C467.626 433.848 466.677 431.906 465.771 429.935C466.253 429.862 466.735 429.788 467.202 429.715C471.335 429.088 474.898 428.533 477.731 427.54C484.726 425.072 495.751 412.528 494.802 406.541C494.042 401.707 495.999 365.127 497.693 359.505C499.504 353.46 523.408 316.296 529.045 313.58C532.973 311.696 540.669 308.585 547.459 305.855C552.001 304.029 555.914 302.452 557.929 301.547C558.849 301.138 560.207 300.481 561.843 299.678C568.122 296.626 581.148 290.288 586.434 290.288C586.478 290.288 586.507 290.288 586.551 290.288C589.092 290.332 592.333 291.062 595.765 291.821C601.475 293.107 607.374 294.421 612.135 293.165C619.129 291.325 632.126 290.434 634.068 291.121C637.091 292.274 646.042 292.289 651.635 288.842C655.534 286.448 658.163 284.491 659.696 282.885C664.851 277.452 677.789 241.106 679.643 234.637C682.491 224.678 692.654 193.837 698.51 187.996C702.716 183.79 705.008 176.46 707.243 169.377C708.893 164.091 710.47 159.111 712.631 155.855C718.078 147.677 732.126 128.11 737.032 122.02C740.814 117.348 742.392 111.258 743.662 106.366C744.217 104.22 744.699 102.38 745.254 101.065C745.998 99.2985 745.925 97.2687 745.049 95.2097L745.195 95.2243ZM262.909 257.739C264.895 250.904 275.804 239.281 284.127 235.133C292.027 231.176 288.012 219.713 285.076 211.331C284.157 208.688 283.28 206.205 283.047 204.687C282.725 202.511 288.581 200.277 293.283 198.495C296.598 197.225 300.001 195.925 302.746 194.29C303.111 194.976 303.505 195.735 303.929 196.538C317.816 223.072 332.915 251.08 339.545 257.709C343.356 261.521 350.687 270.122 357.784 278.445C365.815 287.864 373.394 296.757 376.548 299.561C381.221 303.723 396.364 323.261 404.177 333.41C400.949 332.607 396.364 331.512 389.837 329.964C380.856 327.832 371.554 325.641 368.239 324.634C367.933 324.546 337.267 315.361 331.542 315.244C330.593 315.215 329.483 315.273 328.257 315.317C323.993 315.478 318.166 315.697 314.676 313.068C310.076 309.608 297.051 305.796 286.201 302.876L285.135 302.584C282.506 301.868 277.877 299.692 273.409 297.575C270.123 296.027 266.765 294.435 263.917 293.296C262.939 283.936 261.259 263.419 262.909 257.753V257.739ZM325.103 485.965C320.926 485.279 312.866 480.007 306.397 475.773C299.051 470.968 294.758 468.223 292.057 467.989C284.551 467.303 276.329 465.2 274.957 463.638C276.096 459.505 276.899 445.822 273.613 443.135C271.759 441.617 266.546 435.177 265.976 432.797C265.071 429.044 261.858 421.874 256.207 421.64C255.141 421.596 253.359 421.553 251.213 421.523C245.678 421.421 235.369 421.217 232.93 420.53C230.024 419.713 224.402 417.697 221.014 416.223C225.22 414.076 227.089 412.732 227.396 410.965C227.483 410.542 228.14 408.892 228.681 407.563C230.579 402.817 231.908 399.298 231.762 397.327C231.441 393.092 231.28 378.533 232.375 375.89C235.471 373.685 260.12 355.971 261.77 352.569C263.26 349.488 266.969 328.197 267.232 325.276C267.597 321.231 268.429 311.302 268.254 306.38C268.166 303.854 267.349 301.299 266.443 299.167C268.108 299.926 269.831 300.729 271.54 301.547C276.402 303.84 281.002 306.015 283.996 306.833L285.062 307.125C290.626 308.629 307.536 313.185 312.048 316.588C316.779 320.151 323.511 319.903 328.432 319.713C329.557 319.669 330.593 319.625 331.469 319.64C335.135 319.713 356.528 325.671 366.983 328.839C370.43 329.891 379.79 332.111 388.844 334.243C397.24 336.228 407.696 338.711 408.85 339.193C410.295 340.025 423.671 350.656 424.956 352.131C425.949 353.328 428.636 358.571 430.053 363.521C431.601 368.909 456.937 421.012 458.47 423.874C458.747 424.385 459.2 425.422 459.711 426.605C456.09 427.291 452.322 428.211 448.613 429.628C440.465 432.738 434.77 446.655 430.622 456.818C429.994 458.351 429.381 459.841 428.826 461.141C416.969 464.003 395.649 469.566 380.476 473.538C370.766 476.079 363.084 478.08 361.829 478.343C360.938 478.533 359.171 479.044 356.718 479.745C348.482 482.096 331.338 486.988 325.146 485.98L325.103 485.965ZM418.487 489.397C418.327 492.288 410.952 498.538 407.769 499.049C405.695 499.385 400.774 501.24 393.517 504.029C389.121 505.723 383.645 507.826 382.404 508.03C380.637 508.308 376.212 510.264 369.159 513.462C365.684 515.025 361.055 517.113 359.507 517.639C356.586 515.638 347.109 503.021 346.642 500.407C346.496 499.414 347.503 496.596 348.233 494.537C349.329 491.456 350.38 488.492 350.365 486.038C353.155 485.279 355.725 484.549 357.871 483.936C360.149 483.278 361.96 482.767 362.705 482.607C364.063 482.315 371.393 480.402 381.542 477.759C395.167 474.196 413.771 469.347 425.935 466.339C422.459 472.268 418.721 485.294 418.487 489.397ZM464.501 436.71C461.814 439.514 458.149 444.581 454.483 449.794L454.06 450.393C452.994 451.897 448.555 457.023 435.806 459.549C435.31 459.651 434.726 459.768 434.054 459.914C434.244 459.447 434.434 458.979 434.638 458.483C438.055 450.13 443.765 436.155 450.132 433.717C453.87 432.3 457.74 431.409 461.463 430.723C462.705 433.512 463.639 435.425 464.486 436.71H464.501ZM476.46 423.436C474.007 424.298 470.634 424.824 466.72 425.422C465.873 425.554 465.012 425.685 464.136 425.831C463.362 424.035 462.763 422.619 462.325 421.801C460.704 418.763 435.602 367.026 434.258 362.309C432.813 357.242 429.936 351.284 428.344 349.342C426.972 347.677 414.428 337.66 411.463 335.659L409.127 332.622C401.227 322.356 384.77 300.992 379.483 296.29C376.563 293.691 368.721 284.505 361.142 275.612C354.002 267.23 346.598 258.556 342.67 254.614C335.617 247.56 315.436 209.024 307.828 194.509C307.258 193.428 306.747 192.45 306.294 191.588C308.616 189.368 311.274 186.127 314.267 182.447C319.933 175.496 326.972 166.836 332.302 165.376C336.566 164.208 341.283 165.245 346.277 166.354C351.49 167.508 356.864 168.705 362.544 167.683C366.063 167.041 368.385 165.77 369.641 163.784C371.379 161.039 370.517 157.797 369.816 155.183C369.48 153.927 369.13 152.613 369.188 151.752C369.364 149.211 373.073 142.669 376.621 141.661C377.205 141.486 378.768 141.048 380.768 143.822C385.12 149.824 386.245 159.477 386.989 165.873C387.325 168.705 387.573 170.867 388.011 172.371C385.368 182.826 390.508 229.993 409.959 238.653C421.247 243.691 428.373 242.8 433.09 242.216C436.653 241.778 438.157 241.661 439.793 243.223C441.647 245.005 442.976 246.947 444.393 249.006C447.109 252.963 449.913 257.052 456.367 259.798C459.317 261.053 461.843 261.93 463.873 262.616C468.429 264.193 470.342 264.909 471.729 267.128C472.196 267.873 472.868 268.895 473.671 270.107C477.293 275.612 484.025 285.878 485.806 291.602C486.639 294.26 487.69 297.925 488.8 301.795C490.713 308.425 492.874 315.96 494.48 320.341C496.729 326.474 494.787 353.606 493.662 358.395C491.706 365.273 489.939 402.613 490.669 407.256C491.18 410.542 482.214 421.406 476.475 423.436H476.46ZM499.255 347.589C500.029 337.338 500.38 323.743 498.584 318.837C497.036 314.602 494.889 307.154 493.005 300.598C491.881 296.699 490.83 293.004 489.983 290.303C488.011 283.98 481.323 273.787 477.322 267.698C476.548 266.515 475.891 265.507 475.424 264.777C473.146 261.185 469.845 260.046 465.289 258.469C463.23 257.753 460.879 256.95 458.076 255.753C452.789 253.504 450.57 250.262 448 246.509C446.525 244.362 445.006 242.128 442.83 240.04C439.632 236.973 436.186 237.397 432.55 237.85C428.067 238.405 421.919 239.164 411.741 234.622C396.262 227.715 390.684 189.237 391.779 176.284C395.839 177.204 400.92 172.882 407.331 167.42C412.048 163.405 417.392 158.849 420.78 158.264C423.496 157.797 427.57 157.242 432.302 156.614C443.955 155.037 458.47 153.095 464.88 150.715C474.255 147.239 487.398 143.034 497.795 139.748C502.745 138.186 508.426 136.696 513.917 135.265C522.255 133.089 530.14 131.03 535.85 128.679C538.843 127.438 544.334 124.313 550.672 120.706C560.66 115.011 578.198 105.037 585.543 103.767C582.783 109.535 580.374 114.996 580.14 118.048C579.979 120.166 578.943 124.576 577.862 129.234C575.818 138.01 573.277 148.919 573.861 154.993C574.649 163.186 573.262 175.656 571.568 183.235C570.02 190.172 566.822 208.878 567.45 219.304C567.961 227.817 570.59 242.931 571.86 250.204C572.109 251.635 572.298 252.73 572.401 253.372C572.722 255.388 569.758 261.01 567.786 264.719C566.793 266.573 565.873 268.34 565.187 269.859C563.843 272.838 549.883 283.878 542.392 289.806C536.945 294.114 534.302 296.217 533.499 297.166C531.79 299.167 527.862 304.307 526.373 310.236C520.152 314.602 506.863 334.593 499.241 347.589H499.255ZM741.355 99.3861C740.683 100.992 740.157 102.993 739.559 105.286C738.39 109.769 736.945 115.347 733.761 119.29C728.796 125.437 714.617 145.195 709.126 153.446C706.615 157.213 704.965 162.499 703.212 168.078C701.139 174.663 699.007 181.468 695.56 184.915C687.5 192.975 675.701 233.045 675.584 233.454C673.291 241.471 660.645 275.729 656.673 279.891C655.417 281.205 653.008 282.972 649.489 285.133C645.181 287.776 637.675 287.762 635.777 287.046C632.476 285.791 618.078 287.134 611.171 288.945C607.433 289.923 602.059 288.726 596.875 287.557C593.224 286.74 589.763 285.966 586.784 285.907C580.972 285.849 569.977 290.931 560.09 295.735C558.499 296.509 557.185 297.151 556.294 297.546C554.366 298.407 550.482 299.984 545.984 301.795C541.224 303.708 536.011 305.811 531.922 307.563C533.499 304.132 535.704 301.284 536.828 299.984C537.412 299.313 541.311 296.217 545.093 293.223C557.71 283.235 567.509 275.291 569.159 271.64C569.787 270.253 570.692 268.559 571.641 266.748C574.941 260.528 577.234 255.884 576.708 252.657C576.606 252 576.416 250.89 576.154 249.43C574.912 242.245 572.313 227.277 571.802 219.012C571.189 209.053 574.299 190.916 575.818 184.17C577.293 177.613 579.133 164.31 578.198 154.555C577.687 149.196 580.14 138.668 582.097 130.213C583.265 125.175 584.287 120.823 584.477 118.37C584.711 115.42 588.434 107.724 591.443 101.547C594.217 95.823 596.013 92.0847 596.714 89.6461C602.847 89.0766 613.478 89.7629 617.333 91.4714L617.801 91.6758C622.503 93.764 629.614 96.9036 639.062 97.3417C649.021 97.7944 667.903 96.7576 677.336 94.7132C682.447 93.6034 688.814 90.6975 694.962 87.8791C700.525 85.3236 706.264 82.6951 710.703 81.5999C717.041 80.0374 725.029 84.9732 729.804 87.9229C731.6 89.0327 733.017 89.9089 734.112 90.3324C736.229 91.1355 739.938 94.0415 741.165 96.9182C741.574 97.882 741.647 98.6852 741.355 99.3569V99.3861Z" fill="#EAE5DF"/>
<path d="M194.828 516.721C194.828 521.759 198.917 525.847 203.955 525.847C208.993 525.847 213.082 521.759 213.082 516.721C213.082 511.683 208.993 507.594 203.955 507.594C198.917 507.594 194.828 511.683 194.828 516.721Z" fill="#3E441D"/>
<path d="M446.125 451.42C446.125 456.458 450.214 460.547 455.252 460.547C460.29 460.547 464.378 456.458 464.378 451.42C464.378 446.382 460.29 442.293 455.252 442.293C450.214 442.293 446.125 446.382 446.125 451.42Z" fill="#3E441D"/>
<path d="M382.805 494.103C382.805 507.343 393.55 518.088 406.79 518.088C420.03 518.088 430.776 507.343 430.776 494.103C430.776 480.863 420.03 470.117 406.79 470.117C393.55 470.117 382.805 480.863 382.805 494.103Z" fill="#3E441D"/>
<g clip-path="url(#clip1_20635_20379)">
<path d="M394.312 502.735H411.582" stroke="white" stroke-width="1.43913" stroke-linecap="round" stroke-linejoin="round"/>
<path d="M401.994 490.804L398.474 487.385C398.354 487.277 398.264 487.141 398.21 486.989C398.157 486.837 398.143 486.674 398.169 486.515C398.196 486.356 398.262 486.207 398.361 486.08C398.46 485.953 398.59 485.853 398.738 485.79L399.595 485.466L406.495 488.005L413.072 484.077C413.861 483.613 414.791 483.446 415.693 483.607C416.594 483.768 417.409 484.246 417.989 484.955L420.223 487.821L402.544 498.375C401.83 498.791 401.001 498.965 400.18 498.872C399.359 498.778 398.59 498.423 397.987 497.857L393.663 493.621C393.546 493.512 393.459 493.376 393.409 493.225C393.358 493.073 393.346 492.912 393.374 492.755C393.401 492.598 393.468 492.45 393.567 492.325C393.666 492.2 393.794 492.102 393.941 492.039L394.319 491.855L398.131 493.141L401.994 490.804Z" stroke="white" stroke-width="1.43913" stroke-linecap="round" stroke-linejoin="round"/>
</g>
<path d="M230.172 291.588C230.172 296.626 234.261 300.714 239.299 300.714C244.337 300.714 248.425 296.626 248.425 291.588C248.425 286.55 244.337 282.461 239.299 282.461C234.261 282.461 230.172 286.55 230.172 291.588Z" fill="#3E441D"/>
<path d="M642.812 281.615C642.812 286.653 646.901 290.742 651.939 290.742C656.977 290.742 661.066 286.653 661.066 281.615C661.066 276.577 656.977 272.488 651.939 272.488C646.901 272.488 642.812 276.577 642.812 281.615Z" fill="#3E441D"/>
<path d="M400.945 336.681C400.945 341.719 405.034 345.808 410.072 345.808C415.11 345.808 419.199 341.719 419.199 336.681C419.199 331.643 415.11 327.555 410.072 327.555C405.034 327.555 400.945 331.643 400.945 336.681Z" fill="#3E441D"/>
<path d="M740.578 139.041C740.578 144.079 744.667 148.167 749.705 148.167C754.743 148.167 758.832 144.079 758.832 139.041C758.832 134.003 754.743 129.914 749.705 129.914C744.667 129.914 740.578 134.003 740.578 139.041Z" fill="#3E441D"/>
<path d="M711.891 225.478C711.891 253.002 734.269 275.381 761.794 275.381C789.318 275.381 811.697 253.002 811.697 225.478C811.697 197.953 789.438 175.574 761.794 175.574C734.149 175.574 711.891 197.953 711.891 225.478Z" fill="#3E441D"/>
<g clip-path="url(#clip2_20635_20379)">
<path d="M725.963 212.992H723.406V220.484H725.963V212.992Z" fill="white"/>
<path d="M725.963 225.009H723.406V230.157H725.963V225.009Z" fill="white"/>
<path d="M733.487 221.574C735.379 221.038 736.928 219.901 736.928 217.905C736.928 213.737 731.185 213.103 729.195 213.009V230.145C731.571 230.065 737.269 229.453 737.269 225.158C737.269 225.158 737.424 222.497 733.486 221.574H733.487Z" fill="white"/>
<path d="M752.052 226.95H744.986V213.185C744.986 213.1 744.884 212.992 744.732 212.992H741.388C741.236 212.992 741.109 213.099 741.109 213.185V229.952C741.109 230.038 741.236 230.145 741.388 230.145H752.051C752.229 230.145 752.329 230.038 752.329 229.952V227.165C752.329 227.058 752.228 226.95 752.051 226.95H752.052Z" fill="white"/>
<path d="M756.164 213.185V229.952C756.164 230.038 756.291 230.145 756.442 230.145H768.27V226.95H760.038V223.091H767.991C768.143 223.091 768.269 222.984 768.269 222.898V220.175C768.269 220.068 768.142 219.981 767.991 219.981H760.038V216.101H768.27V212.992H756.442C756.29 212.992 756.164 213.099 756.164 213.185Z" fill="white"/>
<path d="M782.602 221.25C782.246 221.009 781.846 220.799 781.405 220.625C779.961 220.047 778.542 220.047 778.417 220.047C778.263 220.047 778.111 220.037 777.962 220.019C777.035 219.847 776.077 219.241 775.892 218.316C775.887 218.265 775.884 218.213 775.884 218.16C775.884 216.787 777.024 216.079 778.417 216.079C779.734 216.079 780.847 216.658 780.898 217.881C780.898 217.945 781.025 218.053 781.176 218.053H784.342C784.52 218.053 784.646 217.946 784.62 217.881C784.57 214.965 781.885 212.992 778.416 212.992C778.407 212.992 778.399 212.992 778.39 212.992C775.148 212.992 772.109 214.771 772.109 217.988C772.109 218.024 772.11 218.059 772.111 218.095C772.111 218.116 772.109 218.137 772.109 218.16C772.109 219.736 772.854 221.018 774.205 221.888C774.561 222.129 774.961 222.338 775.402 222.512C776.845 223.091 778.264 223.091 778.39 223.091C778.543 223.091 778.696 223.101 778.845 223.118C779.772 223.291 780.729 223.897 780.915 224.822C780.92 224.873 780.923 224.925 780.923 224.978C780.923 226.35 779.783 227.058 778.39 227.058C777.073 227.058 775.959 226.479 775.909 225.257C775.909 225.193 775.782 225.085 775.63 225.085H772.465C772.287 225.085 772.161 225.192 772.186 225.257C772.237 228.173 774.922 230.145 778.391 230.145C778.4 230.145 778.408 230.145 778.417 230.145C781.658 230.145 784.697 228.366 784.697 225.15C784.697 225.114 784.696 225.079 784.695 225.043C784.695 225.022 784.697 225 784.697 224.978C784.697 223.402 783.953 222.12 782.602 221.25Z" fill="white"/>
<path d="M801.119 224.978C801.119 223.402 800.375 222.12 799.024 221.25C798.668 221.009 798.268 220.799 797.827 220.625C796.383 220.047 794.964 220.047 794.838 220.047C794.685 220.047 794.533 220.037 794.384 220.019C793.457 219.847 792.499 219.241 792.314 218.316C792.309 218.265 792.306 218.213 792.306 218.16C792.306 216.787 793.446 216.079 794.838 216.079C796.156 216.079 797.269 216.658 797.32 217.881C797.32 217.945 797.447 218.053 797.598 218.053H800.764C800.942 218.053 801.068 217.946 801.042 217.881C800.991 214.965 798.307 212.992 794.837 212.992C794.829 212.992 794.821 212.992 794.812 212.992C791.57 212.992 788.531 214.771 788.531 217.988C788.531 218.024 788.532 218.059 788.533 218.095C788.533 218.116 788.531 218.137 788.531 218.16C788.531 219.736 789.276 221.018 790.626 221.888C790.983 222.129 791.383 222.338 791.824 222.512C793.267 223.091 794.686 223.091 794.812 223.091C794.965 223.091 795.118 223.101 795.267 223.118C796.194 223.291 797.151 223.897 797.337 224.822C797.342 224.873 797.345 224.925 797.345 224.978C797.345 226.35 796.205 227.058 794.812 227.058C793.495 227.058 792.381 226.479 792.33 225.257C792.33 225.193 792.204 225.085 792.052 225.085H788.886C788.709 225.085 788.583 225.192 788.608 225.257C788.659 228.173 791.344 230.145 794.813 230.145C794.822 230.145 794.83 230.145 794.838 230.145C798.08 230.145 801.119 228.366 801.119 225.15C801.119 225.114 801.118 225.079 801.117 225.043C801.117 225.022 801.119 225 801.119 224.978Z" fill="white"/>
<path d="M736.382 240.726C736.382 240.752 736.355 240.764 736.301 240.764H735.371C735.314 240.764 735.286 240.753 735.286 240.73C735.286 240.708 735.352 240.693 735.484 240.684C735.554 240.678 735.595 240.666 735.607 240.648C735.618 240.629 735.624 240.563 735.624 240.451V239.21H734.335V240.415C734.335 240.543 734.345 240.618 734.366 240.641C734.386 240.664 734.453 240.679 734.567 240.688C734.641 240.694 734.678 240.706 734.678 240.726C734.678 240.752 734.65 240.764 734.593 240.764H733.664C733.606 240.764 733.578 240.753 733.578 240.73C733.578 240.708 733.606 240.694 733.664 240.688C733.701 240.685 733.739 240.682 733.779 240.679C733.842 240.673 733.883 240.659 733.899 240.636C733.908 240.622 733.912 240.542 733.912 240.398V238.152C733.912 238.024 733.905 237.949 733.892 237.927C733.88 237.904 733.835 237.891 733.758 237.889C733.669 237.883 733.617 237.878 733.602 237.875C733.586 237.872 733.578 237.861 733.578 237.839C733.578 237.815 733.597 237.803 733.634 237.803C733.644 237.803 733.67 237.804 733.706 237.808C733.777 237.814 733.946 237.817 734.211 237.817C734.357 237.817 734.458 237.815 734.516 237.811C734.535 237.806 734.561 237.804 734.593 237.804C734.644 237.804 734.67 237.819 734.67 237.847C734.67 237.872 734.623 237.885 734.532 237.885C734.44 237.885 734.383 237.896 734.365 237.917C734.346 237.938 734.337 238.006 734.337 238.12V239.103H735.626V238.184C735.626 238.033 735.614 237.944 735.591 237.917C735.569 237.89 735.489 237.877 735.352 237.881C735.309 237.881 735.288 237.869 735.288 237.842C735.288 237.816 735.312 237.803 735.36 237.803H736.293C736.353 237.803 736.383 237.816 736.383 237.842C736.383 237.869 736.32 237.882 736.194 237.885C736.157 237.885 736.13 237.888 736.113 237.894C736.085 237.903 736.068 237.918 736.06 237.94C736.052 237.963 736.049 238.03 736.049 238.141V240.408C736.049 240.544 736.056 240.624 736.071 240.647C736.099 240.678 736.181 240.694 736.315 240.694C736.36 240.688 736.383 240.699 736.383 240.728L736.382 240.726Z" fill="white"/>
<path d="M742.406 239.302C742.406 239.726 742.278 240.083 742.023 240.376C741.767 240.669 741.454 240.815 741.083 240.815C740.689 240.815 740.358 240.667 740.09 240.369C739.821 240.073 739.688 239.707 739.688 239.272C739.688 238.837 739.816 238.466 740.075 238.183C740.334 237.901 740.663 237.759 741.066 237.759C741.446 237.759 741.764 237.907 742.021 238.202C742.278 238.497 742.406 238.864 742.406 239.301V239.302ZM741.927 239.325C741.927 238.803 741.82 238.397 741.606 238.107C741.471 237.924 741.285 237.833 741.045 237.833C740.805 237.833 740.64 237.903 740.514 238.043C740.283 238.299 740.168 238.717 740.168 239.294C740.168 239.753 740.249 240.109 740.41 240.363C740.571 240.616 740.797 240.742 741.088 240.742C741.359 240.742 741.563 240.623 741.7 240.384C741.851 240.119 741.926 239.765 741.926 239.325H741.927Z" fill="white"/>
<path d="M748.028 238.566C748.028 238.603 748.011 238.621 747.977 238.621C747.943 238.621 747.918 238.584 747.904 238.511C747.898 238.459 747.892 238.408 747.886 238.357C747.867 238.254 747.833 238.168 747.788 238.097C747.727 238.003 747.629 237.944 747.492 237.918C747.403 237.901 747.332 237.894 747.278 237.897C747.144 237.901 747.063 237.904 747.034 237.906V240.478C747.034 240.581 747.062 240.644 747.115 240.671C747.144 240.684 747.224 240.693 747.355 240.696C747.389 240.699 747.407 240.71 747.407 240.732C747.407 240.756 747.385 240.768 747.339 240.768C747.316 240.768 747.296 240.766 747.279 240.763C747.108 240.757 746.986 240.754 746.915 240.754C746.82 240.754 746.733 240.756 746.65 240.76C746.567 240.764 746.461 240.767 746.333 240.767C746.267 240.767 746.234 240.755 746.234 240.733C746.234 240.706 746.295 240.693 746.418 240.69C746.507 240.69 746.564 240.671 746.589 240.635C746.603 240.612 746.611 240.554 746.611 240.46V237.905C746.328 237.908 746.153 237.921 746.085 237.947C745.905 238.012 745.799 238.187 745.768 238.471C745.759 238.556 745.739 238.599 745.708 238.599C745.674 238.599 745.656 238.569 745.656 238.51C745.656 238.479 745.657 238.448 745.661 238.416L745.67 238.317C745.679 238.187 745.691 238.014 745.709 237.802H745.902L746.776 237.814C746.879 237.817 747.038 237.817 747.256 237.814L747.966 237.802C747.971 237.961 747.991 238.197 748.022 238.509C748.022 238.517 748.023 238.528 748.027 238.541C748.03 238.553 748.031 238.561 748.031 238.564L748.028 238.566Z" fill="white"/>
<path d="M753.49 240.078C753.49 240.09 753.487 240.159 753.481 240.287C753.475 240.415 753.472 240.536 753.472 240.653V240.794C753.193 240.776 752.639 240.769 751.811 240.769H751.276C751.223 240.769 751.195 240.757 751.195 240.734C751.195 240.719 751.204 240.709 751.222 240.706C751.23 240.706 751.284 240.702 751.384 240.695C751.458 240.689 751.503 240.673 751.518 240.648C751.534 240.623 751.542 240.556 751.542 240.447V238.045C751.542 237.963 751.529 237.913 751.506 237.898C751.482 237.882 751.404 237.875 751.272 237.875C751.227 237.875 751.204 237.863 751.204 237.839C751.204 237.814 751.235 237.803 751.299 237.803H753.114C753.2 237.803 753.278 237.797 753.349 237.785C753.355 237.908 753.368 238.076 753.388 238.292L753.406 238.475C753.409 238.489 753.411 238.508 753.411 238.53C753.411 238.558 753.397 238.573 753.372 238.573C753.34 238.573 753.318 238.537 753.303 238.466C753.25 238.209 753.161 238.046 753.038 237.977C752.947 237.926 752.707 237.901 752.319 237.901H751.967V239.153H752.071C752.39 239.153 752.585 239.129 752.655 239.081C752.725 239.032 752.772 238.892 752.799 238.659C752.805 238.6 752.82 238.57 752.846 238.57C752.877 238.57 752.892 238.595 752.892 238.647C752.892 238.698 752.889 238.773 752.884 238.873C752.878 238.973 752.875 239.048 752.875 239.098C752.875 239.402 752.88 239.611 752.888 239.725C752.89 239.753 752.891 239.777 752.891 239.797C752.891 239.834 752.876 239.853 752.845 239.853C752.825 239.853 752.811 239.841 752.805 239.817C752.798 239.793 752.785 239.714 752.768 239.58C752.746 239.412 752.676 239.308 752.56 239.268C752.509 239.252 752.375 239.243 752.159 239.243H751.967V240.67C752.595 240.67 752.963 240.658 753.072 240.633C753.26 240.591 753.368 240.411 753.393 240.095C753.399 240.025 753.417 239.99 753.449 239.99C753.477 239.99 753.492 240.02 753.492 240.079L753.49 240.078Z" fill="white"/>
<path d="M758.944 240.427C758.944 240.501 758.939 240.624 758.93 240.794H758.883C758.866 240.794 758.825 240.791 758.759 240.785C758.694 240.779 758.62 240.776 758.537 240.776L756.76 240.764C756.711 240.764 756.688 240.751 756.688 240.725C756.688 240.705 756.726 240.693 756.804 240.687C756.912 240.681 756.977 240.669 756.998 240.651C757.019 240.632 757.03 240.579 757.03 240.491V238.097C757.03 237.992 757.019 237.931 756.998 237.914C756.976 237.897 756.9 237.889 756.769 237.889C756.715 237.889 756.688 237.873 756.688 237.842C756.688 237.816 756.706 237.803 756.74 237.803H756.778C756.873 237.812 757.059 237.816 757.339 237.816C757.365 237.816 757.415 237.814 757.489 237.81C757.563 237.805 757.624 237.803 757.672 237.803H757.719C757.771 237.803 757.796 237.818 757.796 237.846C757.796 237.864 757.788 237.874 757.773 237.878C757.757 237.883 757.707 237.886 757.624 237.889C757.541 237.892 757.493 237.905 757.477 237.929C757.461 237.953 757.454 238.027 757.454 238.152V240.665C757.531 240.668 757.638 240.67 757.775 240.67C758.108 240.67 758.345 240.653 758.481 240.619C758.618 240.585 758.711 240.521 758.759 240.427C758.808 240.332 758.836 240.207 758.845 240.048C758.848 240.011 758.864 239.992 758.895 239.992C758.931 239.992 758.947 240.014 758.945 240.057V240.427L758.944 240.427Z" fill="white"/>
<path d="M767.178 240.732C767.178 240.756 767.159 240.768 767.122 240.768C767.102 240.768 767.083 240.766 767.067 240.763C766.896 240.754 766.748 240.75 766.625 240.75C766.502 240.75 766.309 240.755 766.06 240.763C765.977 240.766 765.917 240.768 765.877 240.768C765.834 240.768 765.812 240.755 765.812 240.729C765.812 240.716 765.82 240.707 765.836 240.704C765.852 240.701 765.906 240.698 766.001 240.695C766.09 240.678 766.14 240.652 766.155 240.616C766.17 240.581 766.177 240.467 766.177 240.274V238.067C766.174 238.016 766.172 237.991 766.172 237.995C766.172 237.924 766.1 237.889 765.958 237.889C765.878 237.889 765.838 237.879 765.838 237.858C765.838 237.838 765.844 237.827 765.855 237.824C765.867 237.822 765.904 237.82 765.967 237.82C765.938 237.82 765.989 237.82 766.121 237.82H767.093C767.13 237.82 767.148 237.83 767.148 237.852C767.148 237.867 767.143 237.878 767.129 237.882C767.116 237.887 767.072 237.89 766.999 237.891C766.91 237.897 766.856 237.916 766.836 237.947L766.824 238.027V240.431C766.824 240.553 766.837 240.625 766.864 240.648C766.891 240.67 766.983 240.686 767.14 240.694C767.165 240.697 767.178 240.71 767.178 240.73V240.732Z" fill="white"/>
<path d="M772.673 239.995C772.673 240.171 772.619 240.323 772.51 240.45C772.402 240.576 772.252 240.662 772.061 240.705C771.91 240.739 771.768 240.759 771.633 240.765C771.498 240.771 771.105 240.774 770.451 240.774C770.359 240.774 770.306 240.773 770.288 240.77C770.27 240.767 770.263 240.757 770.263 240.74C770.263 240.714 770.309 240.702 770.401 240.702C770.494 240.702 770.552 240.688 770.575 240.661C770.597 240.634 770.609 240.568 770.609 240.463V238.022C770.609 237.94 770.543 237.897 770.41 237.894C770.309 237.891 770.258 237.88 770.258 237.858C770.258 237.834 770.289 237.822 770.352 237.822H771.556C772.215 237.822 772.544 238.048 772.544 238.497C772.544 238.87 772.298 239.101 771.809 239.19L771.8 239.207C772.088 239.267 772.288 239.342 772.399 239.433C772.581 239.585 772.673 239.772 772.673 239.998V239.995ZM771.987 239.976C771.987 239.576 771.873 239.343 771.645 239.278C771.554 239.253 771.424 239.239 771.255 239.239V239.487C771.255 239.558 771.252 239.659 771.246 239.789C771.243 239.855 771.242 239.976 771.242 240.155C771.242 240.462 771.251 240.625 771.268 240.645C771.29 240.676 771.355 240.692 771.461 240.692C771.812 240.692 771.987 240.453 771.987 239.976ZM771.906 238.519C771.906 238.107 771.78 237.901 771.528 237.901C771.439 237.901 771.379 237.906 771.348 237.914C771.286 237.933 771.255 237.978 771.255 238.046V239.17C771.504 239.17 771.675 239.126 771.768 239.038C771.86 238.95 771.906 238.777 771.906 238.519Z" fill="white"/>
<path d="M777.248 240.732C777.248 240.756 777.23 240.768 777.192 240.768C777.172 240.768 777.153 240.766 777.137 240.763C776.966 240.754 776.819 240.75 776.696 240.75C776.573 240.75 776.38 240.755 776.131 240.763C776.048 240.766 775.987 240.768 775.947 240.768C775.904 240.768 775.883 240.755 775.883 240.729C775.883 240.716 775.891 240.707 775.906 240.704C775.922 240.701 775.976 240.698 776.071 240.695C776.16 240.678 776.211 240.652 776.225 240.616C776.24 240.581 776.247 240.467 776.247 240.274V238.067C776.244 238.016 776.242 237.991 776.242 237.995C776.242 237.924 776.171 237.889 776.028 237.889C775.948 237.889 775.908 237.879 775.908 237.858C775.908 237.838 775.914 237.827 775.926 237.824C775.937 237.822 775.975 237.82 776.037 237.82C776.009 237.82 776.059 237.82 776.191 237.82H777.163C777.2 237.82 777.219 237.83 777.219 237.852C777.219 237.867 777.213 237.878 777.199 237.882C777.187 237.887 777.143 237.89 777.069 237.891C776.981 237.897 776.926 237.916 776.907 237.947L776.894 238.027V240.431C776.894 240.553 776.907 240.625 776.934 240.648C776.961 240.67 777.053 240.686 777.21 240.694C777.235 240.697 777.248 240.71 777.248 240.73V240.732Z" fill="white"/>
<path d="M782.631 239.856C782.631 239.868 782.616 239.968 782.584 240.159C782.562 240.301 782.533 240.506 782.498 240.772H780.798C780.71 240.772 780.635 240.774 780.572 240.777C780.489 240.782 780.414 240.785 780.345 240.785C780.308 240.785 780.289 240.775 780.289 240.755C780.289 240.743 780.295 240.729 780.307 240.712C780.364 240.628 780.474 240.43 780.636 240.124L781.544 238.454C781.681 238.21 781.77 238.037 781.813 237.935C781.745 237.929 781.616 237.926 781.428 237.926C781.162 237.926 780.966 237.981 780.838 238.092C780.694 238.217 780.588 238.38 780.516 238.581C780.499 238.633 780.479 238.658 780.457 238.658C780.434 238.658 780.423 238.645 780.423 238.62C780.423 238.603 780.428 238.584 780.435 238.565C780.458 238.457 780.512 238.203 780.594 237.802C780.748 237.822 781.1 237.833 781.651 237.833C781.851 237.833 782.047 237.826 782.238 237.813C782.333 237.806 782.392 237.803 782.417 237.803C782.46 237.803 782.498 237.804 782.534 237.808C782.52 237.874 782.462 238 782.364 238.184C782.232 238.416 782.036 238.769 781.775 239.24C781.741 239.302 781.482 239.78 780.997 240.672C781.324 240.672 781.512 240.671 781.557 240.667C781.803 240.659 781.987 240.629 782.113 240.578C782.31 240.498 782.454 240.264 782.545 239.875C782.554 239.832 782.572 239.811 782.597 239.811C782.619 239.811 782.631 239.826 782.631 239.857V239.856Z" fill="white"/>
<path d="M788.569 240.722C788.569 240.744 788.559 240.758 788.537 240.762C788.516 240.767 788.461 240.769 788.372 240.769C788.35 240.769 788.285 240.767 788.179 240.764C787.968 240.758 787.822 240.755 787.743 240.755C787.648 240.755 787.566 240.756 787.495 240.759C787.351 240.765 787.255 240.768 787.203 240.768C787.126 240.768 787.088 240.753 787.088 240.725C787.088 240.697 787.169 240.681 787.332 240.678C787.372 240.678 787.402 240.675 787.422 240.67C787.467 240.664 787.49 240.647 787.49 240.618C787.49 240.605 787.472 240.544 787.438 240.44L787.348 240.163C787.331 240.101 787.295 239.985 787.237 239.818H786.826C786.706 239.815 786.579 239.817 786.445 239.823C786.419 239.88 786.371 240.007 786.299 240.206L786.205 240.483C786.19 240.526 786.183 240.56 786.183 240.585C786.183 240.634 786.214 240.665 786.278 240.679C786.292 240.682 786.362 240.688 786.488 240.697C786.528 240.7 786.547 240.711 786.547 240.733C786.547 240.757 786.521 240.769 786.47 240.769H785.708C785.668 240.769 785.648 240.754 785.648 240.726C785.648 240.709 785.692 240.698 785.781 240.692C785.895 240.686 785.968 240.665 786 240.628C786.031 240.591 786.083 240.472 786.154 240.271C786.208 240.128 786.287 239.918 786.389 239.64L786.907 238.221C786.933 238.159 786.969 238.061 787.015 237.927C787.046 237.831 787.07 237.782 787.088 237.782C787.105 237.782 787.137 237.849 787.183 237.979C787.239 238.147 787.491 238.808 787.936 239.964C787.994 240.111 788.05 240.262 788.108 240.415C788.156 240.546 788.204 240.625 788.253 240.654C788.29 240.676 788.379 240.687 788.519 240.684C788.553 240.684 788.569 240.697 788.569 240.723V240.722ZM787.208 239.725C787.205 239.716 787.195 239.689 787.178 239.644C787.063 239.315 786.981 239.084 786.928 238.951C786.914 238.914 786.896 238.859 786.87 238.788L786.842 238.712C786.791 238.834 786.728 239.003 786.654 239.219C786.572 239.46 786.511 239.63 786.474 239.726H787.206L787.208 239.725Z" fill="white"/>
</g>
<path d="M669.601 308.523C667.675 308.523 665.785 307.875 664.777 306.939L665.443 305.535C666.379 306.381 667.981 306.993 669.601 306.993C671.779 306.993 672.715 306.147 672.715 305.049C672.715 301.971 665.083 303.915 665.083 299.235C665.083 297.291 666.595 295.635 669.907 295.635C671.383 295.635 672.913 296.031 673.957 296.751L673.363 298.191C672.265 297.489 671.023 297.165 669.907 297.165C667.765 297.165 666.847 298.065 666.847 299.163C666.847 302.241 674.479 300.315 674.479 304.941C674.479 306.867 672.931 308.523 669.601 308.523ZM680.331 298.749C682.941 298.749 684.417 300.009 684.417 302.619V308.379H682.779V307.119C682.203 307.983 681.141 308.487 679.647 308.487C677.487 308.487 676.119 307.335 676.119 305.679C676.119 304.149 677.109 302.889 679.953 302.889H682.689V302.547C682.689 301.089 681.843 300.243 680.133 300.243C678.999 300.243 677.847 300.639 677.109 301.269L676.389 299.973C677.379 299.181 678.801 298.749 680.331 298.749ZM679.935 307.155C681.231 307.155 682.257 306.561 682.689 305.463V304.131H680.025C678.315 304.131 677.829 304.797 677.829 305.607C677.829 306.561 678.621 307.155 679.935 307.155ZM692.709 298.749C695.031 298.749 696.669 300.081 696.669 302.889V308.379H694.941V303.087C694.941 301.215 694.005 300.297 692.367 300.297C690.531 300.297 689.343 301.395 689.343 303.465V308.379H687.615V298.839H689.271V300.279C689.973 299.307 691.197 298.749 692.709 298.749ZM704.691 306.579L705.231 307.821C704.709 308.271 703.917 308.487 703.143 308.487C701.217 308.487 700.119 307.425 700.119 305.499V300.261H698.499V298.839H700.119V296.751H701.847V298.839H704.583V300.261H701.847V305.427C701.847 306.453 702.387 307.029 703.341 307.029C703.845 307.029 704.331 306.867 704.691 306.579ZM710.794 298.749C713.404 298.749 714.88 300.009 714.88 302.619V308.379H713.242V307.119C712.666 307.983 711.604 308.487 710.11 308.487C707.95 308.487 706.582 307.335 706.582 305.679C706.582 304.149 707.572 302.889 710.416 302.889H713.152V302.547C713.152 301.089 712.306 300.243 710.596 300.243C709.462 300.243 708.31 300.639 707.572 301.269L706.852 299.973C707.842 299.181 709.264 298.749 710.794 298.749ZM710.398 307.155C711.694 307.155 712.72 306.561 713.152 305.463V304.131H710.488C708.778 304.131 708.292 304.797 708.292 305.607C708.292 306.561 709.084 307.155 710.398 307.155ZM724.963 306.813H732.307V308.379H723.163V295.779H732.055V297.345H724.963V301.215H731.281V302.745H724.963V306.813ZM742.011 298.839H743.739V308.379H742.101V306.939C741.399 307.929 740.211 308.487 738.861 308.487C736.395 308.487 734.757 307.137 734.757 304.329V298.839H736.485V304.131C736.485 306.003 737.421 306.939 739.059 306.939C740.859 306.939 742.011 305.823 742.011 303.771V298.839ZM747.029 308.379V295.023H748.757V308.379H747.029ZM757.006 297.453H755.386L752.362 295.113H754.558L757.006 297.453ZM755.53 298.749C758.14 298.749 759.616 300.009 759.616 302.619V308.379H757.978V307.119C757.402 307.983 756.34 308.487 754.846 308.487C752.686 308.487 751.318 307.335 751.318 305.679C751.318 304.149 752.308 302.889 755.152 302.889H757.888V302.547C757.888 301.089 757.042 300.243 755.332 300.243C754.198 300.243 753.046 300.639 752.308 301.269L751.588 299.973C752.578 299.181 754 298.749 755.53 298.749ZM755.134 307.155C756.43 307.155 757.456 306.561 757.888 305.463V304.131H755.224C753.514 304.131 753.028 304.797 753.028 305.607C753.028 306.561 753.82 307.155 755.134 307.155ZM764.47 300.441C765.082 299.325 766.27 298.749 767.944 298.749V300.423C767.8 300.405 767.674 300.405 767.548 300.405C765.694 300.405 764.542 301.539 764.542 303.627V308.379H762.814V298.839H764.47V300.441ZM770.938 297.003C770.272 297.003 769.768 296.517 769.768 295.887C769.768 295.257 770.272 294.753 770.938 294.753C771.604 294.753 772.108 295.239 772.108 295.851C772.108 296.499 771.622 297.003 770.938 297.003ZM770.074 308.379V298.839H771.802V308.379H770.074ZM778.575 298.749C781.185 298.749 782.661 300.009 782.661 302.619V308.379H781.023V307.119C780.447 307.983 779.385 308.487 777.891 308.487C775.731 308.487 774.363 307.335 774.363 305.679C774.363 304.149 775.353 302.889 778.197 302.889H780.933V302.547C780.933 301.089 780.087 300.243 778.377 300.243C777.243 300.243 776.091 300.639 775.353 301.269L774.633 299.973C775.623 299.181 777.045 298.749 778.575 298.749ZM778.179 307.155C779.475 307.155 780.501 306.561 780.933 305.463V304.131H778.269C776.559 304.131 776.073 304.797 776.073 305.607C776.073 306.561 776.865 307.155 778.179 307.155ZM672.949 325.023H674.677V338.379H673.021V336.867C672.247 337.947 671.023 338.487 669.619 338.487C666.829 338.487 664.795 336.525 664.795 333.609C664.795 330.693 666.829 328.749 669.619 328.749C670.969 328.749 672.157 329.253 672.949 330.279V325.023ZM669.763 336.975C671.581 336.975 672.967 335.643 672.967 333.609C672.967 331.575 671.581 330.261 669.763 330.261C667.927 330.261 666.541 331.575 666.541 333.609C666.541 335.643 667.927 336.975 669.763 336.975ZM686.569 333.663C686.569 333.807 686.551 334.023 686.533 334.185H678.793C679.009 335.859 680.359 336.975 682.249 336.975C683.365 336.975 684.301 336.597 685.003 335.823L685.957 336.939C685.093 337.947 683.779 338.487 682.195 338.487C679.117 338.487 677.065 336.453 677.065 333.609C677.065 330.783 679.099 328.749 681.853 328.749C684.607 328.749 686.569 330.729 686.569 333.663ZM681.853 330.207C680.197 330.207 678.973 331.323 678.793 332.943H684.913C684.733 331.341 683.527 330.207 681.853 330.207ZM691.704 338.487C690.12 338.487 688.554 338.001 687.762 337.371L688.482 336.003C689.292 336.579 690.588 336.993 691.83 336.993C693.432 336.993 694.098 336.507 694.098 335.697C694.098 333.555 688.068 335.409 688.068 331.611C688.068 329.901 689.598 328.749 692.046 328.749C693.288 328.749 694.692 329.073 695.52 329.613L694.782 330.981C693.918 330.423 692.964 330.225 692.028 330.225C690.516 330.225 689.778 330.783 689.778 331.539C689.778 333.789 695.826 331.953 695.826 335.661C695.826 337.389 694.242 338.487 691.704 338.487ZM713.458 338.379H711.496L708.778 334.509C708.526 334.527 708.256 334.545 707.986 334.545H704.872V338.379H703.072V325.779H707.986C711.262 325.779 713.242 327.435 713.242 330.171C713.242 332.115 712.234 333.519 710.47 334.149L713.458 338.379ZM707.932 333.015C710.236 333.015 711.442 331.971 711.442 330.171C711.442 328.371 710.236 327.345 707.932 327.345H704.872V333.015H707.932ZM716.762 327.003C716.096 327.003 715.592 326.517 715.592 325.887C715.592 325.257 716.096 324.753 716.762 324.753C717.428 324.753 717.932 325.239 717.932 325.851C717.932 326.499 717.446 327.003 716.762 327.003ZM715.898 338.379V328.839H717.626V338.379H715.898ZM728.089 328.839H729.817V338.379H728.179V336.939C727.477 337.929 726.289 338.487 724.939 338.487C722.473 338.487 720.835 337.137 720.835 334.329V328.839H722.563V334.131C722.563 336.003 723.499 336.939 725.137 336.939C726.937 336.939 728.089 335.823 728.089 333.771V328.839Z" fill="#3E441D"/>
<path d="M140.96 241.363C139.034 241.363 137.144 240.715 136.136 239.779L136.802 238.375C137.738 239.221 139.34 239.833 140.96 239.833C143.138 239.833 144.074 238.987 144.074 237.889C144.074 234.811 136.442 236.755 136.442 232.075C136.442 230.131 137.954 228.475 141.266 228.475C142.742 228.475 144.272 228.871 145.316 229.591L144.722 231.031C143.624 230.329 142.382 230.005 141.266 230.005C139.124 230.005 138.206 230.905 138.206 232.003C138.206 235.081 145.838 233.155 145.838 237.781C145.838 239.707 144.29 241.363 140.96 241.363ZM151.69 231.589C154.3 231.589 155.776 232.849 155.776 235.459V241.219H154.138V239.959C153.562 240.823 152.5 241.327 151.006 241.327C148.846 241.327 147.478 240.175 147.478 238.519C147.478 236.989 148.468 235.729 151.312 235.729H154.048V235.387C154.048 233.929 153.202 233.083 151.492 233.083C150.358 233.083 149.206 233.479 148.468 234.109L147.748 232.813C148.738 232.021 150.16 231.589 151.69 231.589ZM151.294 239.995C152.59 239.995 153.616 239.401 154.048 238.303V236.971H151.384C149.674 236.971 149.188 237.637 149.188 238.447C149.188 239.401 149.98 239.995 151.294 239.995ZM164.068 231.589C166.39 231.589 168.028 232.921 168.028 235.729V241.219H166.3V235.927C166.3 234.055 165.364 233.137 163.726 233.137C161.89 233.137 160.702 234.235 160.702 236.305V241.219H158.974V231.679H160.63V233.119C161.332 232.147 162.556 231.589 164.068 231.589ZM176.05 239.419L176.59 240.661C176.068 241.111 175.276 241.327 174.502 241.327C172.576 241.327 171.478 240.265 171.478 238.339V233.101H169.858V231.679H171.478V229.591H173.206V231.679H175.942V233.101H173.206V238.267C173.206 239.293 173.746 239.869 174.7 239.869C175.204 239.869 175.69 239.707 176.05 239.419ZM193.179 241.219L191.793 238.069H185.097L183.711 241.219H181.857L187.563 228.619H189.345L195.069 241.219H193.179ZM185.727 236.629H191.163L188.445 230.455L185.727 236.629ZM201.791 231.589C204.113 231.589 205.751 232.921 205.751 235.729V241.219H204.023V235.927C204.023 234.055 203.087 233.137 201.449 233.137C199.613 233.137 198.425 234.235 198.425 236.305V241.219H196.697V231.679H198.353V233.119C199.055 232.147 200.279 231.589 201.791 231.589ZM213.773 239.419L214.313 240.661C213.791 241.111 212.999 241.327 212.225 241.327C210.299 241.327 209.201 240.265 209.201 238.339V233.101H207.581V231.679H209.201V229.591H210.929V231.679H213.665V233.101H210.929V238.267C210.929 239.293 211.469 239.869 212.423 239.869C212.927 239.869 213.413 239.707 213.773 239.419ZM220.171 241.327C217.309 241.327 215.203 239.293 215.203 236.449C215.203 233.605 217.309 231.589 220.171 231.589C223.033 231.589 225.121 233.605 225.121 236.449C225.121 239.293 223.033 241.327 220.171 241.327ZM220.171 239.815C222.007 239.815 223.375 238.483 223.375 236.449C223.375 234.415 222.007 233.101 220.171 233.101C218.335 233.101 216.949 234.415 216.949 236.449C216.949 238.483 218.335 239.815 220.171 239.815ZM232.605 231.589C234.927 231.589 236.565 232.921 236.565 235.729V241.219H234.837V235.927C234.837 234.055 233.901 233.137 232.263 233.137C230.427 233.137 229.239 234.235 229.239 236.305V241.219H227.511V231.679H229.167V233.119C229.869 232.147 231.093 231.589 232.605 231.589ZM240.627 229.843C239.961 229.843 239.457 229.357 239.457 228.727C239.457 228.097 239.961 227.593 240.627 227.593C241.293 227.593 241.797 228.079 241.797 228.691C241.797 229.339 241.311 229.843 240.627 229.843ZM239.763 241.219V231.679H241.491V241.219H239.763ZM144.308 257.863H146.036V271.219H144.38V269.707C143.606 270.787 142.382 271.327 140.978 271.327C138.188 271.327 136.154 269.365 136.154 266.449C136.154 263.533 138.188 261.589 140.978 261.589C142.328 261.589 143.516 262.093 144.308 263.119V257.863ZM141.122 269.815C142.94 269.815 144.326 268.483 144.326 266.449C144.326 264.415 142.94 263.101 141.122 263.101C139.286 263.101 137.9 264.415 137.9 266.449C137.9 268.483 139.286 269.815 141.122 269.815ZM157.928 266.503C157.928 266.647 157.91 266.863 157.892 267.025H150.152C150.368 268.699 151.718 269.815 153.608 269.815C154.724 269.815 155.66 269.437 156.362 268.663L157.316 269.779C156.452 270.787 155.138 271.327 153.554 271.327C150.476 271.327 148.424 269.293 148.424 266.449C148.424 263.623 150.458 261.589 153.212 261.589C155.966 261.589 157.928 263.569 157.928 266.503ZM153.212 263.047C151.556 263.047 150.332 264.163 150.152 265.783H156.272C156.092 264.181 154.886 263.047 153.212 263.047ZM170.327 258.619C173.603 258.619 175.583 260.275 175.583 263.011C175.583 265.747 173.603 267.403 170.327 267.403H167.213V271.219H165.413V258.619H170.327ZM170.273 265.837C172.577 265.837 173.783 264.811 173.783 263.011C173.783 261.211 172.577 260.185 170.273 260.185H167.213V265.837H170.273ZM182.027 271.327C179.165 271.327 177.059 269.293 177.059 266.449C177.059 263.605 179.165 261.589 182.027 261.589C184.889 261.589 186.977 263.605 186.977 266.449C186.977 269.293 184.889 271.327 182.027 271.327ZM182.027 269.815C183.863 269.815 185.231 268.483 185.231 266.449C185.231 264.415 183.863 263.101 182.027 263.101C180.191 263.101 178.805 264.415 178.805 266.449C178.805 268.483 180.191 269.815 182.027 269.815ZM191.023 263.281C191.635 262.165 192.823 261.589 194.497 261.589V263.263C194.353 263.245 194.227 263.245 194.101 263.245C192.247 263.245 191.095 264.379 191.095 266.467V271.219H189.367V261.679H191.023V263.281ZM201.837 269.419L202.377 270.661C201.855 271.111 201.063 271.327 200.289 271.327C198.363 271.327 197.265 270.265 197.265 268.339V263.101H195.645V261.679H197.265V259.591H198.993V261.679H201.729V263.101H198.993V268.267C198.993 269.293 199.533 269.869 200.487 269.869C200.991 269.869 201.477 269.707 201.837 269.419ZM216.4 261.589C218.722 261.589 220.306 262.921 220.306 265.729V271.219H218.578V265.927C218.578 264.055 217.678 263.137 216.112 263.137C214.384 263.137 213.25 264.235 213.25 266.305V271.219H211.522V265.927C211.522 264.055 210.622 263.137 209.056 263.137C207.328 263.137 206.194 264.235 206.194 266.305V271.219H204.466V261.679H206.122V263.101C206.806 262.129 207.976 261.589 209.416 261.589C210.874 261.589 212.098 262.165 212.728 263.353C213.448 262.273 214.78 261.589 216.4 261.589ZM226.96 261.589C229.57 261.589 231.046 262.849 231.046 265.459V271.219H229.408V269.959C228.832 270.823 227.77 271.327 226.276 271.327C224.116 271.327 222.748 270.175 222.748 268.519C222.748 266.989 223.738 265.729 226.582 265.729H229.318V265.387C229.318 263.929 228.472 263.083 226.762 263.083C225.628 263.083 224.476 263.479 223.738 264.109L223.018 262.813C224.008 262.021 225.43 261.589 226.96 261.589ZM226.564 269.995C227.86 269.995 228.886 269.401 229.318 268.303V266.971H226.654C224.944 266.971 224.458 267.637 224.458 268.447C224.458 269.401 225.25 269.995 226.564 269.995ZM239.337 261.589C241.659 261.589 243.297 262.921 243.297 265.729V271.219H241.569V265.927C241.569 264.055 240.633 263.137 238.995 263.137C237.159 263.137 235.971 264.235 235.971 266.305V271.219H234.243V261.679H235.899V263.119C236.601 262.147 237.825 261.589 239.337 261.589ZM253.07 261.679H254.762L250.136 272.173C249.29 274.189 248.192 274.819 246.734 274.819C245.816 274.819 244.88 274.513 244.286 273.937L245.024 272.641C245.492 273.091 246.086 273.343 246.734 273.343C247.562 273.343 248.084 272.965 248.552 271.867L248.858 271.201L244.646 261.679H246.446L249.776 269.311L253.07 261.679Z" fill="#3E441D"/>
<path d="M196.659 548.789H204.003V550.355H194.859V537.755H203.751V539.321H196.659V543.191H202.977V544.721H196.659V548.789ZM209.278 550.463C207.694 550.463 206.128 549.977 205.336 549.347L206.056 547.979C206.866 548.555 208.162 548.969 209.404 548.969C211.006 548.969 211.672 548.483 211.672 547.673C211.672 545.531 205.642 547.385 205.642 543.587C205.642 541.877 207.172 540.725 209.62 540.725C210.862 540.725 212.266 541.049 213.094 541.589L212.356 542.957C211.492 542.399 210.538 542.201 209.602 542.201C208.09 542.201 207.352 542.759 207.352 543.515C207.352 545.765 213.4 543.929 213.4 547.637C213.4 549.365 211.816 550.463 209.278 550.463ZM226.28 550.499C222.464 550.499 219.62 547.781 219.62 544.055C219.62 540.329 222.464 537.611 226.298 537.611C228.242 537.611 229.934 538.277 231.086 539.573L229.916 540.707C228.944 539.681 227.756 539.213 226.37 539.213C223.526 539.213 221.42 541.265 221.42 544.055C221.42 546.845 223.526 548.897 226.37 548.897C227.756 548.897 228.944 548.411 229.916 547.385L231.086 548.519C229.934 549.815 228.242 550.499 226.28 550.499ZM240.267 540.815H241.995V550.355H240.357V548.915C239.655 549.905 238.467 550.463 237.117 550.463C234.651 550.463 233.013 549.113 233.013 546.305V540.815H234.741V546.107C234.741 547.979 235.677 548.915 237.315 548.915C239.115 548.915 240.267 547.799 240.267 545.747V540.815ZM250.342 540.725C253.132 540.725 255.166 542.669 255.166 545.585C255.166 548.501 253.132 550.463 250.342 550.463C248.938 550.463 247.714 549.923 246.94 548.843V550.355H245.284V536.999H247.012V542.255C247.804 541.229 248.992 540.725 250.342 540.725ZM250.198 548.951C252.034 548.951 253.42 547.619 253.42 545.585C253.42 543.551 252.034 542.237 250.198 542.237C248.38 542.237 246.994 543.551 246.994 545.585C246.994 547.619 248.38 548.951 250.198 548.951ZM266.176 545.639C266.176 545.783 266.158 545.999 266.14 546.161H258.4C258.616 547.835 259.966 548.951 261.856 548.951C262.972 548.951 263.908 548.573 264.61 547.799L265.564 548.915C264.7 549.923 263.386 550.463 261.802 550.463C258.724 550.463 256.672 548.429 256.672 545.585C256.672 542.759 258.706 540.725 261.46 540.725C264.214 540.725 266.176 542.705 266.176 545.639ZM261.46 542.183C259.804 542.183 258.58 543.299 258.4 544.919H264.52C264.34 543.317 263.134 542.183 261.46 542.183ZM268.576 550.355V536.999H270.304V550.355H268.576ZM273.603 550.355V536.999H275.331V550.355H273.603ZM281.366 550.463C279.782 550.463 278.216 549.977 277.424 549.347L278.144 547.979C278.954 548.555 280.25 548.969 281.492 548.969C283.094 548.969 283.76 548.483 283.76 547.673C283.76 545.531 277.73 547.385 277.73 543.587C277.73 541.877 279.26 540.725 281.708 540.725C282.95 540.725 284.354 541.049 285.182 541.589L284.444 542.957C283.58 542.399 282.626 542.201 281.69 542.201C280.178 542.201 279.44 542.759 279.44 543.515C279.44 545.765 285.488 543.929 285.488 547.637C285.488 549.365 283.904 550.463 281.366 550.463Z" fill="#3E441D"/>
<path d="M469.431 492.117V471.117H472.431V492.117H469.431ZM486.728 476.067C491.378 476.067 494.768 479.307 494.768 484.167C494.768 489.027 491.378 492.297 486.728 492.297C484.388 492.297 482.348 491.397 481.058 489.597V492.117H478.298V469.857H481.178V478.617C482.498 476.907 484.478 476.067 486.728 476.067ZM486.488 489.777C489.548 489.777 491.858 487.557 491.858 484.167C491.858 480.777 489.548 478.587 486.488 478.587C483.458 478.587 481.148 480.777 481.148 484.167C481.148 487.557 483.458 489.777 486.488 489.777ZM500.188 473.157C499.078 473.157 498.238 472.347 498.238 471.297C498.238 470.247 499.078 469.407 500.188 469.407C501.298 469.407 502.138 470.217 502.138 471.237C502.138 472.317 501.328 473.157 500.188 473.157ZM498.748 492.117V476.217H501.628V492.117H498.748ZM509.286 489.747H518.916V492.117H505.596V490.257L514.986 478.587H505.776V476.217H518.676V478.107L509.286 489.747ZM528.561 476.067C532.911 476.067 535.371 478.167 535.371 482.517V492.117H532.641V490.017C531.681 491.457 529.911 492.297 527.421 492.297C523.821 492.297 521.541 490.377 521.541 487.617C521.541 485.067 523.191 482.967 527.931 482.967H532.491V482.397C532.491 479.967 531.081 478.557 528.231 478.557C526.341 478.557 524.421 479.217 523.191 480.267L521.991 478.107C523.641 476.787 526.011 476.067 528.561 476.067ZM527.901 490.077C530.061 490.077 531.771 489.087 532.491 487.257V485.037H528.051C525.201 485.037 524.391 486.147 524.391 487.497C524.391 489.087 525.711 490.077 527.901 490.077Z" fill="#3E441D"/>
<path d="M769.047 129.524H776.391V131.09H767.247V118.49H776.139V120.056H769.047V123.926H775.365V125.456H769.047V129.524ZM781.667 131.198C780.083 131.198 778.517 130.712 777.725 130.082L778.445 128.714C779.255 129.29 780.551 129.704 781.793 129.704C783.395 129.704 784.061 129.218 784.061 128.408C784.061 126.266 778.031 128.12 778.031 124.322C778.031 122.612 779.561 121.46 782.009 121.46C783.251 121.46 784.655 121.784 785.483 122.324L784.745 123.692C783.881 123.134 782.927 122.936 781.991 122.936C780.479 122.936 779.741 123.494 779.741 124.25C779.741 126.5 785.789 124.664 785.789 128.372C785.789 130.1 784.205 131.198 781.667 131.198ZM801.441 119.714C800.775 119.714 800.271 119.228 800.271 118.598C800.271 117.968 800.775 117.464 801.441 117.464C802.107 117.464 802.611 117.95 802.611 118.562C802.611 119.21 802.125 119.714 801.441 119.714ZM793.035 120.704C793.035 118.85 794.151 117.626 796.185 117.626C796.923 117.626 797.643 117.806 798.129 118.184L797.607 119.498C797.247 119.228 796.779 119.048 796.275 119.048C795.249 119.048 794.727 119.624 794.727 120.722V121.55H797.499V122.972H794.763V131.09H793.035V122.972H791.415V121.55H793.035V120.704ZM800.577 131.09V121.55H802.305V131.09H800.577ZM813.085 121.55H814.723V129.794C814.723 133.16 813.013 134.69 809.773 134.69C808.027 134.69 806.263 134.204 805.219 133.268L806.047 131.936C806.929 132.692 808.315 133.178 809.719 133.178C811.969 133.178 812.995 132.134 812.995 129.974V129.218C812.167 130.208 810.925 130.694 809.557 130.694C806.803 130.694 804.715 128.822 804.715 126.068C804.715 123.314 806.803 121.46 809.557 121.46C810.979 121.46 812.275 121.982 813.085 123.026V121.55ZM809.755 129.182C811.663 129.182 813.031 127.904 813.031 126.068C813.031 124.214 811.663 122.972 809.755 122.972C807.829 122.972 806.461 124.214 806.461 126.068C806.461 127.904 807.829 129.182 809.755 129.182ZM825.189 121.55H826.917V131.09H825.279V129.65C824.577 130.64 823.389 131.198 822.039 131.198C819.573 131.198 817.935 129.848 817.935 127.04V121.55H819.663V126.842C819.663 128.714 820.599 129.65 822.237 129.65C824.037 129.65 825.189 128.534 825.189 126.482V121.55ZM838.828 126.374C838.828 126.518 838.81 126.734 838.792 126.896H831.052C831.268 128.57 832.618 129.686 834.508 129.686C835.624 129.686 836.56 129.308 837.262 128.534L838.216 129.65C837.352 130.658 836.038 131.198 834.454 131.198C831.376 131.198 829.324 129.164 829.324 126.32C829.324 123.494 831.358 121.46 834.112 121.46C836.866 121.46 838.828 123.44 838.828 126.374ZM834.112 122.918C832.456 122.918 831.232 124.034 831.052 125.654H837.172C836.992 124.052 835.786 122.918 834.112 122.918ZM842.884 123.152C843.496 122.036 844.684 121.46 846.358 121.46V123.134C846.214 123.116 846.088 123.116 845.962 123.116C844.108 123.116 842.956 124.25 842.956 126.338V131.09H841.228V121.55H842.884V123.152ZM851.944 121.46C854.554 121.46 856.03 122.72 856.03 125.33V131.09H854.392V129.83C853.816 130.694 852.754 131.198 851.26 131.198C849.1 131.198 847.732 130.046 847.732 128.39C847.732 126.86 848.722 125.6 851.566 125.6H854.302V125.258C854.302 123.8 853.456 122.954 851.746 122.954C850.612 122.954 849.46 123.35 848.722 123.98L848.002 122.684C848.992 121.892 850.414 121.46 851.944 121.46ZM851.548 129.866C852.844 129.866 853.87 129.272 854.302 128.174V126.842H851.638C849.928 126.842 849.442 127.508 849.442 128.318C849.442 129.272 850.234 129.866 851.548 129.866ZM859.228 131.09V117.734H860.956V131.09H859.228Z" fill="#3E441D"/>
<path d="M430.703 297.972C428.777 297.972 426.887 297.324 425.879 296.388L426.545 294.984C427.481 295.83 429.083 296.442 430.703 296.442C432.881 296.442 433.817 295.596 433.817 294.498C433.817 291.42 426.185 293.364 426.185 288.684C426.185 286.74 427.697 285.084 431.009 285.084C432.485 285.084 434.015 285.48 435.059 286.2L434.465 287.64C433.367 286.938 432.125 286.614 431.009 286.614C428.867 286.614 427.949 287.514 427.949 288.612C427.949 291.69 435.581 289.764 435.581 294.39C435.581 296.316 434.033 297.972 430.703 297.972ZM441.432 288.198C444.042 288.198 445.518 289.458 445.518 292.068V297.828H443.88V296.568C443.304 297.432 442.242 297.936 440.748 297.936C438.588 297.936 437.22 296.784 437.22 295.128C437.22 293.598 438.21 292.338 441.054 292.338H443.79V291.996C443.79 290.538 442.944 289.692 441.234 289.692C440.1 289.692 438.948 290.088 438.21 290.718L437.49 289.422C438.48 288.63 439.902 288.198 441.432 288.198ZM441.036 296.604C442.332 296.604 443.358 296.01 443.79 294.912V293.58H441.126C439.416 293.58 438.93 294.246 438.93 295.056C438.93 296.01 439.722 296.604 441.036 296.604ZM453.81 288.198C456.132 288.198 457.77 289.53 457.77 292.338V297.828H456.042V292.536C456.042 290.664 455.106 289.746 453.468 289.746C451.632 289.746 450.444 290.844 450.444 292.914V297.828H448.716V288.288H450.372V289.728C451.074 288.756 452.298 288.198 453.81 288.198ZM437.417 327.828H435.455L432.737 323.958C432.485 323.976 432.215 323.994 431.945 323.994H428.831V327.828H427.031V315.228H431.945C435.221 315.228 437.201 316.884 437.201 319.62C437.201 321.564 436.193 322.968 434.429 323.598L437.417 327.828ZM431.891 322.464C434.195 322.464 435.401 321.42 435.401 319.62C435.401 317.82 434.195 316.794 431.891 316.794H428.831V322.464H431.891ZM443.243 318.198C445.853 318.198 447.329 319.458 447.329 322.068V327.828H445.691V326.568C445.115 327.432 444.053 327.936 442.559 327.936C440.399 327.936 439.031 326.784 439.031 325.128C439.031 323.598 440.021 322.338 442.865 322.338H445.601V321.996C445.601 320.538 444.755 319.692 443.045 319.692C441.911 319.692 440.759 320.088 440.021 320.718L439.301 319.422C440.291 318.63 441.713 318.198 443.243 318.198ZM442.847 326.604C444.143 326.604 445.169 326.01 445.601 324.912V323.58H442.937C441.227 323.58 440.741 324.246 440.741 325.056C440.741 326.01 441.533 326.604 442.847 326.604ZM454.019 315.786C452.993 315.786 452.471 316.362 452.471 317.46V318.288H455.243V319.71H452.507V327.828H450.779V319.71H449.159V318.288H450.779V317.442C450.779 315.588 451.895 314.364 453.929 314.364C454.667 314.364 455.387 314.544 455.873 314.922L455.351 316.236C454.991 315.966 454.523 315.786 454.019 315.786ZM460.171 318.198C462.781 318.198 464.257 319.458 464.257 322.068V327.828H462.619V326.568C462.043 327.432 460.981 327.936 459.487 327.936C457.327 327.936 455.959 326.784 455.959 325.128C455.959 323.598 456.949 322.338 459.793 322.338H462.529V321.996C462.529 320.538 461.683 319.692 459.973 319.692C458.839 319.692 457.687 320.088 456.949 320.718L456.229 319.422C457.219 318.63 458.641 318.198 460.171 318.198ZM459.775 326.604C461.071 326.604 462.097 326.01 462.529 324.912V323.58H459.865C458.155 323.58 457.669 324.246 457.669 325.056C457.669 326.01 458.461 326.604 459.775 326.604ZM476.129 323.112C476.129 323.256 476.111 323.472 476.093 323.634H468.353C468.569 325.308 469.919 326.424 471.809 326.424C472.925 326.424 473.861 326.046 474.563 325.272L475.517 326.388C474.653 327.396 473.339 327.936 471.755 327.936C468.677 327.936 466.625 325.902 466.625 323.058C466.625 320.232 468.659 318.198 471.413 318.198C474.167 318.198 476.129 320.178 476.129 323.112ZM471.413 319.656C469.757 319.656 468.533 320.772 468.353 322.392H474.473C474.293 320.79 473.087 319.656 471.413 319.656ZM478.529 327.828V314.472H480.257V327.828H478.529Z" fill="#3E441D"/>
</g>
<defs>
<clipPath id="clip0_20635_20379">
<rect width="873.072" height="662" fill="white"/>
</clipPath>
<clipPath id="clip1_20635_20379">
<rect width="30.7014" height="30.7014" fill="white" transform="translate(391.438 476.832)"/>
</clipPath>
<clipPath id="clip2_20635_20379">
<rect width="77.713" height="27.8232" fill="white" transform="translate(723.406 212.992)"/>
</clipPath>
</defs>
</svg>
