<svg width="184" height="64" viewBox="0 0 184 64" fill="none" xmlns="http://www.w3.org/2000/svg">
<g clip-path="url(#clip0_21018_8467)">
<path d="M6.80268 0H0.799927V17.6733H6.80268V0Z" fill="white"/>
<path d="M6.80268 28.3469H0.799927V40.488H6.80268V28.3469Z" fill="white"/>
<path d="M24.4662 20.244C28.906 18.9797 32.5413 16.2979 32.5413 11.5894C32.5413 1.75853 19.061 0.260539 14.3914 0.0383301V40.4612C19.9689 40.2735 33.342 38.8291 33.342 28.6956C33.342 28.6956 33.7059 22.4201 24.4662 20.244Z" fill="white"/>
<path d="M68.0292 32.9252H51.4421V0.455911C51.4421 0.252858 51.2046 0 50.8484 0H43.003C42.6468 0 42.348 0.252858 42.348 0.455911V40.0091C42.348 40.2122 42.6468 40.465 43.003 40.465H68.0292C68.4467 40.465 68.6842 40.2122 68.6842 40.0091V33.4348C68.6842 33.1819 68.4467 32.9291 68.0292 32.9291V32.9252Z" fill="white"/>
<path d="M77.6903 0.455911V40.0091C77.6903 40.2122 77.9891 40.465 78.3454 40.465H106.107V32.9291H86.7883V23.8262H105.455C105.812 23.8262 106.11 23.5733 106.11 23.3702V16.9453C106.11 16.6925 105.812 16.4894 105.455 16.4894H86.7883V7.33673H106.107V0H78.3454C77.9891 0 77.6903 0.252858 77.6903 0.455911Z" fill="white"/>
<path d="M139.863 19.6003C139.024 19.0333 138.135 18.4931 137.109 18.0679C134.427 16.9568 132.113 16.7921 130.822 16.7155C130.462 16.6925 128.907 16.5775 128.555 16.5239C126.367 16.1868 124.333 14.773 124.019 12.5701C124.004 12.4513 124 12.3287 124 12.2023C124 8.96496 126.674 7.29456 129.945 7.29456C133.037 7.29456 135.653 8.6623 135.772 11.5434C135.772 11.6966 136.071 11.9495 136.427 11.9495H143.858C144.276 11.9495 144.571 11.6966 144.513 11.5434C144.391 4.66637 138.089 0.0114746 129.945 0.0114746C129.926 0.0114746 129.907 0.0114746 129.884 0.0114746C122.276 0.0114746 115.139 4.20663 115.139 11.7962C115.139 11.8805 115.139 11.9648 115.143 12.0491C115.143 12.0989 115.139 12.1487 115.139 12.2023C115.139 15.9224 116.886 18.9452 120.058 20.9949C120.897 21.5619 121.832 22.06 122.87 22.4661C126.26 23.83 128.819 23.7342 129.884 23.83C130.24 23.8606 130.964 23.9296 131.313 23.9947C133.492 24.3855 135.496 25.7111 135.814 27.914C135.829 28.0328 135.833 28.1554 135.833 28.2818C135.833 31.5192 133.159 33.1896 129.888 33.1896C126.796 33.1896 124.18 31.8218 124.061 28.9408C124.061 28.7875 123.762 28.5347 123.406 28.5347H115.975C115.557 28.5347 115.262 28.7875 115.32 28.9408C115.438 35.8178 121.74 40.4727 129.884 40.4727C129.903 40.4727 129.922 40.4727 129.945 40.4727C137.553 40.4727 144.69 36.2775 144.69 28.6879C144.69 28.6036 144.69 28.5193 144.686 28.4351C144.686 28.3853 144.69 28.3354 144.69 28.2818C144.69 24.5617 143.035 21.65 139.863 19.5965V19.6003Z" fill="white"/>
<path d="M178.373 19.6003C177.534 19.0333 176.646 18.4931 175.619 18.0679C172.937 16.9568 170.624 16.7921 169.333 16.7155C168.973 16.6925 167.417 16.5775 167.065 16.5239C164.878 16.1868 162.843 14.773 162.529 12.5701C162.514 12.4513 162.51 12.3287 162.51 12.2023C162.51 8.96496 165.184 7.29456 168.455 7.29456C171.547 7.29456 174.163 8.6623 174.282 11.5434C174.282 11.6966 174.581 11.9495 174.937 11.9495H182.369C182.786 11.9495 183.081 11.6966 183.024 11.5434C182.901 4.66637 176.6 0.0114746 168.455 0.0114746C168.436 0.0114746 168.417 0.0114746 168.394 0.0114746C160.786 0.0114746 153.65 4.20663 153.65 11.7962C153.65 11.8805 153.65 11.9648 153.653 12.0491C153.653 12.0989 153.65 12.1487 153.65 12.2023C153.65 15.9224 155.396 18.9452 158.568 20.9949C159.407 21.5619 160.342 22.06 161.38 22.4661C164.77 23.83 167.329 23.7342 168.394 23.83C168.75 23.8606 169.474 23.9296 169.823 23.9947C172.003 24.3855 174.006 25.7111 174.324 27.914C174.339 28.0328 174.343 28.1554 174.343 28.2818C174.343 31.5192 171.669 33.1896 168.398 33.1896C165.307 33.1896 162.69 31.8218 162.571 28.9408C162.571 28.7875 162.273 28.5347 161.916 28.5347H154.485C154.067 28.5347 153.772 28.7875 153.83 28.9408C153.948 35.8178 160.25 40.4727 168.394 40.4727C168.413 40.4727 168.432 40.4727 168.455 40.4727C176.063 40.4727 183.2 36.2775 183.2 28.6879C183.2 28.6036 183.2 28.5193 183.196 28.4351C183.196 28.3853 183.2 28.3355 183.2 28.2818C183.2 24.5617 181.545 21.65 178.373 19.5965V19.6003Z" fill="white"/>
<path d="M6.13233 58.7821C6.13233 58.943 6.14382 59.0962 6.14382 59.2303C6.14382 59.3261 6.13233 59.4219 6.05954 59.4219C5.96377 59.4219 5.94462 59.2686 5.93313 59.2112C5.91397 59.1039 5.89482 59.0004 5.87567 58.8932C5.79139 58.51 5.66498 58.1652 5.37767 57.8319C5.14783 57.5752 4.82222 57.3262 4.32422 57.3262C4.06756 57.3262 3.76111 57.4105 3.53892 57.5752C3.424 57.6595 3.32823 57.7783 3.24396 57.8932C3.04476 58.1806 2.81492 58.6595 2.68084 59.5215C2.62338 59.8931 2.59656 60.2762 2.59656 60.6593C2.59656 61.6823 2.82641 62.7358 3.3244 63.2837C3.47763 63.4561 3.66917 63.5902 3.92583 63.6668C4.0599 63.7051 4.19398 63.7243 4.33955 63.7243C4.74943 63.7243 5.06738 63.5787 5.3432 63.3412C5.6803 63.0538 5.84119 62.709 5.8795 62.6209C5.93696 62.506 5.97527 62.3834 6.01357 62.2569C6.09019 62.0079 6.10934 61.9045 6.12849 61.7972C6.13616 61.7397 6.15914 61.6899 6.19362 61.6516C6.21277 61.6325 6.23959 61.621 6.25874 61.621C6.27789 61.621 6.33535 61.6401 6.33535 61.7551C6.33535 61.8777 6.3162 61.9849 6.28938 62.2531C6.24342 62.7129 6.24342 63.096 6.24342 63.1649V63.3833C6.24342 63.5174 6.26257 63.663 6.26257 63.7971C6.26257 63.8277 6.26257 63.912 6.20511 63.912C6.1668 63.912 6.13616 63.8546 6.10934 63.8162C6.00208 63.6438 5.89865 63.4523 5.66115 63.368C5.41215 63.617 4.93331 63.981 4.14035 63.981C3.34739 63.981 2.47398 63.5902 1.91086 63.0423C1.14472 62.3068 0.895721 61.3106 0.895721 60.5329C0.895721 59.6824 1.19069 58.8472 1.70017 58.2342C2.12922 57.7055 2.89536 57.104 4.14035 57.104C4.47745 57.104 4.81072 57.15 5.22061 57.3913C5.31638 57.4488 5.46961 57.5523 5.64965 57.5523C5.81054 57.5523 5.93696 57.445 6.01357 57.3722C6.09785 57.2649 6.12849 57.2381 6.15914 57.2381C6.1668 57.2381 6.20511 57.2381 6.20511 57.2956C6.20511 57.353 6.18596 57.3798 6.1668 57.6212C6.14765 57.8243 6.13616 58.1078 6.13616 58.33V58.7782L6.13233 58.7821Z" fill="white"/>
<path d="M17.4406 57.9276C17.7662 58.2341 18.0229 58.6249 18.1953 59.0386C18.3945 59.506 18.4826 60.0233 18.4826 60.5405C18.4826 61.5366 18.1072 62.3871 17.59 62.9618C17.3717 63.2108 17.1112 63.4215 16.8239 63.5824C16.3948 63.82 15.8968 63.954 15.3988 63.954C14.5561 63.954 13.7708 63.5824 13.2153 62.9694C12.6139 62.3105 12.296 61.4178 12.296 60.529C12.296 59.9543 12.4224 59.3719 12.679 58.8547C12.8246 58.5751 13.0046 58.3184 13.2153 58.0885C13.9508 57.3031 14.8242 57.123 15.4448 57.123C16.0309 57.123 16.7856 57.3031 17.4368 57.9276H17.4406ZM14.4335 57.9659C14.1768 58.4371 13.9853 59.1995 13.9853 60.3297C13.9853 60.9312 14.0313 62.4637 14.6748 63.364C14.74 63.4598 14.8204 63.5479 14.9123 63.6207C15.0924 63.7663 15.2839 63.8046 15.5176 63.8046C15.8815 63.8046 16.1765 63.6897 16.3987 63.1916C16.4829 62.9886 16.5519 62.7894 16.6017 62.5787C16.7358 61.9925 16.8009 61.2492 16.8009 60.5979C16.8009 59.6516 16.6668 58.5214 16.3527 57.8969C16.2876 57.7743 16.2071 57.6479 16.1152 57.5521C15.9543 57.3989 15.713 57.284 15.4448 57.284C15.1767 57.284 14.7361 57.4104 14.4412 57.9621L14.4335 57.9659Z" fill="white"/>
<path d="M26.4428 63.6439C26.8642 63.663 27.887 63.6516 28.2816 63.5749C28.6953 63.4983 28.9328 63.3067 29.1052 62.9619C29.2125 62.7512 29.2967 62.2647 29.3159 62.1689C29.3274 62.1229 29.335 62.0846 29.3619 62.0425C29.3619 62.0425 29.3682 62.0361 29.381 62.0233C29.381 62.0233 29.3925 62.0156 29.4002 62.0156C29.4078 62.0156 29.427 62.0348 29.4385 62.0425C29.4768 62.0884 29.4691 62.1574 29.4691 62.2264C29.4691 62.7627 29.4308 62.6938 29.4308 63.211C29.4308 63.3719 29.4423 63.5366 29.4423 63.6975V63.8891C28.9443 63.8584 28.6953 63.8584 28.2088 63.8584C27.5691 63.8584 26.9255 63.8393 26.2858 63.8393H24.6117C24.4394 63.8393 24.3244 63.8508 24.221 63.8086C24.2019 63.801 24.1904 63.801 24.1904 63.7627C24.1904 63.7243 24.2095 63.686 24.3244 63.686C24.47 63.686 24.8224 63.6477 24.9374 63.5519C24.9948 63.506 25.0255 63.4255 25.0255 63.0922V57.9009C25.0255 57.6519 25.0063 57.5561 24.9565 57.4987C24.9105 57.4335 24.8224 57.4029 24.7573 57.3837C24.7113 57.3722 24.6501 57.3646 24.6041 57.3646C24.5275 57.3646 24.4509 57.3722 24.3742 57.3722C24.2785 57.3722 24.2593 57.3339 24.2593 57.2956C24.2593 57.219 24.3436 57.219 24.3934 57.219C24.4509 57.219 24.5083 57.2267 24.5658 57.2267C24.8033 57.2381 25.0523 57.2381 25.3013 57.2381C25.8835 57.2381 26.439 57.219 27.0328 57.219C27.0711 57.219 27.1783 57.219 27.1783 57.2956C27.1783 57.3263 27.1592 57.3837 27.006 57.3837C26.8412 57.3837 26.6037 57.3531 26.508 57.4795C26.4773 57.5255 26.4505 57.6136 26.4505 57.9086V63.6362L26.4428 63.6439Z" fill="white"/>
<path d="M37.188 63.6439C37.6094 63.663 38.6322 63.6516 39.0268 63.5749C39.4405 63.4983 39.678 63.3067 39.8504 62.9619C39.9576 62.7512 40.0419 62.2647 40.0611 62.1689C40.0725 62.1229 40.0802 62.0846 40.107 62.0425C40.107 62.0425 40.1134 62.0361 40.1262 62.0233C40.1262 62.0233 40.1377 62.0156 40.1453 62.0156C40.153 62.0156 40.1721 62.0348 40.1836 62.0425C40.2219 62.0884 40.2143 62.1574 40.2143 62.2264C40.2143 62.7627 40.176 62.6938 40.176 63.211C40.176 63.3719 40.1875 63.5366 40.1875 63.6975V63.8891C39.6895 63.8584 39.4405 63.8584 38.954 63.8584C38.3142 63.8584 37.6707 63.8393 37.031 63.8393H35.3569C35.1845 63.8393 35.0696 63.8508 34.9662 63.8086C34.947 63.801 34.9355 63.801 34.9355 63.7627C34.9355 63.7243 34.9547 63.686 35.0696 63.686C35.2152 63.686 35.5676 63.6477 35.6825 63.5519C35.74 63.506 35.7706 63.4255 35.7706 63.0922V57.9009C35.7706 57.6519 35.7515 57.5561 35.7017 57.4987C35.6557 57.4335 35.5676 57.4029 35.5025 57.3837C35.4565 57.3722 35.3952 57.3646 35.3493 57.3646C35.2727 57.3646 35.196 57.3722 35.1194 57.3722C35.0237 57.3722 35.0045 57.3339 35.0045 57.2956C35.0045 57.219 35.0888 57.219 35.1386 57.219C35.196 57.219 35.2535 57.2267 35.311 57.2267C35.5485 57.2381 35.7975 57.2381 36.0465 57.2381C36.6287 57.2381 37.1842 57.219 37.7779 57.219C37.8163 57.219 37.9235 57.219 37.9235 57.2956C37.9235 57.3263 37.9044 57.3837 37.7511 57.3837C37.5864 57.3837 37.3489 57.3531 37.2531 57.4795C37.2225 57.5255 37.1957 57.6136 37.1957 57.9086V63.6362L37.188 63.6439Z" fill="white"/>
<path d="M48.0098 60.2532H48.4887C48.9292 60.2532 49.2242 60.1957 49.3965 60.054C49.6072 59.8816 49.6647 59.5674 49.703 59.2877C49.7145 59.1843 49.7222 58.9544 49.8179 58.9353H49.8486C49.8869 58.9353 49.9328 58.9468 49.9328 59.1383C49.9328 59.2648 49.9252 59.3874 49.9137 59.51C49.9022 59.6172 49.9022 59.7092 49.9022 59.8164C49.8754 61.0501 49.9214 61.4332 49.9214 61.7014C49.9214 61.732 49.9214 61.8087 49.8447 61.8087C49.7183 61.8087 49.7183 61.6171 49.6915 61.4562C49.6149 60.9965 49.5689 60.7359 49.4349 60.6057C49.2816 60.4601 48.9752 60.4448 48.661 60.4448H48.0098V63.6706L49.2931 63.6591C49.6111 63.6591 50.1052 63.6706 50.4615 63.4024C50.653 63.2569 50.7565 63.0576 50.7679 63.0385C50.8522 62.8661 50.9595 62.4255 50.9901 62.1765C50.9901 62.1458 51.0093 62.0309 51.0744 62.0309C51.0936 62.0309 51.1127 62.0424 51.1204 62.05C51.1587 62.0883 51.1587 62.1573 51.1587 62.2109C51.1587 62.3833 51.151 62.5481 51.151 62.709C51.151 62.9389 51.1395 63.1381 51.1319 63.9158C49.7068 63.8967 49.9826 63.8507 47.2628 63.8507C46.6997 63.8507 45.991 63.8698 45.7689 63.8698C45.7114 63.8698 45.6616 63.8622 45.6616 63.7932C45.6616 63.7357 45.6999 63.7281 45.7382 63.7281L46.0562 63.7013C46.1519 63.6898 46.2362 63.6821 46.3243 63.6553C46.3894 63.6361 46.4584 63.6093 46.4967 63.5595C46.581 63.4637 46.5733 63.2913 46.5733 63.1649V57.8319C46.5733 57.7055 46.5733 57.5522 46.4852 57.4794C46.4469 57.4411 46.3626 57.4105 46.1136 57.4105H45.9144C45.8761 57.4105 45.8186 57.4028 45.8186 57.3262C45.8186 57.2304 45.8838 57.2304 45.9719 57.2304H46.3243C46.535 57.2304 46.9181 57.2304 47.4812 57.2227C48.0098 57.2112 48.5346 57.2036 49.0594 57.2036C49.4042 57.2036 49.7375 57.2151 50.0822 57.2151C50.2546 57.2151 50.427 57.2151 50.5994 57.2036C50.6837 57.2036 50.7526 57.1959 50.8561 57.1768C50.9135 57.9698 50.9327 58.1231 50.9403 58.2188C50.9595 58.4104 50.9863 58.602 50.9863 58.805C50.9863 58.8433 50.9863 58.9276 50.9097 58.9276C50.7948 58.9276 50.7948 58.8242 50.7641 58.6901C50.6798 58.3261 50.6032 58.0005 50.2585 57.7438C49.9903 57.5407 49.5613 57.4181 48.8909 57.4181C48.6802 57.4181 48.4695 57.4296 48.0022 57.4488V60.2724L48.0098 60.2532Z" fill="white"/>
<path d="M62.287 58.7821C62.287 58.943 62.2985 59.0962 62.2985 59.2303C62.2985 59.3261 62.2871 59.4219 62.2143 59.4219C62.1185 59.4219 62.0993 59.2686 62.0879 59.2112C62.0687 59.1039 62.0495 59.0004 62.0304 58.8932C61.9461 58.51 61.8197 58.1652 61.5324 57.8319C61.3026 57.5752 60.9769 57.3262 60.4789 57.3262C60.2223 57.3262 59.9158 57.4105 59.6937 57.5752C59.5787 57.6595 59.483 57.7783 59.3987 57.8932C59.1995 58.1806 58.9696 58.6595 58.8356 59.5215C58.7781 59.8931 58.7513 60.2762 58.7513 60.6593C58.7513 61.6823 58.9811 62.7358 59.4791 63.2837C59.6324 63.4561 59.8239 63.5902 60.0806 63.6668C60.2146 63.7051 60.3487 63.7243 60.4943 63.7243C60.9042 63.7243 61.2221 63.5787 61.4979 63.3412C61.835 63.0538 61.9959 62.709 62.0342 62.6209C62.0917 62.506 62.13 62.3834 62.1683 62.2569C62.2449 62.0079 62.2641 61.9045 62.2832 61.7972C62.2909 61.7397 62.3139 61.6899 62.3483 61.6516C62.3675 61.6325 62.3943 61.621 62.4135 61.621C62.4326 61.621 62.4901 61.6401 62.4901 61.7551C62.4901 61.8777 62.4709 61.9849 62.4441 62.2531C62.3981 62.7129 62.3981 63.096 62.3981 63.1649V63.3833C62.3981 63.5174 62.4173 63.663 62.4173 63.7971C62.4173 63.8277 62.4173 63.912 62.3598 63.912C62.3215 63.912 62.2909 63.8546 62.2641 63.8162C62.1568 63.6438 62.0534 63.4523 61.8159 63.368C61.5669 63.617 61.088 63.981 60.2951 63.981C59.5021 63.981 58.6287 63.5902 58.0656 63.0423C57.2994 62.3068 57.0504 61.3106 57.0504 60.5329C57.0504 59.6824 57.3454 58.8472 57.8549 58.2342C58.2839 57.7055 59.0501 57.104 60.2951 57.104C60.6322 57.104 60.9655 57.15 61.3753 57.3913C61.4711 57.4488 61.6243 57.5523 61.8044 57.5523C61.9653 57.5523 62.0917 57.445 62.1683 57.3722C62.2526 57.2649 62.2832 57.2381 62.3139 57.2381C62.3215 57.2381 62.3598 57.2381 62.3598 57.2956C62.3598 57.353 62.3407 57.3798 62.3215 57.6212C62.3024 57.8243 62.2909 58.1078 62.2909 58.33V58.7782L62.287 58.7821Z" fill="white"/>
<path d="M71.6761 62.8584C71.6761 63.2223 71.6761 63.4407 71.7527 63.5365C71.7833 63.5748 71.8293 63.5939 71.8791 63.6131C71.9634 63.6437 72.04 63.6438 72.1357 63.6514L72.4882 63.6897C72.5188 63.6897 72.5341 63.6974 72.5533 63.7089C72.5839 63.7165 72.5916 63.728 72.5916 63.7663C72.5916 63.843 72.5533 63.8736 72.3924 63.8736C72.1549 63.8736 71.9442 63.8277 70.9674 63.8277C70.8141 63.8277 70.6533 63.8353 70.5 63.8353C70.1476 63.8468 69.8028 63.8545 69.4466 63.8545C69.3317 63.8545 69.3125 63.8162 69.3125 63.7778C69.3125 63.7012 69.3508 63.6936 69.3968 63.6936H69.6649C69.799 63.6936 69.9139 63.6936 70.0365 63.6476C70.1131 63.6169 70.1974 63.5595 70.228 63.4445C70.228 63.433 70.2472 63.3602 70.2472 62.8507V57.4487C70.1591 57.4411 70.0672 57.441 69.979 57.441C69.4619 57.441 69.0022 57.5062 68.7455 57.8625C68.5847 58.0847 68.5157 58.4257 68.3931 58.9812C68.374 59.0578 68.3548 59.1421 68.2591 59.1421C68.2399 59.1421 68.2322 59.1421 68.2131 59.1344C68.1748 59.1153 68.1748 59.0885 68.1748 59.0502C68.1748 58.9812 68.1748 58.9237 68.1863 58.8663C68.1939 58.7896 68.1939 58.713 68.2054 58.6364C68.282 57.6709 68.3012 57.5253 68.3088 57.2188C71.0363 57.2188 68.5962 57.2495 71.0861 57.2495C71.496 57.2495 73.0015 57.238 73.4037 57.2303C73.511 57.2303 73.5838 57.2188 73.6795 57.2112C73.691 57.5368 73.7102 57.8318 73.7561 58.2073L73.8328 58.8203C73.8519 59.0118 73.8404 59.077 73.7753 59.077C73.6719 59.077 73.6412 58.9237 73.6221 58.8663C73.4497 58.2264 73.3463 57.9008 73.1126 57.6977C72.8061 57.4296 72.3273 57.4296 72.0783 57.4296C71.8982 57.4296 71.791 57.4411 71.6761 57.4487V62.8584Z" fill="white"/>
<path d="M80.008 58.1383C80.008 57.6901 80.0271 57.5445 79.9314 57.4602C79.8854 57.4142 79.7858 57.3836 79.5176 57.3836H79.4027C79.2571 57.3836 79.2494 57.3376 79.2494 57.3184C79.2494 57.2725 79.2686 57.2341 79.4601 57.2341C79.9773 57.2341 80.4754 57.2533 80.9811 57.2533C81.8623 57.2533 81.6899 57.2227 82.0155 57.2227C82.073 57.2227 82.1764 57.2227 82.1764 57.2993C82.1764 57.4142 82.0155 57.3836 81.8431 57.3951C81.7473 57.4027 81.6401 57.4027 81.5634 57.441C81.4983 57.4717 81.4485 57.5177 81.4485 57.6977V63.1074C81.4485 63.2989 81.4485 63.479 81.5136 63.5671C81.6018 63.6705 81.7818 63.6705 82.1534 63.7012C82.1994 63.7012 82.2416 63.7127 82.2416 63.7663C82.2416 63.8046 82.2301 63.8315 82.1956 63.8429C82.1649 63.8544 82.1381 63.8544 82.1075 63.8544C81.9274 63.8544 81.5903 63.8161 80.9888 63.8161C80.6899 63.8161 80.3834 63.8276 80.0884 63.8353C79.8394 63.8468 79.5904 63.8544 79.3337 63.8544C79.2877 63.8544 79.2303 63.8544 79.1996 63.8161C79.1881 63.8085 79.1881 63.7855 79.1881 63.7702C79.1881 63.7318 79.1881 63.7242 79.2188 63.7127C79.2954 63.6935 79.372 63.7127 79.5712 63.6935C79.7053 63.682 79.8662 63.6629 79.9429 63.5403C79.9735 63.4943 80.0003 63.3947 80.0003 63.1687V58.1421L80.008 58.1383Z" fill="white"/>
<path d="M93.1358 57.9276C93.4614 58.2341 93.7181 58.6249 93.8905 59.0386C94.0897 59.506 94.1778 60.0233 94.1778 60.5405C94.1778 61.5366 93.8024 62.3871 93.2852 62.9618C93.0669 63.2108 92.8064 63.4215 92.5191 63.5824C92.09 63.82 91.592 63.954 91.094 63.954C90.2513 63.954 89.466 63.5824 88.9105 62.9694C88.3091 62.3105 87.9911 61.4178 87.9911 60.529C87.9911 59.9543 88.1176 59.3719 88.3742 58.8547C88.5198 58.5751 88.6998 58.3184 88.9105 58.0885C89.646 57.3031 90.5194 57.123 91.14 57.123C91.7261 57.123 92.4808 57.3031 93.132 57.9276H93.1358ZM90.1287 57.9659C89.872 58.4371 89.6805 59.1995 89.6805 60.3297C89.6805 60.9312 89.7265 62.4637 90.37 63.364C90.4352 63.4598 90.5156 63.5479 90.6075 63.6207C90.7876 63.7663 90.9791 63.8046 91.209 63.8046C91.5729 63.8046 91.8678 63.6897 92.09 63.1916C92.1743 62.9886 92.2433 62.7894 92.2931 62.5787C92.4271 61.9925 92.4923 61.2492 92.4923 60.5979C92.4923 59.6516 92.3582 58.5214 92.0441 57.8969C91.9789 57.7743 91.8985 57.6479 91.8066 57.5521C91.6457 57.3989 91.4043 57.284 91.1362 57.284C90.868 57.284 90.4275 57.4104 90.1325 57.9621L90.1287 57.9659Z" fill="white"/>
<path d="M100.778 58.9045C100.778 58.2992 100.759 58.054 100.682 57.8625C100.625 57.736 100.537 57.6326 100.426 57.556C100.361 57.5177 100.292 57.4793 100.215 57.4602C100.108 57.4295 99.9928 57.4219 99.8894 57.4142C99.5906 57.3951 99.4872 57.4257 99.4872 57.3184C99.4872 57.2725 99.514 57.2341 99.6213 57.2341C99.966 57.2341 99.8205 57.261 100.682 57.261C101.161 57.261 101.341 57.261 101.698 57.2418L105.057 61.5596V57.7667C105.057 57.4717 104.973 57.4219 104.789 57.4027C104.693 57.3951 104.605 57.3951 104.509 57.3951C104.425 57.3951 104.329 57.3951 104.241 57.3836C104.203 57.3836 104.126 57.3759 104.126 57.3184C104.126 57.1843 104.613 57.2341 104.919 57.2341H105.551C105.697 57.2341 105.869 57.2341 106.038 57.2418C106.145 57.2533 106.183 57.2533 106.199 57.2801C106.218 57.2993 106.21 57.3261 106.21 57.3567C106.21 57.3759 106.172 57.3874 106.145 57.3874C105.942 57.418 105.907 57.3989 105.628 57.418C105.532 57.4295 105.398 57.4295 105.352 57.4947C105.321 57.533 105.314 57.6173 105.314 57.8969V63.7855C105.314 63.843 105.325 63.9387 105.256 63.9387C105.218 63.9387 105.103 63.8161 105.072 63.7778L101.031 58.7321C101.019 60.0271 101.039 58.7436 101.039 60.3987V63.3755C101.039 63.4828 101.031 63.5671 101.165 63.6246C101.357 63.7012 101.625 63.7012 101.797 63.7012C101.862 63.7012 101.95 63.7012 101.989 63.7472C102 63.7587 102 63.7778 102 63.7855C102 63.8161 101.962 63.8621 101.855 63.8621C101.816 63.8621 101.778 63.8506 101.74 63.8506C101.632 63.8391 101.517 63.8391 101.414 63.8391C101.261 63.8391 101.115 63.8315 100.966 63.8315C100.832 63.8315 100.326 63.8391 100.115 63.8506C100.05 63.8506 99.989 63.8621 99.9239 63.8621C99.7707 63.8621 99.7438 63.8161 99.7438 63.7855C99.7438 63.6897 99.8894 63.7089 99.9737 63.7089C100.058 63.7089 100.135 63.6897 100.364 63.6705C100.491 63.6591 100.652 63.6399 100.728 63.5365C100.793 63.4522 100.774 63.2606 100.774 63.1533V58.9122L100.778 58.9045Z" fill="white"/>
<path d="M121.399 60.4295V62.87C121.399 63.2224 121.399 63.4446 121.464 63.5404C121.533 63.6477 121.694 63.6745 121.763 63.686C121.839 63.6975 121.924 63.7052 122.012 63.7052C122.058 63.7052 122.196 63.7166 122.196 63.8009C122.196 63.8584 122.127 63.8584 122.108 63.8584C122.012 63.8584 121.927 63.8469 121.832 63.8469H121.786L120.993 63.8163C120.916 63.8163 120.763 63.8163 120.353 63.8354C119.867 63.8546 119.644 63.8661 119.273 63.8661C119.234 63.8661 119.127 63.8661 119.127 63.7818C119.127 63.7052 119.211 63.7052 119.261 63.7052C119.338 63.7052 119.407 63.6975 119.483 63.686C119.56 63.6745 119.867 63.6285 119.924 63.5596C119.97 63.5021 119.962 63.3795 119.962 63.0807V57.7094C119.962 57.6442 119.962 57.5369 119.867 57.4603C119.759 57.3837 119.453 57.3645 119.273 57.3645C119.227 57.3645 119.146 57.3645 119.146 57.2803C119.146 57.2151 119.273 57.1921 119.326 57.1921C119.414 57.1921 119.491 57.2113 119.575 57.2305C119.641 57.2381 119.671 57.2381 119.709 57.2381L121.069 57.2496C121.318 57.2496 121.805 57.219 122.016 57.219C122.092 57.219 122.207 57.219 122.207 57.3147C122.207 57.3454 122.199 57.3607 122.188 57.3799C122.169 57.399 122.15 57.4105 122.111 57.4105L121.767 57.422C121.659 57.422 121.556 57.4488 121.498 57.5063C121.414 57.5906 121.403 57.7745 121.403 57.9354V60.1958H123.709V58.0503C123.709 57.8664 123.682 57.6289 123.575 57.514C123.471 57.399 123.326 57.399 123.222 57.399H123.042C122.996 57.399 122.897 57.399 122.897 57.3032C122.897 57.2841 122.904 57.2764 122.916 57.2573C122.946 57.219 122.962 57.219 123.012 57.219C123.126 57.219 123.234 57.219 123.337 57.2305C123.452 57.2381 123.471 57.2496 123.655 57.2496H125.187C125.444 57.2496 125.685 57.219 125.954 57.219C125.973 57.219 126.042 57.219 126.042 57.2764C126.042 57.3339 125.996 57.3416 125.965 57.3416C125.85 57.3607 125.743 57.3607 125.639 57.3722C125.479 57.3799 125.352 57.4105 125.276 57.4871C125.149 57.6097 125.161 57.8971 125.161 58.1193V62.8316C125.161 63.119 125.13 63.4331 125.314 63.5787C125.398 63.6477 125.532 63.686 125.639 63.7052C125.716 63.7166 125.785 63.7243 125.858 63.7358C125.927 63.7435 125.984 63.755 126.019 63.8009C126.03 63.8124 126.038 63.8316 126.038 63.8469C126.038 63.9044 125.969 63.9044 125.95 63.9044C125.854 63.9044 125.77 63.8852 125.693 63.8737C125.597 63.8622 125.513 63.8622 125.417 63.8622C125.034 63.8622 124.651 63.8316 124.268 63.8316C123.969 63.8316 123.245 63.8507 123.073 63.8507C123.015 63.8507 122.92 63.8507 122.92 63.7741C122.92 63.6975 123.004 63.6975 123.054 63.6975C123.169 63.6975 123.437 63.6592 123.563 63.5941C123.716 63.5174 123.716 63.3833 123.716 63.2301V60.4257H121.41L121.399 60.4295Z" fill="white"/>
<path d="M136.825 57.9276C137.151 58.2341 137.408 58.6249 137.58 59.0386C137.779 59.506 137.867 60.0233 137.867 60.5405C137.867 61.5366 137.492 62.3871 136.975 62.9618C136.756 63.2108 136.496 63.4215 136.209 63.5824C135.779 63.82 135.281 63.954 134.783 63.954C133.941 63.954 133.155 63.5824 132.6 62.9694C131.999 62.3105 131.681 61.4178 131.681 60.529C131.681 59.9543 131.807 59.3719 132.064 58.8547C132.209 58.5751 132.389 58.3184 132.6 58.0885C133.335 57.3031 134.209 57.123 134.829 57.123C135.416 57.123 136.17 57.3031 136.821 57.9276H136.825ZM133.818 57.9659C133.561 58.4371 133.37 59.1995 133.37 60.3297C133.37 60.9312 133.416 62.4637 134.059 63.364C134.125 63.4598 134.205 63.5479 134.297 63.6207C134.477 63.7663 134.669 63.8046 134.902 63.8046C135.266 63.8046 135.561 63.6897 135.783 63.1916C135.868 62.9886 135.937 62.7894 135.986 62.5787C136.12 61.9925 136.186 61.2492 136.186 60.5979C136.186 59.6516 136.051 58.5214 135.737 57.8969C135.672 57.7743 135.592 57.6479 135.5 57.5521C135.339 57.3989 135.098 57.284 134.829 57.284C134.561 57.284 134.121 57.4104 133.826 57.9621L133.818 57.9659Z" fill="white"/>
<path d="M147.061 62.8584C147.061 63.2223 147.061 63.4407 147.138 63.5365C147.168 63.5748 147.214 63.5939 147.264 63.6131C147.348 63.6437 147.425 63.6438 147.521 63.6514L147.873 63.6897C147.904 63.6897 147.919 63.6974 147.938 63.7089C147.969 63.7165 147.977 63.728 147.977 63.7663C147.977 63.843 147.938 63.8736 147.777 63.8736C147.54 63.8736 147.329 63.8277 146.352 63.8277C146.199 63.8277 146.038 63.8353 145.885 63.8353C145.533 63.8468 145.188 63.8545 144.831 63.8545C144.717 63.8545 144.697 63.8162 144.697 63.7778C144.697 63.7012 144.736 63.6936 144.782 63.6936H145.05C145.184 63.6936 145.299 63.6936 145.421 63.6476C145.498 63.6169 145.582 63.5595 145.613 63.4445C145.613 63.433 145.632 63.3602 145.632 62.8507V57.4487C145.544 57.4411 145.452 57.441 145.364 57.441C144.847 57.441 144.387 57.5062 144.13 57.8625C143.97 58.0847 143.901 58.4257 143.778 58.9812C143.759 59.0578 143.74 59.1421 143.644 59.1421C143.625 59.1421 143.617 59.1421 143.598 59.1344C143.56 59.1153 143.56 59.0885 143.56 59.0502C143.56 58.9812 143.56 58.9237 143.571 58.8663C143.579 58.7896 143.579 58.713 143.59 58.6364C143.667 57.6709 143.686 57.5253 143.694 57.2188C146.421 57.2188 143.981 57.2495 146.471 57.2495C146.881 57.2495 148.386 57.238 148.789 57.2303C148.896 57.2303 148.969 57.2188 149.064 57.2112C149.076 57.5368 149.095 57.8318 149.141 58.2073L149.218 58.8203C149.237 59.0118 149.225 59.077 149.16 59.077C149.057 59.077 149.026 58.9237 149.007 58.8663C148.835 58.2264 148.731 57.9008 148.497 57.6977C148.191 57.4296 147.712 57.4296 147.463 57.4296C147.283 57.4296 147.176 57.4411 147.061 57.4487V62.8584Z" fill="white"/>
<path d="M156.898 60.2532H157.377C157.818 60.2532 158.113 60.1957 158.285 60.054C158.496 59.8816 158.553 59.5674 158.591 59.2877C158.603 59.1843 158.611 58.9544 158.706 58.9353H158.737C158.775 58.9353 158.821 58.9468 158.821 59.1383C158.821 59.2648 158.814 59.3874 158.802 59.51C158.791 59.6172 158.791 59.7092 158.791 59.8164C158.764 61.0501 158.81 61.4332 158.81 61.7014C158.81 61.732 158.81 61.8087 158.733 61.8087C158.607 61.8087 158.607 61.6171 158.58 61.4562C158.503 60.9965 158.457 60.7359 158.323 60.6057C158.17 60.4601 157.864 60.4448 157.549 60.4448H156.898V63.6706L158.182 63.6591C158.499 63.6591 158.994 63.6706 159.35 63.4024C159.541 63.2569 159.645 63.0576 159.656 63.0385C159.741 62.8661 159.848 62.4255 159.875 62.1765C159.875 62.1458 159.894 62.0309 159.963 62.0309C159.982 62.0309 160.001 62.0424 160.009 62.05C160.047 62.0883 160.047 62.1573 160.047 62.2109C160.047 62.3833 160.039 62.5481 160.039 62.709C160.039 62.9389 160.028 63.1381 160.02 63.9158C158.595 63.8967 158.871 63.8507 156.151 63.8507C155.584 63.8507 154.879 63.8698 154.657 63.8698C154.6 63.8698 154.55 63.8622 154.55 63.7932C154.55 63.7357 154.588 63.7281 154.627 63.7281L154.945 63.7013C155.04 63.6898 155.125 63.6821 155.213 63.6553C155.282 63.6361 155.347 63.6093 155.385 63.5595C155.469 63.4637 155.462 63.2913 155.462 63.1649V57.8319C155.462 57.7055 155.462 57.5522 155.374 57.4794C155.335 57.4411 155.251 57.4105 155.002 57.4105H154.803C154.765 57.4105 154.707 57.4028 154.707 57.3262C154.707 57.2304 154.772 57.2304 154.86 57.2304H155.213C155.423 57.2304 155.806 57.2304 156.37 57.2227C156.898 57.2112 157.423 57.2036 157.948 57.2036C158.293 57.2036 158.626 57.2151 158.971 57.2151C159.143 57.2151 159.315 57.2151 159.488 57.2036C159.572 57.2036 159.641 57.1959 159.744 57.1768C159.802 57.9698 159.821 58.1231 159.829 58.2188C159.848 58.4104 159.875 58.602 159.875 58.805C159.875 58.8433 159.875 58.9276 159.798 58.9276C159.683 58.9276 159.683 58.8242 159.653 58.6901C159.568 58.3261 159.492 58.0005 159.147 57.7438C158.879 57.5407 158.45 57.4181 157.779 57.4181C157.569 57.4181 157.358 57.4296 156.891 57.4488V60.2724L156.898 60.2532Z" fill="white"/>
<path d="M167.931 63.6439C168.352 63.663 169.375 63.6516 169.77 63.5749C170.183 63.4983 170.421 63.3067 170.593 62.9619C170.7 62.7512 170.785 62.2647 170.804 62.1689C170.815 62.1229 170.823 62.0846 170.85 62.0425C170.85 62.0425 170.856 62.0361 170.869 62.0233C170.869 62.0233 170.88 62.0156 170.888 62.0156C170.896 62.0156 170.915 62.0348 170.926 62.0425C170.965 62.0884 170.957 62.1574 170.957 62.2264C170.957 62.7627 170.919 62.6938 170.919 63.211C170.919 63.3719 170.93 63.5366 170.93 63.6975V63.8891C170.432 63.8584 170.183 63.8584 169.697 63.8584C169.057 63.8584 168.413 63.8393 167.774 63.8393H166.1C165.927 63.8393 165.812 63.8508 165.709 63.8086C165.69 63.801 165.678 63.801 165.678 63.7627C165.678 63.7243 165.697 63.686 165.812 63.686C165.958 63.686 166.31 63.6477 166.425 63.5519C166.483 63.506 166.513 63.4255 166.513 63.0922V57.9009C166.513 57.6519 166.494 57.5561 166.444 57.4987C166.398 57.4335 166.31 57.4029 166.245 57.3837C166.199 57.3722 166.138 57.3646 166.092 57.3646C166.015 57.3646 165.939 57.3722 165.862 57.3722C165.766 57.3722 165.747 57.3339 165.747 57.2956C165.747 57.219 165.832 57.219 165.881 57.219C165.939 57.219 165.996 57.2267 166.054 57.2267C166.291 57.2381 166.54 57.2381 166.789 57.2381C167.371 57.2381 167.927 57.219 168.521 57.219C168.559 57.219 168.666 57.219 168.666 57.2956C168.666 57.3263 168.647 57.3837 168.494 57.3837C168.329 57.3837 168.092 57.3531 167.996 57.4795C167.965 57.5255 167.938 57.6136 167.938 57.9086V63.6362L167.931 63.6439Z" fill="white"/>
<path d="M180.561 57.2112C180.561 57.2687 180.549 57.307 180.542 57.4104C180.542 57.5177 180.522 57.7821 180.522 58.0234C180.522 58.5521 180.568 58.4717 180.568 58.759C180.568 58.8356 180.522 58.8433 180.492 58.8433C180.384 58.8433 180.346 58.6517 180.331 58.556C180.3 58.4104 180.235 58.2878 180.17 58.1652C180.036 57.9277 179.825 57.6365 179.584 57.4947C179.461 57.4181 179.251 57.3223 178.913 57.3223C178.32 57.3223 177.745 57.5905 177.745 58.2878C177.745 58.4679 177.776 58.6326 177.929 58.8433C178.12 59.1115 178.446 59.3414 179.182 59.7513C179.595 59.9812 180.224 60.326 180.549 60.6708C180.867 61.0079 181.04 61.4753 181.04 61.9657C181.04 62.9312 180.319 63.9656 178.81 63.9656C178.331 63.9656 178.063 63.889 177.691 63.7434C177.262 63.5825 177.182 63.5442 177.109 63.5442C177.071 63.5442 177.04 63.5518 177.013 63.571C176.975 63.5901 176.956 63.6285 176.937 63.6668C176.853 63.8507 176.86 63.9464 176.81 63.9848C176.803 63.9924 176.791 63.9924 176.78 63.9924C176.753 63.9924 176.703 63.9541 176.703 63.8583C176.703 63.7127 176.787 63.3603 176.787 62.7396C176.787 62.4523 176.757 62.4025 176.757 62.004C176.757 61.9657 176.749 61.8431 176.853 61.8431C176.967 61.8431 176.979 62.0347 177.025 62.2531C177.109 62.6285 177.262 63.0385 177.626 63.3564C177.864 63.5672 178.278 63.7779 178.718 63.7779C179.473 63.7779 179.944 63.2224 179.944 62.6209C179.944 62.345 179.829 62.142 179.714 62.0194C179.503 61.7895 179.005 61.5481 178.603 61.3374C177.81 60.916 177.427 60.5903 177.186 60.2264C176.879 59.7666 176.841 59.2379 176.841 59.0195C176.841 57.8702 177.76 57.1154 178.956 57.1154C179.224 57.1154 179.5 57.1538 179.921 57.3453C180.082 57.4219 180.101 57.4104 180.178 57.4219C180.197 57.4219 180.224 57.4296 180.243 57.4219C180.338 57.3913 180.338 57.2572 180.369 57.1729C180.396 57.0886 180.407 57.0886 180.453 57.0886C180.492 57.0886 180.549 57.0963 180.549 57.2151L180.561 57.2112Z" fill="white"/>
</g>
<defs>
<clipPath id="clip0_21018_8467">
<rect width="182.4" height="64" fill="white" transform="translate(0.799927)"/>
</clipPath>
</defs>
</svg>
