<svg width="114" height="40" viewBox="0 0 114 40" fill="none" xmlns="http://www.w3.org/2000/svg">
<path d="M3.75172 0H0V11.0458H3.75172V0Z" fill="#3E441D"/>
<path d="M3.75172 17.7168H0V25.3049H3.75172V17.7168Z" fill="#3E441D"/>
<path d="M14.7914 12.6525C17.5663 11.8623 19.8384 10.1862 19.8384 7.24332C19.8384 1.09905 11.4132 0.162806 8.49463 0.0239258V25.2882C11.9806 25.1709 20.3388 24.2682 20.3388 17.9347C20.3388 17.9347 20.5662 14.0126 14.7914 12.6525Z" fill="#3E441D"/>
<path d="M42.0183 20.5783H31.6514V0.284945C31.6514 0.158037 31.5029 0 31.2803 0H26.3769C26.1543 0 25.9675 0.158037 25.9675 0.284945V25.0057C25.9675 25.1326 26.1543 25.2906 26.3769 25.2906H42.0183C42.2792 25.2906 42.4277 25.1326 42.4277 25.0057V20.8967C42.4277 20.7387 42.2792 20.5807 42.0183 20.5807V20.5783Z" fill="#3E441D"/>
<path d="M48.0565 0.284945V25.0057C48.0565 25.1326 48.2432 25.2906 48.4659 25.2906H65.8167V20.5807H53.7427V14.8913H65.4097C65.6323 14.8913 65.8191 14.7333 65.8191 14.6064V10.5908C65.8191 10.4328 65.6323 10.3059 65.4097 10.3059H53.7427V4.58545H65.8167V0H48.4659C48.2432 0 48.0565 0.158037 48.0565 0.284945Z" fill="#3E441D"/>
<path d="M86.9144 12.2502C86.3901 11.8959 85.8346 11.5582 85.193 11.2924C83.517 10.598 82.0709 10.4951 81.2641 10.4472C81.039 10.4328 80.067 10.361 79.8467 10.3275C78.4796 10.1168 77.2083 9.23318 77.012 7.85635C77.0024 7.78212 77 7.7055 77 7.62648C77 5.60313 78.6712 4.55913 80.7158 4.55913C82.6479 4.55913 84.2832 5.41397 84.3574 7.21462C84.3574 7.3104 84.5442 7.46844 84.7668 7.46844H89.4116C89.6725 7.46844 89.8569 7.3104 89.821 7.21462C89.7444 2.91651 85.8059 0.00720215 80.7158 0.00720215C80.7038 0.00720215 80.6919 0.00720215 80.6775 0.00720215C75.9226 0.00720215 71.4622 2.62917 71.4622 7.37266C71.4622 7.42534 71.4622 7.47802 71.4646 7.5307C71.4646 7.56183 71.4622 7.59295 71.4622 7.62648C71.4622 9.95153 72.554 11.8408 74.5364 13.1218C75.0607 13.4762 75.6449 13.7875 76.2937 14.0413C78.4126 14.8938 80.0119 14.8339 80.6775 14.8938C80.9002 14.9129 81.3527 14.956 81.5706 14.9967C82.9329 15.241 84.185 16.0695 84.3837 17.4463C84.3933 17.5205 84.3957 17.5971 84.3957 17.6762C84.3957 19.6995 82.7246 20.7435 80.6799 20.7435C78.7478 20.7435 77.1125 19.8887 77.0383 18.088C77.0383 17.9922 76.8516 17.8342 76.6289 17.8342H71.9842C71.7232 17.8342 71.5388 17.9922 71.5747 18.088C71.649 22.3861 75.5874 25.2954 80.6775 25.2954C80.6895 25.2954 80.7015 25.2954 80.7158 25.2954C85.4707 25.2954 89.9311 22.6735 89.9311 17.93C89.9311 17.8773 89.9311 17.8246 89.9287 17.7719C89.9287 17.7408 89.9311 17.7097 89.9311 17.6762C89.9311 15.3511 88.8968 13.5313 86.9144 12.2478V12.2502Z" fill="#3E441D"/>
<path d="M110.983 12.2502C110.459 11.8959 109.904 11.5582 109.262 11.2924C107.586 10.598 106.14 10.4951 105.333 10.4472C105.108 10.4328 104.136 10.361 103.916 10.3275C102.549 10.1168 101.277 9.23318 101.081 7.85635C101.071 7.78212 101.069 7.7055 101.069 7.62648C101.069 5.60313 102.74 4.55913 104.785 4.55913C106.717 4.55913 108.352 5.41397 108.426 7.21462C108.426 7.3104 108.613 7.46844 108.836 7.46844H113.48C113.741 7.46844 113.926 7.3104 113.89 7.21462C113.813 2.91651 109.875 0.00720215 104.785 0.00720215C104.773 0.00720215 104.761 0.00720215 104.746 0.00720215C99.9915 0.00720215 95.5311 2.62917 95.5311 7.37266C95.5311 7.42534 95.5311 7.47802 95.5335 7.5307C95.5335 7.56183 95.5311 7.59295 95.5311 7.62648C95.5311 9.95153 96.6229 11.8408 98.6053 13.1218C99.1296 13.4762 99.7138 13.7875 100.363 14.0413C102.482 14.8938 104.081 14.8339 104.746 14.8938C104.969 14.9129 105.422 14.956 105.639 14.9967C107.002 15.241 108.254 16.0695 108.453 17.4463C108.462 17.5205 108.465 17.5971 108.465 17.6762C108.465 19.6995 106.793 20.7435 104.749 20.7435C102.817 20.7435 101.181 19.8887 101.107 18.088C101.107 17.9922 100.92 17.8342 100.698 17.8342H96.0531C95.7921 17.8342 95.6077 17.9922 95.6437 18.088C95.7179 22.3861 99.6563 25.2954 104.746 25.2954C104.758 25.2954 104.77 25.2954 104.785 25.2954C109.54 25.2954 114 22.6735 114 17.93C114 17.8773 114 17.8246 113.998 17.7719C113.998 17.7408 114 17.7097 114 17.6762C114 15.3511 112.966 13.5313 110.983 12.2478V12.2502Z" fill="#3E441D"/>
<path d="M3.33275 36.7387C3.33275 36.8393 3.33994 36.9351 3.33994 37.0189C3.33994 37.0787 3.33275 37.1386 3.28726 37.1386C3.22741 37.1386 3.21544 37.0428 3.20825 37.0069C3.19628 36.9399 3.18431 36.8752 3.17234 36.8082C3.11967 36.5687 3.04066 36.3532 2.86109 36.1449C2.71744 35.9845 2.51394 35.8288 2.20269 35.8288C2.04228 35.8288 1.85074 35.8815 1.71188 35.9845C1.64005 36.0371 1.5802 36.1114 1.52752 36.1832C1.40302 36.3628 1.25937 36.6621 1.17557 37.2009C1.13966 37.4331 1.1229 37.6726 1.1229 37.912C1.1229 38.5514 1.26655 39.2098 1.5778 39.5523C1.67357 39.66 1.79328 39.7438 1.95369 39.7917C2.03749 39.8156 2.12129 39.8276 2.21227 39.8276C2.46845 39.8276 2.66716 39.7366 2.83955 39.5882C3.05024 39.4086 3.15079 39.1931 3.17474 39.138C3.21065 39.0662 3.23459 38.9895 3.25853 38.9105C3.30642 38.7549 3.31839 38.6902 3.33036 38.6232C3.33515 38.5873 3.34951 38.5561 3.37106 38.5322C3.38303 38.5202 3.39979 38.513 3.41176 38.513C3.42373 38.513 3.45965 38.525 3.45965 38.5969C3.45965 38.6735 3.44767 38.7405 3.43092 38.9081C3.40218 39.1955 3.40219 39.4349 3.40219 39.478V39.6145C3.40219 39.6983 3.41416 39.7893 3.41416 39.8731C3.41416 39.8923 3.41416 39.945 3.37824 39.945C3.3543 39.945 3.33515 39.909 3.31839 39.8851C3.25135 39.7773 3.18671 39.6576 3.03827 39.6049C2.88264 39.7606 2.58337 39.9881 2.08777 39.9881C1.59217 39.9881 1.04629 39.7438 0.69434 39.4014C0.215499 38.9417 0.0598755 38.3191 0.0598755 37.833C0.0598755 37.3014 0.244229 36.7794 0.562658 36.3963C0.830809 36.0659 1.30965 35.6899 2.08777 35.6899C2.29846 35.6899 2.50675 35.7187 2.76293 35.8695C2.82279 35.9054 2.91856 35.9701 3.03108 35.9701C3.13164 35.9701 3.21065 35.9031 3.25853 35.8576C3.31121 35.7905 3.33036 35.7737 3.34951 35.7737C3.3543 35.7737 3.37824 35.7737 3.37824 35.8097C3.37824 35.8456 3.36627 35.8623 3.3543 36.0132C3.34233 36.1401 3.33515 36.3173 3.33515 36.4562V36.7363L3.33275 36.7387Z" fill="#3E441D"/>
<path d="M10.4004 36.2047C10.604 36.3963 10.7644 36.6405 10.8721 36.8992C10.9966 37.1913 11.0517 37.5145 11.0517 37.8378C11.0517 38.4604 10.817 38.9919 10.4938 39.3511C10.3573 39.5068 10.1945 39.6385 10.015 39.739C9.74683 39.8875 9.43558 39.9713 9.12433 39.9713C8.59761 39.9713 8.1068 39.739 7.75964 39.3559C7.38375 38.944 7.18503 38.3861 7.18503 37.8306C7.18503 37.4714 7.26404 37.1075 7.42445 36.7842C7.51543 36.6094 7.62796 36.449 7.75964 36.3053C8.21932 35.8144 8.7652 35.7019 9.15306 35.7019C9.51938 35.7019 9.99104 35.8144 10.3981 36.2047H10.4004ZM8.52099 36.2287C8.36058 36.5232 8.24087 36.9997 8.24087 37.7061C8.24087 38.082 8.2696 39.0398 8.67183 39.6025C8.71253 39.6624 8.76281 39.7175 8.82027 39.763C8.9328 39.854 9.05251 39.8779 9.19855 39.8779C9.426 39.8779 9.61036 39.8061 9.74922 39.4948C9.80189 39.3679 9.84499 39.2434 9.87611 39.1117C9.95991 38.7453 10.0006 38.2808 10.0006 37.8737C10.0006 37.2823 9.91681 36.5759 9.72049 36.1856C9.67979 36.109 9.62951 36.0299 9.57205 35.9701C9.47149 35.8743 9.32066 35.8025 9.15306 35.8025C8.98547 35.8025 8.71014 35.8815 8.52578 36.2263L8.52099 36.2287Z" fill="#3E441D"/>
<path d="M16.0268 39.7773C16.2902 39.7893 16.9294 39.7821 17.176 39.7342C17.4346 39.6863 17.583 39.5666 17.6908 39.3511C17.7578 39.2194 17.8105 38.9153 17.8225 38.8554C17.8296 38.8267 17.8344 38.8027 17.8512 38.7764C17.8512 38.7764 17.8552 38.7724 17.8632 38.7644C17.8632 38.7644 17.8703 38.7596 17.8751 38.7596C17.8799 38.7596 17.8919 38.7716 17.8991 38.7764C17.923 38.8051 17.9182 38.8482 17.9182 38.8913C17.9182 39.2265 17.8943 39.1834 17.8943 39.5067C17.8943 39.6073 17.9015 39.7102 17.9015 39.8108V39.9305C17.5902 39.9114 17.4346 39.9114 17.1305 39.9114C16.7307 39.9114 16.3285 39.8994 15.9286 39.8994H14.8824C14.7746 39.8994 14.7028 39.9066 14.6382 39.8802C14.6262 39.8755 14.619 39.8755 14.619 39.8515C14.619 39.8276 14.631 39.8036 14.7028 39.8036C14.7938 39.8036 15.0141 39.7797 15.0859 39.7198C15.1218 39.6911 15.141 39.6408 15.141 39.4325V36.1879C15.141 36.0323 15.129 35.9724 15.0979 35.9365C15.0691 35.8958 15.0141 35.8767 14.9734 35.8647C14.9446 35.8575 14.9063 35.8527 14.8776 35.8527C14.8297 35.8527 14.7818 35.8575 14.7339 35.8575C14.6741 35.8575 14.6621 35.8336 14.6621 35.8096C14.6621 35.7617 14.7148 35.7617 14.7459 35.7617C14.7818 35.7617 14.8177 35.7665 14.8537 35.7665C15.0021 35.7737 15.1577 35.7737 15.3133 35.7737C15.6773 35.7737 16.0244 35.7617 16.3955 35.7617C16.4195 35.7617 16.4865 35.7617 16.4865 35.8096C16.4865 35.8288 16.4745 35.8647 16.3788 35.8647C16.2758 35.8647 16.1274 35.8455 16.0675 35.9245C16.0484 35.9533 16.0316 36.0083 16.0316 36.1927V39.7725L16.0268 39.7773Z" fill="#3E441D"/>
<path d="M22.7426 39.7773C23.0059 39.7893 23.6452 39.7821 23.8918 39.7342C24.1504 39.6863 24.2988 39.5666 24.4065 39.3511C24.4736 39.2194 24.5263 38.9153 24.5382 38.8554C24.5454 38.8267 24.5502 38.8027 24.567 38.7764C24.567 38.7764 24.5709 38.7724 24.5789 38.7644C24.5789 38.7644 24.5861 38.7596 24.5909 38.7596C24.5957 38.7596 24.6077 38.7716 24.6148 38.7764C24.6388 38.8051 24.634 38.8482 24.634 38.8913C24.634 39.2265 24.61 39.1834 24.61 39.5067C24.61 39.6073 24.6172 39.7102 24.6172 39.8108V39.9305C24.306 39.9114 24.1504 39.9114 23.8463 39.9114C23.4465 39.9114 23.0442 39.8994 22.6444 39.8994H21.5981C21.4904 39.8994 21.4186 39.9066 21.3539 39.8802C21.342 39.8755 21.3348 39.8755 21.3348 39.8515C21.3348 39.8276 21.3467 39.8036 21.4186 39.8036C21.5096 39.8036 21.7298 39.7797 21.8016 39.7198C21.8376 39.6911 21.8567 39.6408 21.8567 39.4325V36.1879C21.8567 36.0323 21.8447 35.9724 21.8136 35.9365C21.7849 35.8958 21.7298 35.8767 21.6891 35.8647C21.6604 35.8575 21.6221 35.8527 21.5934 35.8527C21.5455 35.8527 21.4976 35.8575 21.4497 35.8575C21.3898 35.8575 21.3779 35.8336 21.3779 35.8096C21.3779 35.7617 21.4305 35.7617 21.4617 35.7617C21.4976 35.7617 21.5335 35.7665 21.5694 35.7665C21.7178 35.7737 21.8735 35.7737 22.0291 35.7737C22.393 35.7737 22.7402 35.7617 23.1113 35.7617C23.1352 35.7617 23.2023 35.7617 23.2023 35.8096C23.2023 35.8288 23.1903 35.8647 23.0945 35.8647C22.9916 35.8647 22.8431 35.8455 22.7833 35.9245C22.7641 35.9533 22.7474 36.0083 22.7474 36.1927V39.7725L22.7426 39.7773Z" fill="#3E441D"/>
<path d="M29.5062 37.6581H29.8055C30.0808 37.6581 30.2652 37.6222 30.3729 37.5336C30.5046 37.4259 30.5405 37.2295 30.5644 37.0547C30.5716 36.9901 30.5764 36.8464 30.6363 36.8344H30.6554C30.6793 36.8344 30.7081 36.8416 30.7081 36.9613C30.7081 37.0403 30.7033 37.117 30.6961 37.1936C30.6889 37.2606 30.6889 37.3181 30.6889 37.3852C30.6722 38.1562 30.7009 38.3956 30.7009 38.5632C30.7009 38.5824 30.7009 38.6303 30.653 38.6303C30.574 38.6303 30.574 38.5106 30.5572 38.41C30.5094 38.1227 30.4806 37.9598 30.3968 37.8784C30.3011 37.7874 30.1095 37.7779 29.9132 37.7779H29.5062V39.794L30.3082 39.7868C30.507 39.7868 30.8158 39.794 31.0385 39.6264C31.1582 39.5354 31.2228 39.4109 31.23 39.3989C31.2827 39.2912 31.3497 39.0158 31.3689 38.8602C31.3689 38.841 31.3809 38.7692 31.4216 38.7692C31.4335 38.7692 31.4455 38.7764 31.4503 38.7811C31.4742 38.8051 31.4742 38.8482 31.4742 38.8817C31.4742 38.9895 31.4694 39.0924 31.4694 39.193C31.4694 39.3367 31.4623 39.4612 31.4575 39.9473C30.5668 39.9353 30.7392 39.9066 29.0393 39.9066C28.6874 39.9066 28.2444 39.9185 28.1056 39.9185C28.0697 39.9185 28.0385 39.9137 28.0385 39.8706C28.0385 39.8347 28.0625 39.8299 28.0864 39.8299L28.2851 39.8132C28.345 39.806 28.3977 39.8012 28.4527 39.7844C28.4934 39.7725 28.5365 39.7557 28.5605 39.7246C28.6132 39.6647 28.6084 39.557 28.6084 39.4779V36.1448C28.6084 36.0658 28.6084 35.97 28.5533 35.9245C28.5294 35.9006 28.4767 35.8814 28.3211 35.8814H28.1966C28.1726 35.8814 28.1367 35.8766 28.1367 35.8287C28.1367 35.7689 28.1774 35.7689 28.2325 35.7689H28.4527C28.5844 35.7689 28.8238 35.7689 29.1758 35.7641C29.5062 35.7569 29.8342 35.7521 30.1622 35.7521C30.3777 35.7521 30.586 35.7593 30.8015 35.7593C30.9092 35.7593 31.0169 35.7593 31.1247 35.7521C31.1773 35.7521 31.2204 35.7473 31.2851 35.7354C31.321 36.231 31.333 36.3268 31.3378 36.3867C31.3497 36.5064 31.3665 36.6261 31.3665 36.753C31.3665 36.777 31.3665 36.8296 31.3186 36.8296C31.2468 36.8296 31.2468 36.765 31.2276 36.6812C31.1749 36.4537 31.1271 36.2502 30.9116 36.0897C30.744 35.9628 30.4758 35.8862 30.0569 35.8862C29.9252 35.8862 29.7935 35.8934 29.5014 35.9054V37.6701L29.5062 37.6581Z" fill="#3E441D"/>
<path d="M38.4295 36.7387C38.4295 36.8393 38.4366 36.9351 38.4366 37.0189C38.4366 37.0787 38.4295 37.1386 38.384 37.1386C38.3241 37.1386 38.3121 37.0428 38.305 37.0069C38.293 36.9399 38.281 36.8752 38.2691 36.8082C38.2164 36.5687 38.1374 36.3532 37.9578 36.1449C37.8142 35.9845 37.6106 35.8288 37.2994 35.8288C37.139 35.8288 36.9475 35.8815 36.8086 35.9845C36.7368 36.0371 36.6769 36.1114 36.6242 36.1832C36.4997 36.3628 36.3561 36.6621 36.2723 37.2009C36.2364 37.4331 36.2196 37.6726 36.2196 37.912C36.2196 38.5514 36.3633 39.2098 36.6745 39.5523C36.7703 39.66 36.89 39.7438 37.0504 39.7917C37.1342 39.8157 37.218 39.8276 37.309 39.8276C37.5652 39.8276 37.7639 39.7366 37.9363 39.5882C38.1469 39.4086 38.2475 39.1931 38.2714 39.138C38.3074 39.0662 38.3313 38.9896 38.3552 38.9105C38.4031 38.7549 38.4151 38.6902 38.4271 38.6232C38.4319 38.5873 38.4462 38.5561 38.4678 38.5322C38.4797 38.5202 38.4965 38.513 38.5085 38.513C38.5204 38.513 38.5564 38.525 38.5564 38.5969C38.5564 38.6735 38.5444 38.7405 38.5276 38.9081C38.4989 39.1955 38.4989 39.4349 38.4989 39.478V39.6145C38.4989 39.6983 38.5109 39.7893 38.5109 39.8731C38.5109 39.8923 38.5109 39.945 38.475 39.945C38.451 39.945 38.4319 39.909 38.4151 39.8851C38.3481 39.7773 38.2834 39.6576 38.135 39.6049C37.9794 39.7606 37.6801 39.9881 37.1845 39.9881C36.6889 39.9881 36.143 39.7438 35.7911 39.4014C35.3122 38.9417 35.1566 38.3191 35.1566 37.833C35.1566 37.3014 35.3409 36.7794 35.6594 36.3963C35.9275 36.0659 36.4064 35.6899 37.1845 35.6899C37.3952 35.6899 37.6035 35.7187 37.8596 35.8695C37.9195 35.9054 38.0153 35.9701 38.1278 35.9701C38.2284 35.9701 38.3074 35.9031 38.3552 35.8576C38.4079 35.7905 38.4271 35.7737 38.4462 35.7737C38.451 35.7737 38.475 35.7737 38.475 35.8097C38.475 35.8456 38.463 35.8623 38.451 36.0132C38.439 36.1401 38.4319 36.3173 38.4319 36.4562V36.7363L38.4295 36.7387Z" fill="#3E441D"/>
<path d="M44.2976 39.2864C44.2976 39.5139 44.2976 39.6504 44.3455 39.7103C44.3647 39.7342 44.3934 39.7462 44.4245 39.7582C44.4772 39.7773 44.5251 39.7773 44.5849 39.7821L44.8052 39.806C44.8243 39.806 44.8339 39.8108 44.8459 39.818C44.865 39.8228 44.8698 39.83 44.8698 39.8539C44.8698 39.9018 44.8459 39.921 44.7453 39.921C44.5969 39.921 44.4652 39.8922 43.8547 39.8922C43.7589 39.8922 43.6584 39.897 43.5626 39.897C43.3423 39.9042 43.1268 39.909 42.9042 39.909C42.8324 39.909 42.8204 39.8851 42.8204 39.8611C42.8204 39.8132 42.8443 39.8084 42.8731 39.8084H43.0407C43.1245 39.8084 43.1963 39.8084 43.2729 39.7797C43.3208 39.7606 43.3735 39.7246 43.3926 39.6528C43.3926 39.6456 43.4046 39.6001 43.4046 39.2817V35.9054C43.3495 35.9006 43.292 35.9006 43.237 35.9006C42.9138 35.9006 42.6265 35.9413 42.466 36.164C42.3655 36.3029 42.3224 36.516 42.2458 36.8632C42.2338 36.9111 42.2218 36.9638 42.162 36.9638C42.15 36.9638 42.1452 36.9638 42.1333 36.959C42.1093 36.947 42.1093 36.9303 42.1093 36.9063C42.1093 36.8632 42.1093 36.8273 42.1165 36.7914C42.1213 36.7435 42.1213 36.6956 42.1285 36.6477C42.1764 36.0443 42.1883 35.9533 42.1931 35.7617C43.8978 35.7617 42.3727 35.7809 43.9289 35.7809C44.1851 35.7809 45.126 35.7737 45.3774 35.7689C45.4444 35.7689 45.4899 35.7617 45.5498 35.757C45.557 35.9605 45.5689 36.1449 45.5977 36.3795L45.6456 36.7626C45.6575 36.8824 45.6503 36.9231 45.6096 36.9231C45.545 36.9231 45.5258 36.8273 45.5139 36.7914C45.4061 36.3915 45.3415 36.188 45.1954 36.0611C45.0039 35.8934 44.7046 35.8934 44.549 35.8934C44.4365 35.8934 44.3694 35.9006 44.2976 35.9054V39.2864Z" fill="#3E441D"/>
<path d="M49.505 36.3364C49.505 36.0563 49.517 35.9653 49.4571 35.9126C49.4284 35.8839 49.3662 35.8647 49.1985 35.8647H49.1267C49.0357 35.8647 49.0309 35.836 49.0309 35.824C49.0309 35.7953 49.0429 35.7713 49.1626 35.7713C49.4859 35.7713 49.7972 35.7833 50.1132 35.7833C50.664 35.7833 50.5562 35.7642 50.7597 35.7642C50.7957 35.7642 50.8603 35.7642 50.8603 35.812C50.8603 35.8839 50.7598 35.8647 50.652 35.8719C50.5921 35.8767 50.5251 35.8767 50.4772 35.9006C50.4365 35.9198 50.4054 35.9485 50.4054 36.0611V39.4421C50.4054 39.5618 50.4054 39.6744 50.4461 39.7294C50.5011 39.7941 50.6137 39.7941 50.846 39.8132C50.8747 39.8132 50.901 39.8204 50.901 39.854C50.901 39.8779 50.8938 39.8947 50.8723 39.9018C50.8531 39.909 50.8364 39.909 50.8172 39.909C50.7047 39.909 50.494 39.8851 50.118 39.8851C49.9313 39.8851 49.7397 39.8923 49.5553 39.8971C49.3997 39.9042 49.244 39.909 49.0836 39.909C49.0549 39.909 49.019 39.909 48.9998 39.8851C48.9926 39.8803 48.9926 39.8659 48.9926 39.8563C48.9926 39.8324 48.9926 39.8276 49.0118 39.8204C49.0597 39.8085 49.1076 39.8204 49.2321 39.8085C49.3159 39.8013 49.4164 39.7893 49.4643 39.7127C49.4835 39.6839 49.5002 39.6217 49.5002 39.4804V36.3388L49.505 36.3364Z" fill="#3E441D"/>
<path d="M57.7099 36.2047C57.9134 36.3963 58.0738 36.6405 58.1816 36.8992C58.3061 37.1913 58.3611 37.5145 58.3611 37.8378C58.3611 38.4604 58.1265 38.9919 57.8033 39.3511C57.6668 39.5068 57.504 39.6385 57.3245 39.739C57.0563 39.8875 56.7451 39.9713 56.4338 39.9713C55.9071 39.9713 55.4163 39.739 55.0691 39.3559C54.6932 38.944 54.4945 38.3861 54.4945 37.8306C54.4945 37.4714 54.5735 37.1075 54.7339 36.7842C54.8249 36.6094 54.9374 36.449 55.0691 36.3053C55.5288 35.8144 56.0747 35.7019 56.4625 35.7019C56.8289 35.7019 57.3005 35.8144 57.7075 36.2047H57.7099ZM55.8305 36.2287C55.6701 36.5232 55.5504 36.9997 55.5504 37.7061C55.5504 38.082 55.5791 39.0398 55.9813 39.6025C56.022 39.6624 56.0723 39.7175 56.1297 39.763C56.2423 39.854 56.362 39.8779 56.5056 39.8779C56.7331 39.8779 56.9174 39.8061 57.0563 39.4948C57.109 39.3679 57.1521 39.2434 57.1832 39.1117C57.267 38.7453 57.3077 38.2808 57.3077 37.8737C57.3077 37.2823 57.2239 36.5759 57.0276 36.1856C56.9869 36.109 56.9366 36.0299 56.8791 35.9701C56.7786 35.8743 56.6277 35.8025 56.4602 35.8025C56.2926 35.8025 56.0172 35.8815 55.8329 36.2263L55.8305 36.2287Z" fill="#3E441D"/>
<path d="M62.4863 36.8153C62.4863 36.4369 62.4744 36.2837 62.4265 36.164C62.3906 36.085 62.3355 36.0203 62.2661 35.9724C62.2254 35.9485 62.1823 35.9245 62.1344 35.9126C62.0674 35.8934 61.9955 35.8886 61.9309 35.8838C61.7442 35.8718 61.6795 35.891 61.6795 35.824C61.6795 35.7952 61.6963 35.7713 61.7633 35.7713C61.9788 35.7713 61.8878 35.788 62.4265 35.788C62.7258 35.788 62.8383 35.788 63.061 35.7761L65.1607 38.4747V36.1041C65.1607 35.9197 65.108 35.8886 64.9931 35.8766C64.9332 35.8718 64.8782 35.8718 64.8183 35.8718C64.7656 35.8718 64.7058 35.8718 64.6507 35.8647C64.6268 35.8647 64.5789 35.8599 64.5789 35.824C64.5789 35.7402 64.8829 35.7713 65.0745 35.7713H65.4695C65.5605 35.7713 65.6682 35.7713 65.7736 35.7761C65.8406 35.7833 65.8646 35.7833 65.8742 35.8C65.8861 35.812 65.8813 35.8287 65.8813 35.8479C65.8813 35.8599 65.8574 35.8671 65.8406 35.8671C65.7137 35.8862 65.6922 35.8742 65.5174 35.8862C65.4576 35.8934 65.3738 35.8934 65.345 35.9341C65.3259 35.9581 65.3211 36.0107 65.3211 36.1855V39.8659C65.3211 39.9018 65.3283 39.9616 65.2852 39.9616C65.2612 39.9616 65.1894 39.885 65.1703 39.8611L62.6444 36.7075C62.6372 37.5169 62.6492 36.7147 62.6492 37.7491V39.6096C62.6492 39.6767 62.6444 39.7294 62.7282 39.7653C62.8479 39.8132 63.0155 39.8132 63.1232 39.8132C63.1639 39.8132 63.219 39.8132 63.2429 39.8419C63.2501 39.8491 63.2501 39.8611 63.2501 39.8659C63.2501 39.885 63.2262 39.9138 63.1591 39.9138C63.1352 39.9138 63.1112 39.9066 63.0873 39.9066C63.0203 39.8994 62.9484 39.8994 62.8838 39.8994C62.788 39.8994 62.697 39.8946 62.6037 39.8946C62.5199 39.8946 62.2038 39.8994 62.0722 39.9066C62.0315 39.9066 61.9931 39.9138 61.9524 39.9138C61.8567 39.9138 61.8399 39.885 61.8399 39.8659C61.8399 39.806 61.9309 39.818 61.9836 39.818C62.0362 39.818 62.0841 39.806 62.2278 39.794C62.3068 39.7868 62.4073 39.7749 62.4552 39.7102C62.4959 39.6575 62.484 39.5378 62.484 39.4708V36.8201L62.4863 36.8153Z" fill="#3E441D"/>
<path d="M75.3743 37.7683V39.2936C75.3743 39.5139 75.3743 39.6528 75.415 39.7127C75.4581 39.7797 75.5586 39.7965 75.6017 39.8037C75.6496 39.8108 75.7023 39.8156 75.7574 39.8156C75.7861 39.8156 75.8723 39.8228 75.8723 39.8755C75.8723 39.9114 75.8292 39.9114 75.8172 39.9114C75.7574 39.9114 75.7047 39.9042 75.6448 39.9042H75.6161L75.1205 39.8851C75.0726 39.8851 74.9769 39.8851 74.7207 39.897C74.4166 39.909 74.2777 39.9162 74.0455 39.9162C74.0216 39.9162 73.9545 39.9162 73.9545 39.8635C73.9545 39.8156 74.0072 39.8156 74.0383 39.8156C74.0862 39.8156 74.1293 39.8108 74.1772 39.8037C74.2251 39.7965 74.4166 39.7677 74.4525 39.7246C74.4813 39.6887 74.4765 39.6121 74.4765 39.4253V36.0683C74.4765 36.0275 74.4765 35.9605 74.4166 35.9126C74.3496 35.8647 74.158 35.8527 74.0455 35.8527C74.0168 35.8527 73.9665 35.8527 73.9665 35.8001C73.9665 35.7594 74.0455 35.745 74.079 35.745C74.1341 35.745 74.182 35.757 74.2346 35.7689C74.2753 35.7737 74.2945 35.7737 74.3184 35.7737L75.1684 35.7809C75.324 35.7809 75.6281 35.7618 75.7598 35.7618C75.8076 35.7618 75.8795 35.7618 75.8795 35.8216C75.8795 35.8408 75.8747 35.8504 75.8675 35.8623C75.8555 35.8743 75.8436 35.8815 75.8196 35.8815L75.6041 35.8887C75.5371 35.8887 75.4724 35.9054 75.4365 35.9413C75.3839 35.994 75.3767 36.109 75.3767 36.2095V37.6223H76.818V36.2814C76.818 36.1664 76.8012 36.018 76.7342 35.9461C76.6696 35.8743 76.5786 35.8743 76.5139 35.8743H76.4014C76.3727 35.8743 76.3104 35.8743 76.3104 35.8144C76.3104 35.8025 76.3152 35.7977 76.3224 35.7857C76.3415 35.7618 76.3511 35.7618 76.3823 35.7618C76.4541 35.7618 76.5211 35.7618 76.5858 35.7689C76.6576 35.7737 76.6696 35.7809 76.7845 35.7809H77.7422C77.9026 35.7809 78.0534 35.7618 78.221 35.7618C78.233 35.7618 78.2761 35.7618 78.2761 35.7977C78.2761 35.8336 78.2473 35.8384 78.2282 35.8384C78.1564 35.8504 78.0893 35.8504 78.0247 35.8575C77.9241 35.8623 77.8451 35.8815 77.7972 35.9294C77.7182 36.006 77.7254 36.1856 77.7254 36.3245V39.2697C77.7254 39.4493 77.7062 39.6456 77.8212 39.7366C77.8738 39.7797 77.9576 39.8037 78.0247 39.8156C78.0726 39.8228 78.1157 39.8276 78.1611 39.8348C78.2042 39.8396 78.2402 39.8468 78.2617 39.8755C78.2689 39.8827 78.2737 39.8946 78.2737 39.9042C78.2737 39.9401 78.2306 39.9401 78.2186 39.9401C78.1588 39.9401 78.1061 39.9282 78.0582 39.921C77.9983 39.9138 77.9457 39.9138 77.8858 39.9138C77.6464 39.9138 77.407 39.8947 77.1676 39.8947C76.9808 39.8947 76.5283 39.9066 76.4206 39.9066C76.3846 39.9066 76.3248 39.9066 76.3248 39.8587C76.3248 39.8108 76.3775 39.8108 76.4086 39.8108C76.4804 39.8108 76.648 39.7869 76.727 39.7462C76.8228 39.6983 76.8228 39.6145 76.8228 39.5187V37.7659H75.3815L75.3743 37.7683Z" fill="#3E441D"/>
<path d="M85.0158 36.2047C85.2193 36.3963 85.3797 36.6405 85.4875 36.8992C85.612 37.1913 85.6671 37.5145 85.6671 37.8378C85.6671 38.4604 85.4324 38.9919 85.1092 39.3511C84.9727 39.5068 84.8099 39.6385 84.6304 39.739C84.3622 39.8875 84.051 39.9713 83.7397 39.9713C83.213 39.9713 82.7222 39.739 82.375 39.3559C81.9991 38.944 81.8004 38.3861 81.8004 37.8306C81.8004 37.4714 81.8794 37.1075 82.0398 36.7842C82.1308 36.6094 82.2433 36.449 82.375 36.3053C82.8347 35.8144 83.3806 35.7019 83.7685 35.7019C84.1348 35.7019 84.6064 35.8144 85.0134 36.2047H85.0158ZM83.1364 36.2287C82.976 36.5232 82.8563 36.9997 82.8563 37.7061C82.8563 38.082 82.885 39.0398 83.2872 39.6025C83.3279 39.6624 83.3782 39.7175 83.4357 39.763C83.5482 39.854 83.6679 39.8779 83.8139 39.8779C84.0414 39.8779 84.2257 39.8061 84.3646 39.4948C84.4173 39.3679 84.4604 39.2434 84.4915 39.1117C84.5753 38.7453 84.616 38.2808 84.616 37.8737C84.616 37.2823 84.5322 36.5759 84.3359 36.1856C84.2952 36.109 84.2449 36.0299 84.1874 35.9701C84.0869 35.8743 83.936 35.8025 83.7685 35.8025C83.6009 35.8025 83.3255 35.8815 83.1412 36.2263L83.1364 36.2287Z" fill="#3E441D"/>
<path d="M91.4132 39.2864C91.4132 39.5139 91.4132 39.6504 91.461 39.7103C91.4802 39.7342 91.5089 39.7462 91.54 39.7582C91.5927 39.7773 91.6406 39.7773 91.7005 39.7821L91.9207 39.806C91.9399 39.806 91.9495 39.8108 91.9614 39.818C91.9806 39.8228 91.9854 39.83 91.9854 39.8539C91.9854 39.9018 91.9614 39.921 91.8609 39.921C91.7124 39.921 91.5807 39.8922 90.9702 39.8922C90.8745 39.8922 90.7739 39.897 90.6781 39.897C90.4579 39.9042 90.2424 39.909 90.0197 39.909C89.9479 39.909 89.9359 39.8851 89.9359 39.8611C89.9359 39.8132 89.9599 39.8084 89.9886 39.8084H90.1562C90.24 39.8084 90.3118 39.8084 90.3884 39.7797C90.4363 39.7606 90.489 39.7246 90.5081 39.6528C90.5081 39.6456 90.5201 39.6001 90.5201 39.2817V35.9054C90.465 35.9006 90.4076 35.9006 90.3525 35.9006C90.0293 35.9006 89.742 35.9413 89.5816 36.164C89.481 36.3029 89.4379 36.516 89.3613 36.8632C89.3493 36.9111 89.3374 36.9638 89.2775 36.9638C89.2656 36.9638 89.2608 36.9638 89.2488 36.959C89.2248 36.947 89.2249 36.9303 89.2249 36.9063C89.2249 36.8632 89.2249 36.8273 89.232 36.7914C89.2368 36.7435 89.2368 36.6956 89.244 36.6477C89.2919 36.0443 89.3039 35.9533 89.3086 35.7617C91.0133 35.7617 89.4882 35.7809 91.0444 35.7809C91.3006 35.7809 92.2415 35.7737 92.4929 35.7689C92.56 35.7689 92.6055 35.7617 92.6653 35.757C92.6725 35.9605 92.6845 36.1449 92.7132 36.3795L92.7611 36.7626C92.7731 36.8824 92.7659 36.9231 92.7252 36.9231C92.6605 36.9231 92.6414 36.8273 92.6294 36.7914C92.5217 36.3915 92.457 36.188 92.311 36.0611C92.1194 35.8934 91.8202 35.8934 91.6645 35.8934C91.552 35.8934 91.485 35.9006 91.4132 35.9054V39.2864Z" fill="#3E441D"/>
<path d="M97.5615 37.6581H97.8607C98.1361 37.6581 98.3204 37.6222 98.4282 37.5336C98.5598 37.4259 98.5958 37.2295 98.6197 37.0547C98.6269 36.9901 98.6317 36.8464 98.6915 36.8344H98.7107C98.7346 36.8344 98.7634 36.8416 98.7634 36.9613C98.7634 37.0403 98.7586 37.117 98.7514 37.1936C98.7442 37.2606 98.7442 37.3181 98.7442 37.3852C98.7274 38.1562 98.7562 38.3956 98.7562 38.5632C98.7562 38.5824 98.7562 38.6303 98.7083 38.6303C98.6293 38.6303 98.6293 38.5106 98.6125 38.41C98.5646 38.1227 98.5359 37.9598 98.4521 37.8784C98.3563 37.7874 98.1648 37.7779 97.9685 37.7779H97.5615V39.794L98.3635 39.7868C98.5622 39.7868 98.8711 39.794 99.0938 39.6264C99.2135 39.5354 99.2781 39.4109 99.2853 39.3989C99.338 39.2912 99.405 39.0158 99.4218 38.8602C99.4218 38.841 99.4337 38.7692 99.4768 38.7692C99.4888 38.7692 99.5008 38.7764 99.5056 38.7811C99.5295 38.8051 99.5295 38.8482 99.5295 38.8817C99.5295 38.9895 99.5247 39.0924 99.5247 39.193C99.5247 39.3367 99.5175 39.4612 99.5127 39.9473C98.6221 39.9353 98.7945 39.9066 97.0946 39.9066C96.7403 39.9066 96.2997 39.9185 96.1609 39.9185C96.1249 39.9185 96.0938 39.9137 96.0938 39.8706C96.0938 39.8347 96.1178 39.8299 96.1417 39.8299L96.3404 39.8132C96.4003 39.806 96.4529 39.8012 96.508 39.7844C96.5511 39.7725 96.5918 39.7557 96.6158 39.7246C96.6684 39.6647 96.6636 39.557 96.6636 39.4779V36.1448C96.6636 36.0658 96.6636 35.97 96.6086 35.9245C96.5846 35.9006 96.532 35.8814 96.3763 35.8814H96.2518C96.2279 35.8814 96.192 35.8766 96.192 35.8287C96.192 35.7689 96.2327 35.7689 96.2877 35.7689H96.508C96.6397 35.7689 96.8791 35.7689 97.2311 35.7641C97.5615 35.7569 97.8895 35.7521 98.2175 35.7521C98.433 35.7521 98.6412 35.7593 98.8567 35.7593C98.9645 35.7593 99.0722 35.7593 99.1799 35.7521C99.2326 35.7521 99.2757 35.7473 99.3404 35.7354C99.3763 36.231 99.3882 36.3268 99.393 36.3867C99.405 36.5064 99.4218 36.6261 99.4218 36.753C99.4218 36.777 99.4218 36.8296 99.3739 36.8296C99.302 36.8296 99.302 36.765 99.2829 36.6812C99.2302 36.4537 99.1823 36.2502 98.9669 36.0897C98.7993 35.9628 98.5311 35.8862 98.1121 35.8862C97.9804 35.8862 97.8488 35.8934 97.5567 35.9054V37.6701L97.5615 37.6581Z" fill="#3E441D"/>
<path d="M104.457 39.7773C104.72 39.7893 105.359 39.7821 105.606 39.7342C105.865 39.6863 106.013 39.5666 106.121 39.3511C106.188 39.2194 106.24 38.9153 106.252 38.8554C106.26 38.8267 106.264 38.8027 106.281 38.7764C106.281 38.7764 106.285 38.7724 106.293 38.7644C106.293 38.7644 106.3 38.7596 106.305 38.7596C106.31 38.7596 106.322 38.7716 106.329 38.7764C106.353 38.8051 106.348 38.8482 106.348 38.8913C106.348 39.2265 106.324 39.1834 106.324 39.5067C106.324 39.6073 106.331 39.7102 106.331 39.8108V39.9305C106.02 39.9114 105.865 39.9114 105.56 39.9114C105.161 39.9114 104.758 39.8994 104.359 39.8994H103.312C103.205 39.8994 103.133 39.9066 103.068 39.8802C103.056 39.8755 103.049 39.8755 103.049 39.8515C103.049 39.8276 103.061 39.8036 103.133 39.8036C103.224 39.8036 103.444 39.7797 103.516 39.7198C103.552 39.6911 103.571 39.6408 103.571 39.4325V36.1879C103.571 36.0323 103.559 35.9724 103.528 35.9365C103.499 35.8958 103.444 35.8767 103.403 35.8647C103.375 35.8575 103.336 35.8527 103.308 35.8527C103.26 35.8527 103.212 35.8575 103.164 35.8575C103.104 35.8575 103.092 35.8336 103.092 35.8096C103.092 35.7617 103.145 35.7617 103.176 35.7617C103.212 35.7617 103.248 35.7665 103.284 35.7665C103.432 35.7737 103.588 35.7737 103.743 35.7737C104.107 35.7737 104.454 35.7617 104.825 35.7617C104.849 35.7617 104.916 35.7617 104.916 35.8096C104.916 35.8288 104.904 35.8647 104.809 35.8647C104.706 35.8647 104.557 35.8455 104.497 35.9245C104.478 35.9533 104.462 36.0083 104.462 36.1927V39.7725L104.457 39.7773Z" fill="#3E441D"/>
<path d="M112.35 35.7569C112.35 35.7928 112.343 35.8168 112.339 35.8814C112.339 35.9485 112.327 36.1137 112.327 36.2646C112.327 36.595 112.355 36.5447 112.355 36.7243C112.355 36.7722 112.327 36.777 112.307 36.777C112.24 36.777 112.216 36.6573 112.207 36.5974C112.188 36.5064 112.147 36.4298 112.106 36.3532C112.022 36.2047 111.891 36.0227 111.74 35.9341C111.663 35.8862 111.532 35.8264 111.321 35.8264C110.95 35.8264 110.591 35.994 110.591 36.4298C110.591 36.5423 110.61 36.6453 110.706 36.777C110.825 36.9446 111.029 37.0883 111.489 37.3445C111.747 37.4881 112.14 37.7036 112.343 37.9191C112.542 38.1299 112.65 38.422 112.65 38.7285C112.65 39.3319 112.2 39.9784 111.256 39.9784C110.957 39.9784 110.789 39.9305 110.557 39.8395C110.289 39.739 110.239 39.715 110.193 39.715C110.169 39.715 110.15 39.7198 110.133 39.7318C110.11 39.7438 110.098 39.7677 110.086 39.7916C110.033 39.9066 110.038 39.9664 110.007 39.9904C110.002 39.9952 109.995 39.9952 109.987 39.9952C109.971 39.9952 109.94 39.9712 109.94 39.9114C109.94 39.8204 109.992 39.6001 109.992 39.2122C109.992 39.0326 109.973 39.0015 109.973 38.7524C109.973 38.7285 109.968 38.6519 110.033 38.6519C110.105 38.6519 110.112 38.7716 110.141 38.9081C110.193 39.1427 110.289 39.3989 110.517 39.5977C110.665 39.7294 110.924 39.8611 111.199 39.8611C111.671 39.8611 111.965 39.5139 111.965 39.1379C111.965 38.9655 111.893 38.8386 111.821 38.762C111.69 38.6183 111.378 38.4675 111.127 38.3358C110.631 38.0724 110.392 37.8689 110.241 37.6414C110.05 37.354 110.026 37.0236 110.026 36.8871C110.026 36.1688 110.6 35.6971 111.347 35.6971C111.515 35.6971 111.687 35.721 111.951 35.8407C112.051 35.8886 112.063 35.8814 112.111 35.8886C112.123 35.8886 112.14 35.8934 112.152 35.8886C112.212 35.8695 112.212 35.7857 112.231 35.733C112.248 35.6803 112.255 35.6803 112.283 35.6803C112.307 35.6803 112.343 35.6851 112.343 35.7593L112.35 35.7569Z" fill="#3E441D"/>
</svg>
