<svg width="201" height="70" viewBox="0 0 201 70" fill="none" xmlns="http://www.w3.org/2000/svg">
<g clip-path="url(#clip0_21195_5584)">
<path d="M7.31374 0H0.75V18.8475H7.31374V0Z" fill="#3E441D"/>
<path d="M7.31374 30.2334H0.75V43.1852H7.31374V30.2334Z" fill="#3E441D"/>
<path d="M26.6342 21.5912C31.4893 20.2426 35.4676 17.3815 35.4676 12.3605C35.4676 1.87397 20.7243 0.278502 15.6161 0.0415039V43.1556C21.7139 42.9529 36.342 41.4136 36.342 30.607C36.342 30.607 36.7403 23.9124 26.6317 21.5912H26.6342Z" fill="#3E441D"/>
<path d="M74.2814 35.1173H56.1409V0.486213C56.1409 0.271204 55.8804 0 55.4896 0H46.9066C46.5158 0 46.1901 0.268761 46.1901 0.486213V42.6695C46.1901 42.8845 46.5158 43.1557 46.9066 43.1557H74.2789C74.7348 43.1557 74.9929 42.8845 74.9929 42.6695V35.6572C74.9929 35.3885 74.7323 35.1173 74.2789 35.1173H74.2814Z" fill="#3E441D"/>
<path d="M84.846 0.486213V42.6695C84.846 42.8845 85.1717 43.1557 85.56 43.1557H115.924V35.1173H94.7918V25.4077H115.207C115.598 25.4077 115.921 25.1389 115.921 24.9215V18.0705C115.921 17.8017 115.595 17.5843 115.207 17.5843H94.7918V7.82094H115.924V0H85.56C85.1692 0 84.846 0.268761 84.846 0.486213Z" fill="#3E441D"/>
<path d="M152.708 20.7752C151.794 20.1693 150.766 19.6415 149.634 19.2042C145.929 17.748 142.286 17.748 141.963 17.748C141.57 17.748 141.179 17.7236 140.796 17.6796C138.416 17.2447 135.958 15.7201 135.482 13.3941C135.469 13.2646 135.462 13.1351 135.462 13.0007C135.462 9.54834 138.388 7.76719 141.963 7.76719C145.345 7.76719 148.204 9.22339 148.334 12.2995C148.334 12.4607 148.66 12.7319 149.048 12.7319H157.175C157.631 12.7319 157.954 12.4632 157.889 12.2995C157.759 4.9623 150.867 0 141.961 0C141.938 0 141.918 0 141.895 0C133.573 0 125.772 4.47609 125.772 12.5682C125.772 12.6586 125.774 12.7466 125.777 12.837C125.777 12.8908 125.772 12.9445 125.772 13.0007C125.772 16.9661 127.683 20.1913 131.15 22.3805C132.065 22.9864 133.092 23.5141 134.224 23.9515C137.93 25.4077 141.572 25.4077 141.895 25.4077C142.289 25.4077 142.68 25.4321 143.063 25.4761C145.443 25.911 147.9 27.4356 148.376 29.7616C148.389 29.8911 148.396 30.0206 148.396 30.155C148.396 33.6073 145.47 35.3885 141.895 35.3885C138.513 35.3885 135.655 33.9323 135.525 30.8562C135.525 30.6949 135.199 30.4237 134.811 30.4237H126.684C126.228 30.4237 125.904 30.6925 125.97 30.8562C126.1 38.1934 132.992 43.1557 141.898 43.1557C141.92 43.1557 141.94 43.1557 141.963 43.1557C150.285 43.1557 158.087 38.6796 158.087 30.5874C158.087 30.497 158.084 30.4091 158.082 30.3187C158.082 30.2649 158.087 30.2112 158.087 30.155C158.087 26.1895 156.175 22.9644 152.708 20.7752Z" fill="#3E441D"/>
<path d="M200.25 30.155C200.25 26.1895 198.339 22.9644 194.871 20.7752C193.957 20.1693 192.93 19.6415 191.797 19.2042C188.092 17.748 184.45 17.748 184.126 17.748C183.733 17.748 183.342 17.7236 182.959 17.6796C180.579 17.2447 178.121 15.7201 177.645 13.3941C177.633 13.2646 177.625 13.1351 177.625 13.0007C177.625 9.54834 180.551 7.76719 184.126 7.76719C187.508 7.76719 190.367 9.22339 190.497 12.2995C190.497 12.4607 190.823 12.7319 191.211 12.7319H199.338C199.794 12.7319 200.117 12.4632 200.052 12.2995C199.922 4.9623 193.03 0 184.124 0C184.101 0 184.081 0 184.059 0C175.736 0 167.935 4.47609 167.935 12.5682C167.935 12.6586 167.937 12.7466 167.94 12.837C167.94 12.8908 167.935 12.9445 167.935 13.0007C167.935 16.9661 169.846 20.1913 173.314 22.3805C174.228 22.9864 175.255 23.5141 176.388 23.9515C180.093 25.4077 183.736 25.4077 184.059 25.4077C184.452 25.4077 184.843 25.4321 185.226 25.4761C187.606 25.911 190.064 27.4356 190.54 29.7616C190.552 29.8911 190.56 30.0206 190.56 30.155C190.56 33.6073 187.634 35.3885 184.059 35.3885C180.677 35.3885 177.818 33.9323 177.688 30.8562C177.688 30.6949 177.362 30.4237 176.974 30.4237H168.847C168.391 30.4237 168.068 30.6925 168.133 30.8562C168.263 38.1934 175.155 43.1557 184.061 43.1557C184.084 43.1557 184.104 43.1557 184.126 43.1557C192.449 43.1557 200.25 38.6796 200.25 30.5874C200.25 30.497 200.248 30.4091 200.245 30.3187C200.245 30.2649 200.25 30.2112 200.25 30.155Z" fill="#3E441D"/>
<path d="M34.0547 69.7752C34.0547 69.8411 33.9846 69.8729 33.8468 69.8729H31.4593C31.314 69.8729 31.2413 69.8436 31.2413 69.7874C31.2413 69.7312 31.4117 69.6921 31.7499 69.6701C31.9303 69.6554 32.0355 69.6261 32.0655 69.5797C32.0931 69.5333 32.1081 69.3671 32.1081 69.0837V65.9612H28.8012V68.9933C28.8012 69.3158 28.8263 69.504 28.8789 69.5626C28.9315 69.6212 29.1018 69.6579 29.3949 69.6799C29.5853 69.6945 29.6805 69.7263 29.6805 69.7752C29.6805 69.8411 29.6079 69.8729 29.4626 69.8729H27.0776C26.9298 69.8729 26.8571 69.8436 26.8571 69.7874C26.8571 69.7312 26.9298 69.6945 27.0776 69.6799C27.1728 69.6726 27.2705 69.6652 27.3732 69.6579C27.5336 69.6432 27.6388 69.6066 27.6814 69.5504C27.7039 69.5137 27.7139 69.3134 27.7139 68.9518V63.3005C27.7139 62.978 27.6964 62.7898 27.6638 62.7336C27.6313 62.6774 27.516 62.6432 27.3181 62.6383C27.0901 62.6237 26.9573 62.6115 26.9173 62.6041C26.8772 62.5968 26.8571 62.5675 26.8571 62.5137C26.8571 62.4527 26.9047 62.4233 26.9999 62.4233C27.0275 62.4233 27.0926 62.4258 27.1853 62.4356C27.3682 62.4502 27.8016 62.4575 28.483 62.4575C28.8563 62.4575 29.1169 62.4527 29.2647 62.4429C29.3148 62.4307 29.3799 62.4258 29.4626 62.4258C29.5929 62.4258 29.6605 62.4624 29.6605 62.5333C29.6605 62.5968 29.5403 62.6286 29.3048 62.6286C29.0693 62.6286 28.924 62.6555 28.8764 62.7092C28.8288 62.763 28.8062 62.934 28.8062 63.2198V65.6924H32.1131V63.3811C32.1131 63 32.0831 62.7776 32.0255 62.7092C31.9678 62.6408 31.7624 62.609 31.4117 62.6188C31.3014 62.6188 31.2463 62.587 31.2463 62.5211C31.2463 62.4551 31.309 62.4233 31.4317 62.4233H33.8267C33.9795 62.4233 34.0572 62.4551 34.0572 62.5211C34.0572 62.587 33.8969 62.6212 33.5737 62.6286C33.4785 62.6286 33.4083 62.6359 33.3658 62.6506C33.2931 62.6726 33.248 62.7116 33.228 62.7678C33.2079 62.824 33.2004 62.9926 33.2004 63.2736V68.9762C33.2004 69.3183 33.2179 69.5186 33.2555 69.5773C33.3282 69.6554 33.5386 69.6945 33.8843 69.6945C33.9996 69.6799 34.0572 69.7092 34.0572 69.7801L34.0547 69.7752Z" fill="#3E441D"/>
<path d="M49.5171 66.1934C49.5171 67.2587 49.1889 68.1578 48.5325 68.8957C47.8761 69.6311 47.0719 70 46.1199 70C45.1078 70 44.2586 69.6262 43.5696 68.8786C42.8807 68.1334 42.5375 67.2123 42.5375 66.1177C42.5375 65.0231 42.8681 64.0897 43.532 63.3787C44.1959 62.6678 45.0427 62.311 46.0774 62.311C47.0519 62.311 47.8686 62.6824 48.5275 63.4252C49.1864 64.1679 49.5171 65.0915 49.5171 66.191V66.1934ZM48.287 66.2496C48.287 64.9376 48.0114 63.9163 47.4628 63.1857C47.117 62.7264 46.6385 62.4967 46.0222 62.4967C45.406 62.4967 44.9826 62.6726 44.6594 63.0245C44.0657 63.6695 43.77 64.7201 43.77 66.1739C43.77 67.3271 43.978 68.2238 44.3913 68.8615C44.8047 69.4992 45.3859 69.8168 46.1325 69.8168C46.8289 69.8168 47.3525 69.5163 47.7033 68.9152C48.0916 68.2482 48.2845 67.3589 48.2845 66.2496H48.287Z" fill="#3E441D"/>
<path d="M63.9472 64.3413C63.9472 64.4342 63.9046 64.4806 63.8169 64.4806C63.7292 64.4806 63.6666 64.3877 63.629 64.202C63.614 64.0726 63.5989 63.9431 63.5839 63.816C63.5338 63.557 63.4486 63.3396 63.3309 63.1612C63.1756 62.9242 62.925 62.7752 62.5718 62.7117C62.3438 62.6677 62.1609 62.6506 62.0231 62.6579C61.6774 62.6677 61.4695 62.675 61.3968 62.6799V69.1521C61.3968 69.4111 61.467 69.5699 61.6048 69.6359C61.6774 69.6701 61.8829 69.6921 62.2211 69.6994C62.3087 69.7068 62.3538 69.7361 62.3538 69.7898C62.3538 69.8509 62.2962 69.8802 62.1785 69.8802C62.1209 69.8802 62.0682 69.8753 62.0257 69.868C61.5872 69.8534 61.2741 69.846 61.0912 69.846C60.8482 69.846 60.6227 69.8509 60.4098 69.8607C60.1968 69.8705 59.9263 69.8778 59.5956 69.8778C59.4277 69.8778 59.3425 69.8485 59.3425 69.7923C59.3425 69.7263 59.5004 69.6921 59.816 69.6848C60.044 69.6848 60.1893 69.6384 60.2544 69.5455C60.2895 69.4893 60.3096 69.3427 60.3096 69.1057V62.6774C59.583 62.6848 59.1346 62.719 58.9592 62.7849C58.4983 62.9486 58.2252 63.3884 58.145 64.1019C58.1225 64.3169 58.0724 64.4244 57.9922 64.4244C57.9045 64.4244 57.8594 64.3487 57.8594 64.1996C57.8594 64.1214 57.8619 64.0432 57.872 63.9626L57.8945 63.7158C57.9171 63.3884 57.9496 62.9535 57.9947 62.4185H58.4908L60.7329 62.4502C60.9985 62.4576 61.4069 62.4576 61.9655 62.4502L63.7893 62.4185C63.8019 62.8192 63.852 63.4129 63.9321 64.1972C63.9321 64.2192 63.9346 64.246 63.9447 64.2778C63.9522 64.3096 63.9547 64.3291 63.9547 64.3364L63.9472 64.3413Z" fill="#3E441D"/>
<path d="M77.9816 68.1455C77.9816 68.1749 77.9741 68.3483 77.9591 68.6708C77.9441 68.9934 77.9365 69.2988 77.9365 69.592V69.9462C77.22 69.9023 75.7971 69.8827 73.6726 69.8827H72.2997C72.162 69.8827 72.0918 69.8534 72.0918 69.7948C72.0918 69.7581 72.1144 69.7337 72.1595 69.7263C72.182 69.7263 72.3198 69.7166 72.5753 69.697C72.7657 69.6824 72.881 69.6433 72.921 69.5797C72.9611 69.5162 72.9812 69.3476 72.9812 69.074V63.0318C72.9812 62.8241 72.9486 62.6995 72.8885 62.6604C72.8284 62.6213 72.6279 62.6017 72.2897 62.6017C72.172 62.6017 72.1144 62.5724 72.1144 62.5113C72.1144 62.4503 72.1945 62.4209 72.3574 62.4209H77.0171C77.2376 62.4209 77.438 62.4063 77.6209 62.377C77.6359 62.6848 77.6685 63.1099 77.7211 63.6523L77.7662 64.1117C77.7737 64.1483 77.7787 64.1948 77.7787 64.2509C77.7787 64.3218 77.7436 64.3585 77.6785 64.3585C77.5983 64.3585 77.5407 64.2681 77.5031 64.0897C77.3653 63.4422 77.1374 63.0342 76.8217 62.8607C76.5887 62.7312 75.9724 62.6677 74.9753 62.6677H74.0735V65.8195H74.339C75.1582 65.8195 75.6593 65.7585 75.8397 65.6363C76.0175 65.5141 76.1403 65.1623 76.2079 64.5759C76.223 64.4269 76.263 64.3511 76.3282 64.3511C76.4083 64.3511 76.4484 64.4147 76.4484 64.5441C76.4484 64.6736 76.4409 64.8618 76.4259 65.1134C76.4108 65.3651 76.4033 65.5532 76.4033 65.6803C76.4033 66.445 76.4159 66.9703 76.4384 67.2562C76.4434 67.327 76.4459 67.3881 76.4459 67.4394C76.4459 67.5323 76.4058 67.5787 76.3257 67.5787C76.2756 67.5787 76.2405 67.5494 76.223 67.4883C76.2054 67.4272 76.1729 67.2293 76.1303 66.8921C76.0726 66.4694 75.8923 66.208 75.5941 66.1078C75.4639 66.0663 75.1206 66.0443 74.567 66.0443H74.0735V69.6359C75.6843 69.6359 76.6288 69.6042 76.9094 69.5406C77.3929 69.4356 77.6685 68.9836 77.7336 68.1871C77.7486 68.0112 77.7962 67.9232 77.8764 67.9232C77.9491 67.9232 77.9866 67.9989 77.9866 68.148L77.9816 68.1455Z" fill="#3E441D"/>
<path d="M91.9833 69.0251C91.9833 69.2108 91.9708 69.5186 91.9483 69.9462H91.828C91.7829 69.9462 91.6777 69.9389 91.5098 69.9242C91.342 69.9095 91.1516 69.9022 90.9387 69.9022L86.3766 69.8705C86.2513 69.8705 86.1912 69.8387 86.1912 69.7727C86.1912 69.7239 86.2889 69.6921 86.4893 69.6774C86.7674 69.6628 86.9353 69.6335 86.9879 69.587C87.043 69.5406 87.0706 69.4062 87.0706 69.1839V63.1612C87.0706 62.8973 87.043 62.7434 86.9879 62.7019C86.9328 62.6579 86.7374 62.6383 86.4017 62.6383C86.2614 62.6383 86.1937 62.5993 86.1937 62.5211C86.1937 62.4551 86.2388 62.4233 86.3265 62.4233H86.4242C86.6672 62.4453 87.1457 62.4551 87.8647 62.4551C87.9299 62.4551 88.0576 62.4502 88.248 62.4404C88.4384 62.4282 88.5963 62.4233 88.719 62.4233H88.8393C88.972 62.4233 89.0372 62.46 89.0372 62.5308C89.0372 62.5748 89.0171 62.6017 88.977 62.6115C88.937 62.6237 88.8092 62.631 88.5962 62.6383C88.3833 62.6457 88.258 62.6799 88.218 62.7385C88.1779 62.7996 88.1578 62.9853 88.1578 63.3005V69.6237C88.3557 69.631 88.6313 69.6359 88.9821 69.6359C89.8388 69.6359 90.4451 69.5919 90.7958 69.5064C91.1466 69.4209 91.3846 69.2596 91.5098 69.0226C91.6351 68.7856 91.7078 68.4705 91.7303 68.0698C91.7378 67.9769 91.7779 67.9305 91.8581 67.9305C91.9508 67.9305 91.9908 67.9842 91.9858 68.0917V69.0226L91.9833 69.0251Z" fill="#3E441D"/>
<path d="M113.115 69.7898C113.115 69.8509 113.068 69.8802 112.972 69.8802C112.92 69.8802 112.872 69.8753 112.83 69.868C112.391 69.846 112.013 69.8362 111.697 69.8362C111.382 69.8362 110.886 69.8484 110.247 69.868C110.034 69.8753 109.878 69.8802 109.776 69.8802C109.665 69.8802 109.61 69.8484 109.61 69.7825C109.61 69.7483 109.63 69.7263 109.67 69.719C109.711 69.7116 109.851 69.7043 110.094 69.697C110.322 69.653 110.452 69.5895 110.49 69.4991C110.527 69.4087 110.545 69.1228 110.545 68.6366V63.0854C110.537 62.9559 110.532 62.8949 110.532 62.9046C110.532 62.7263 110.349 62.6359 109.984 62.6359C109.778 62.6359 109.675 62.6114 109.675 62.5601C109.675 62.5088 109.691 62.4819 109.721 62.4746C109.751 62.4673 109.846 62.4624 110.006 62.4624C109.934 62.4624 110.064 62.4624 110.402 62.4624H112.897C112.992 62.4624 113.04 62.4893 113.04 62.543C113.04 62.5821 113.025 62.609 112.99 62.6188C112.957 62.631 112.845 62.6383 112.657 62.6432C112.429 62.6579 112.288 62.7043 112.238 62.7825L112.206 62.9853V69.0324C112.206 69.3402 112.241 69.521 112.308 69.5772C112.379 69.6334 112.614 69.675 113.017 69.6945C113.083 69.7018 113.115 69.7336 113.115 69.7849V69.7898Z" fill="#3E441D"/>
<path d="M127.227 67.9353C127.227 68.38 127.089 68.7612 126.809 69.0812C126.531 69.3989 126.145 69.6139 125.656 69.7214C125.268 69.8069 124.902 69.8582 124.557 69.8729C124.211 69.8875 123.201 69.8949 121.523 69.8949C121.287 69.8949 121.15 69.8924 121.104 69.8851C121.059 69.8778 121.039 69.8533 121.039 69.8094C121.039 69.7458 121.157 69.7141 121.395 69.7141C121.633 69.7141 121.781 69.6799 121.841 69.6114C121.899 69.543 121.929 69.3769 121.929 69.113V62.973C121.929 62.7654 121.758 62.6579 121.418 62.6505C121.157 62.6432 121.027 62.6139 121.027 62.5601C121.027 62.499 121.107 62.4697 121.27 62.4697H124.359C126.052 62.4697 126.897 63.0366 126.897 64.1678C126.897 65.106 126.265 65.6875 125.008 65.9099L124.985 65.9539C125.724 66.1053 126.238 66.2935 126.523 66.5231C126.992 66.9043 127.227 67.3758 127.227 67.9427V67.9353ZM125.466 67.8889C125.466 66.8823 125.173 66.2959 124.587 66.1322C124.354 66.0687 124.021 66.0345 123.587 66.0345V66.6575C123.587 66.8359 123.58 67.09 123.565 67.4174C123.557 67.5835 123.555 67.8889 123.555 68.3385C123.555 69.1106 123.577 69.521 123.62 69.5724C123.677 69.6505 123.843 69.6896 124.116 69.6896C125.018 69.6896 125.466 69.0886 125.466 67.8889ZM125.258 64.2216C125.258 63.1856 124.935 62.6676 124.289 62.6676C124.058 62.6676 123.905 62.6798 123.825 62.6994C123.667 62.7483 123.587 62.8607 123.587 63.0317V65.861C124.226 65.861 124.664 65.7486 124.902 65.5287C125.14 65.3064 125.258 64.8715 125.258 64.2216Z" fill="#3E441D"/>
<path d="M138.962 69.7898C138.962 69.8509 138.914 69.8802 138.819 69.8802C138.766 69.8802 138.719 69.8753 138.676 69.868C138.238 69.846 137.859 69.8362 137.544 69.8362C137.228 69.8362 136.732 69.8484 136.093 69.868C135.88 69.8753 135.725 69.8802 135.622 69.8802C135.512 69.8802 135.457 69.8484 135.457 69.7825C135.457 69.7483 135.477 69.7263 135.517 69.719C135.557 69.7116 135.697 69.7043 135.94 69.697C136.168 69.653 136.299 69.5895 136.336 69.4991C136.374 69.4087 136.391 69.1228 136.391 68.6366V63.0854C136.384 62.9559 136.379 62.8949 136.379 62.9046C136.379 62.7263 136.196 62.6359 135.83 62.6359C135.625 62.6359 135.522 62.6114 135.522 62.5601C135.522 62.5088 135.537 62.4819 135.567 62.4746C135.597 62.4673 135.692 62.4624 135.853 62.4624C135.78 62.4624 135.91 62.4624 136.248 62.4624H138.744C138.839 62.4624 138.886 62.4893 138.886 62.543C138.886 62.5821 138.871 62.609 138.836 62.6188C138.804 62.631 138.691 62.6383 138.503 62.6432C138.275 62.6579 138.135 62.7043 138.085 62.7825L138.052 62.9853V69.0324C138.052 69.3402 138.087 69.521 138.155 69.5772C138.225 69.6334 138.461 69.675 138.864 69.6945C138.929 69.7018 138.962 69.7336 138.962 69.7849V69.7898Z" fill="#3E441D"/>
<path d="M152.778 67.5884C152.778 67.6178 152.738 67.8694 152.658 68.3507C152.6 68.7075 152.525 69.223 152.437 69.8924H148.073C147.845 69.8924 147.652 69.8973 147.492 69.9047C147.279 69.9169 147.086 69.9242 146.908 69.9242C146.813 69.9242 146.766 69.8998 146.766 69.8485C146.766 69.8192 146.781 69.7825 146.811 69.741C146.959 69.5284 147.239 69.0324 147.658 68.2628L149.987 64.0603C150.338 63.4471 150.569 63.0097 150.679 62.7532C150.503 62.7385 150.173 62.7312 149.689 62.7312C149.008 62.7312 148.504 62.8705 148.174 63.149C147.805 63.4642 147.532 63.8747 147.349 64.3804C147.304 64.5099 147.254 64.5734 147.197 64.5734C147.139 64.5734 147.109 64.5417 147.109 64.4781C147.109 64.4342 147.121 64.3877 147.141 64.3389C147.199 64.0677 147.337 63.4275 147.547 62.4209C147.943 62.4698 148.847 62.4966 150.263 62.4966C150.777 62.4966 151.278 62.4795 151.769 62.4478C152.012 62.4307 152.164 62.4233 152.23 62.4233C152.34 62.4233 152.438 62.4258 152.528 62.4356C152.493 62.6017 152.345 62.9169 152.092 63.3811C151.754 63.9651 151.25 64.852 150.581 66.037C150.493 66.1933 149.827 67.3954 148.582 69.6408C149.424 69.6408 149.905 69.6384 150.02 69.6286C150.651 69.6066 151.125 69.5333 151.448 69.4038C151.954 69.2034 152.322 68.6146 152.558 67.6349C152.58 67.5274 152.625 67.4736 152.691 67.4736C152.748 67.4736 152.778 67.5127 152.778 67.5909V67.5884Z" fill="#3E441D"/>
<path d="M168.02 69.7654C168.02 69.8216 167.993 69.8558 167.937 69.8656C167.882 69.8778 167.742 69.8827 167.514 69.8827C167.456 69.8827 167.291 69.8778 167.018 69.8705C166.477 69.8558 166.101 69.8485 165.898 69.8485C165.655 69.8485 165.445 69.851 165.262 69.8583C164.894 69.873 164.646 69.8803 164.513 69.8803C164.315 69.8803 164.217 69.8436 164.217 69.7728C164.217 69.7019 164.425 69.6628 164.843 69.6555C164.946 69.6555 165.024 69.6482 165.074 69.6335C165.192 69.6188 165.249 69.5773 165.249 69.504C165.249 69.4698 165.204 69.3183 165.117 69.0544L164.886 68.3581C164.841 68.2017 164.748 67.911 164.6 67.4907H163.546C163.238 67.4834 162.912 67.4883 162.566 67.503C162.501 67.6471 162.376 67.9672 162.193 68.4681L161.95 69.1644C161.912 69.2719 161.895 69.3574 161.895 69.4209C161.895 69.5431 161.975 69.6213 162.138 69.6579C162.173 69.6653 162.353 69.6799 162.676 69.7019C162.779 69.7092 162.829 69.7386 162.829 69.7923C162.829 69.8534 162.762 69.8827 162.631 69.8827H160.675C160.572 69.8827 160.522 69.8461 160.522 69.7752C160.522 69.7337 160.635 69.7044 160.863 69.6897C161.156 69.675 161.341 69.6213 161.424 69.5284C161.504 69.4356 161.637 69.1351 161.82 68.6293C161.957 68.2702 162.16 67.7424 162.423 67.0436L163.754 63.474C163.819 63.3176 163.912 63.0709 164.029 62.7337C164.109 62.4918 164.172 62.3696 164.217 62.3696C164.262 62.3696 164.342 62.5358 164.46 62.8632C164.605 63.2859 165.252 64.9497 166.394 67.8572C166.542 68.2286 166.687 68.6073 166.835 68.9934C166.96 69.3232 167.083 69.5211 167.208 69.5944C167.304 69.6506 167.532 69.6775 167.89 69.6702C167.978 69.6702 168.02 69.7019 168.02 69.7679V69.7654ZM164.525 67.2562C164.518 67.2342 164.493 67.1658 164.448 67.0534C164.155 66.2251 163.942 65.6436 163.806 65.3089C163.771 65.216 163.724 65.0792 163.658 64.8984L163.586 64.7078C163.456 65.0157 163.293 65.4408 163.102 65.9832C162.892 66.5892 162.737 67.0167 162.641 67.2586H164.52L164.525 67.2562Z" fill="#3E441D"/>
</g>
<defs>
<clipPath id="clip0_21195_5584">
<rect width="199.5" height="70" fill="white" transform="translate(0.75)"/>
</clipPath>
</defs>
</svg>
